<?xml version="1.0" standalone="no"?>
<!DOCTYPE svg PUBLIC "-//W3C//DTD SVG 1.1//EN" "http://www.w3.org/Graphics/SVG/1.1/DTD/svg11.dtd" >
<svg xmlns="http://www.w3.org/2000/svg" xmlns:xlink="http://www.w3.org/1999/xlink" version="1.1">
<metadata>
Created by FontForge 20160407 at Tue Sep 27 12:02:05 2016
 By Jimmy Warting
Copyright (c) 2012 by G-Type Designed and digitized by Nick Cooke. All rights reserved.
</metadata>
<defs>
<font id="HouschkaRoundedAlt-Regular4" horiz-adv-x="600" >
  <font-face 
    font-family="HouschkaRoundedAlt 9"
    font-weight="400"
    font-stretch="normal"
    units-per-em="1000"
    panose-1="2 15 8 3 0 0 0 2 0 3"
    ascent="753"
    descent="-247"
    x-height="459"
    cap-height="681"
    bbox="-168 -342 1277 982"
    underline-thickness="50"
    underline-position="-100"
    unicode-range="U+0020-FB06"
  />
<missing-glyph horiz-adv-x="500" 
d="M0 690h500v-690h-500v690zM250 301l-181 -249h361zM69 638l181 -249l180 249h-361zM218 345l-166 229v-458zM282 345l166 -229v458z" />
    <glyph glyph-name="ff" unicode="ff" horiz-adv-x="679" 
d="M219 458h166v34q0 87 36 142t116 55q62 0 106 -19q56 -23 56 -64q0 -20 -14.5 -35t-35.5 -15q-6 0 -39 14q-21 9 -44 9q-28 0 -38.5 -17t-10.5 -58v-46h86q21 0 35.5 -15.5t14.5 -36.5q0 -22 -14.5 -37t-35.5 -15h-86v-300q0 -26 -19.5 -45t-46.5 -19t-46.5 19t-19.5 45
v300h-166v-300q0 -26 -19.5 -45t-46.5 -19t-46.5 19t-19.5 45v300h-33q-21 0 -36 15t-15 37q0 21 15 36.5t36 15.5h33v46q0 74 36 124.5t113 50.5q52 0 90 -16q52 -22 52 -63q0 -21 -12.5 -35.5t-30.5 -14.5q-11 0 -30 7t-35 7q-51 0 -51 -70v-36z" />
    <glyph glyph-name="fi" unicode="fi" horiz-adv-x="556" 
d="M219 458h206q32 0 49 -18t17 -46v-340q0 -26 -20 -45t-46 -19q-28 0 -47 19t-19 45v300h-140v-300q0 -26 -19.5 -45t-46.5 -19t-46.5 19t-19.5 45v300h-33q-21 0 -36 15t-15 37q0 21 15 36.5t36 15.5h33v52q0 78 41 128.5t140 50.5q77 0 134 -21q66 -25 66 -69
q0 -24 -15.5 -39t-46.5 -15q-18 0 -54 16q-40 18 -65 18q-37 0 -52.5 -22.5t-15.5 -66.5v-32z" />
    <glyph glyph-name="fl" unicode="fl" horiz-adv-x="557" 
d="M492 544v-490q0 -26 -20 -45t-46 -19q-27 0 -47 19t-20 45v487q0 17 -20 27.5t-49 10.5q-71 0 -71 -89v-32h65q21 0 35.5 -15.5t14.5 -36.5q0 -22 -14.5 -37t-35.5 -15h-65v-300q0 -26 -19.5 -45t-46.5 -19t-46.5 19t-19.5 45v300h-33q-21 0 -36 15t-15 37q0 21 15 36.5
t36 15.5h33v52q0 77 43.5 128t142.5 51q80 0 137 -21q49 -19 65.5 -45.5t16.5 -78.5z" />
    <glyph glyph-name="ffi" unicode="ffi" horiz-adv-x="854" 
d="M87 458v54q0 74 36 124.5t113 50.5q52 0 90 -16q52 -22 52 -63q0 -21 -12.5 -35.5t-30.5 -14.5q-11 0 -30 7t-35 7q-51 0 -51 -70v-44h166v52q0 78 41 128.5t139 50.5q80 0 135 -22q66 -24 66 -68q0 -24 -16 -39t-47 -15q-19 0 -53 16q-40 18 -65 18q-37 0 -52.5 -22.5
t-15.5 -66.5v-32h206q31 0 48.5 -18.5t17.5 -45.5v-340q0 -26 -20 -45t-46 -19q-28 0 -47 19t-19 45v300h-140v-300q0 -26 -19.5 -45t-46.5 -19t-46.5 19t-19.5 45v300h-166v-300q0 -26 -19.5 -45t-46.5 -19t-46.5 19t-19.5 45v300h-33q-21 0 -36 15t-15 37q0 21 15 36.5
t36 15.5h33z" />
    <glyph glyph-name="ffl" unicode="ffl" horiz-adv-x="854" 
d="M219 458h166v52q0 78 41 128.5t139 50.5q77 0 134 -21q51 -19 70.5 -46.5t19.5 -77.5v-490q0 -26 -19.5 -45t-46.5 -19t-46.5 19t-19.5 45v487q0 17 -20 27.5t-49 10.5q-71 0 -71 -89v-32h63q21 0 35.5 -15.5t14.5 -36.5q0 -22 -14.5 -37t-35.5 -15h-63v-300
q0 -26 -19.5 -45t-46.5 -19t-46.5 19t-19.5 45v300h-166v-300q0 -26 -19.5 -45t-46.5 -19t-46.5 19t-19.5 45v300h-33q-21 0 -36 15t-15 37q0 21 15 36.5t36 15.5h33v54q0 74 36 124.5t113 50.5q52 0 90 -16q52 -22 52 -63q0 -21 -12.5 -35.5t-30.5 -14.5q-11 0 -30 7t-35 7
q-51 0 -51 -70v-44z" />
    <glyph glyph-name="ffj" unicode="ffj" horiz-adv-x="854" 
d="M219 458h166v52q0 78 41 128.5t139 50.5q80 0 135 -22q66 -24 66 -68q0 -24 -16 -39t-47 -15q-19 0 -53 16q-40 18 -65 18q-37 0 -52.5 -22.5t-15.5 -66.5v-32h206q27 0 46.5 -19t19.5 -45v-383q0 -128 -50 -196q-39 -53 -99 -53q-30 0 -49.5 14t-19.5 40q0 19 8 29.5
t25.5 25.5t29.5 33q23 34 23 131v319h-140v-300q0 -26 -19.5 -45t-46.5 -19t-46.5 19t-19.5 45v300h-166v-300q0 -26 -19.5 -45t-46.5 -19t-46.5 19t-19.5 45v300h-33q-21 0 -36 15t-15 37q0 21 15 36.5t36 15.5h33v54q0 74 36 124.5t113 50.5q52 0 90 -16q52 -22 52 -63
q0 -21 -12.5 -35.5t-30.5 -14.5q-11 0 -30 7t-35 7q-51 0 -51 -70v-44z" />
    <glyph glyph-name="fj" unicode="fj" horiz-adv-x="557" 
d="M219 458h206q27 0 46.5 -19t19.5 -45v-383q0 -128 -49 -196q-39 -53 -99 -53q-31 0 -50.5 13.5t-19.5 40.5q0 19 8 29.5t25.5 25.5t29.5 33q23 34 23 131v319h-140v-300q0 -26 -19.5 -45t-46.5 -19t-46.5 19t-19.5 45v300h-33q-21 0 -36 15t-15 37q0 21 15 36.5t36 15.5
h33v52q0 78 41 128.5t140 50.5q79 0 134 -22q66 -24 66 -68q0 -24 -15.5 -39t-46.5 -15q-18 0 -54 16q-40 18 -65 18q-37 0 -52.5 -22.5t-15.5 -66.5v-32z" />
    <glyph glyph-name=".notdef" horiz-adv-x="500" 
d="M0 690h500v-690h-500v690zM250 301l-181 -249h361zM69 638l181 -249l180 249h-361zM218 345l-166 229v-458zM282 345l166 -229v458z" />
    <glyph glyph-name=".null" horiz-adv-x="0" 
 />
    <glyph glyph-name="nonmarkingreturn" horiz-adv-x="333" 
 />
    <glyph glyph-name="space" unicode=" " horiz-adv-x="259" 
 />
    <glyph glyph-name="exclam" unicode="!" horiz-adv-x="321" 
d="M240 70q0 -33 -23 -56t-56 -23t-56.5 23t-23.5 56q0 34 23.5 57t56.5 23t56 -23t23 -57zM250 567q0 -17 -13 -105l-32 -194q-8 -46 -44 -46t-44 46l-33 194q-13 70 -13 105q0 124 90 124q89 0 89 -124z" />
    <glyph glyph-name="quotedbl" unicode="&#x22;" horiz-adv-x="363" 
d="M94 449q-24 0 -34 13t-13 42l-12 107q-1 13 -1 24q0 24 16 40t44 16t44 -16t16 -40q0 -11 -1 -24l-12 -107q-3 -29 -13 -42t-34 -13zM268 449q-24 0 -34 13t-13 42l-12 107q-1 13 -1 24q0 24 16 40t44 16t44 -16t16 -40q0 -11 -1 -24l-12 -107q-3 -29 -13 -42t-34 -13z
" />
    <glyph glyph-name="numbersign" unicode="#" horiz-adv-x="679" 
d="M254 202h141l29 136h-142zM445 441l29 139q4 20 22 31t39 7q21 -5 33 -22.5t8 -37.5l-25 -117h77q21 0 36 -15.5t15 -36.5t-15 -36t-36 -15h-98l-29 -136h81q20 0 35 -15t15 -37q0 -21 -15 -36.5t-35 -15.5h-102l-29 -137q-4 -21 -22 -32.5t-39 -6.5q-20 5 -32 22.5
t-8 37.5l24 116h-142l-28 -137q-4 -21 -22.5 -32.5t-39.5 -6.5q-21 4 -32.5 22t-7.5 38l25 116h-77q-21 0 -35.5 15.5t-14.5 36.5q0 22 14.5 37t35.5 15h98l29 136h-80q-21 0 -35.5 15t-14.5 36t14.5 36.5t35.5 15.5h101l30 139q5 20 22.5 31t38.5 7q20 -4 32 -22t8 -38
l-25 -117h141z" />
    <glyph glyph-name="dollar" unicode="$" 
d="M267 643v61q0 14 10 24t25 10t25 -10t10 -24v-60q65 -5 124 -28q55 -21 55 -65q0 -27 -18 -45t-45 -18q-9 0 -18 2.5t-22 8.5t-22 9q-57 20 -88 20q-97 0 -97 -58q0 -35 53 -58q16 -7 96.5 -32t116.5 -53q66 -49 66 -136q0 -82 -55 -134t-146 -64v-58q0 -14 -10 -24
t-25 -10t-25 10t-10 24v56q-76 3 -149 35q-57 24 -57 68q0 27 19 45.5t45 18.5q8 0 16 -2.5t13.5 -5t16.5 -9t18 -10.5q46 -24 102 -24q54 0 77 21.5t23 51.5q0 40 -54 64q-18 8 -83 28.5t-98 39.5q-92 51 -92 158q0 71 53.5 118t149.5 55z" />
    <glyph glyph-name="percent" unicode="%" horiz-adv-x="707" 
d="M587 626l-397 -616q-11 -20 -34 -20q-17 0 -29.5 12t-12.5 29q0 8 7 24l397 616q11 20 34 20q18 0 30 -12.5t12 -29.5q0 -9 -7 -23zM260 537q0 34 -24 57.5t-59 23.5q-34 0 -57.5 -23.5t-23.5 -57.5t23.5 -58t57.5 -24q35 0 59 24t24 58zM331 537q0 -63 -45.5 -108
t-107.5 -45q-63 0 -108 44.5t-45 108.5q0 63 45 108t108 45q62 0 107.5 -45t45.5 -108zM447 143q0 -34 24.5 -58t58.5 -24t58 24t24 58t-24 58t-58 24t-58.5 -24t-24.5 -58zM376 143q0 63 45.5 108t107.5 45q63 0 108 -44.5t45 -108.5q0 -63 -45 -108t-108 -45
q-62 0 -107.5 45t-45.5 108z" />
    <glyph glyph-name="ampersand" unicode="&#x26;" horiz-adv-x="689" 
d="M375 528q0 23 -12 36t-33 13q-27 0 -39.5 -17t-12.5 -41q0 -38 23 -78q74 39 74 87zM376 117q-78 68 -140 163q-59 -39 -59 -89q0 -45 30.5 -71.5t88.5 -26.5q45 0 80 24zM639 116q31 -16 31 -56q0 -30 -20 -50t-49 -20q-45 0 -127 55q-79 -55 -189 -55q-113 0 -177 57
t-64 149q0 116 138 187q-36 68 -36 136q0 73 48.5 115.5t135.5 42.5q80 0 125.5 -43t45.5 -108q0 -60 -37 -102.5t-109 -81.5q42 -65 100 -120q6 17 22 82q4 17 20 28.5t39 11.5q28 0 47 -20t19 -47q0 -70 -35 -128q16 -9 40.5 -19.5z" />
    <glyph glyph-name="quotesingle" unicode="'" horiz-adv-x="189" 
d="M94 449q-24 0 -34 13t-13 42l-12 107q-1 13 -1 24q0 24 16 40t44 16t44 -16t16 -40q0 -11 -1 -24l-12 -107q-3 -29 -13 -42t-34 -13z" />
    <glyph glyph-name="parenleft" unicode="(" horiz-adv-x="325" 
d="M227 -174q-33 0 -56 30q-123 175 -123 438q0 265 123 437q22 30 56 30q28 0 47.5 -18.5t19.5 -46.5q0 -22 -13 -45q-93 -170 -93 -357q0 -198 93 -358q13 -22 13 -45q0 -28 -19.5 -46.5t-47.5 -18.5z" />
    <glyph glyph-name="parenright" unicode=")" horiz-adv-x="325" 
d="M98 -174q-28 0 -47.5 18.5t-19.5 46.5q0 23 13 45q93 160 93 358q0 187 -93 357q-13 23 -13 45q0 28 19.5 46.5t47.5 18.5q34 0 56 -30q124 -171 124 -437q0 -264 -124 -438q-21 -30 -56 -30z" />
    <glyph glyph-name="asterisk" unicode="*" horiz-adv-x="430" 
d="M327 544l-56 -12l39 -43l24 -27q23 -34 -7 -56q-31 -23 -56 9q-3 3 -19 30l-31 50l-30 -50q-15 -24 -20 -30q-25 -30 -55 -9q-31 23 -7 56l24 27l38 43l-56 12q-3 1 -16 4t-19 5q-16 5 -24 18t-2 31q12 37 50 24q13 -4 34 -13l53 -22l-6 58q-3 33 -3 36q0 17 10 28.5
t29 11.5t29 -11.5t10 -28.5q0 -3 -3 -36l-5 -58l53 22q20 9 33 13q39 13 51 -24q6 -18 -2 -31t-24 -18q-5 -2 -11 -3.5t-13.5 -3t-11.5 -2.5z" />
    <glyph glyph-name="plus" unicode="+" horiz-adv-x="576" 
d="M350 415h131q25 0 42.5 -18.5t17.5 -43.5q0 -26 -17.5 -44t-42.5 -18h-131v-131q0 -25 -18 -42.5t-44 -17.5t-44 17.5t-18 42.5v131h-130q-25 0 -43 18t-18 44q0 25 18 43.5t43 18.5h130v130q0 25 18 43t44 18t44 -18t18 -43v-130z" />
    <glyph glyph-name="comma" unicode="," horiz-adv-x="273" 
d="M50 -111q0 16 29 39t29 46q0 13 -9.5 23t-21 16t-21 21.5t-9.5 38.5q0 32 21 54t61 22q45 0 70.5 -30t25.5 -81q0 -73 -53.5 -123t-96.5 -50q-11 0 -18 7t-7 17z" />
    <glyph glyph-name="hyphen" unicode="-" horiz-adv-x="521" 
d="M376 218h-230q-25 0 -43 18.5t-18 44.5q0 24 18 43t43 19h230q24 0 42 -19t18 -43q0 -26 -17.5 -44.5t-42.5 -18.5z" />
    <glyph glyph-name="period" unicode="." horiz-adv-x="254" 
d="M206 70q0 -33 -23.5 -56.5t-56.5 -23.5t-56 23.5t-23 56.5t23 56t56 23t56.5 -23t23.5 -56z" />
    <glyph glyph-name="slash" unicode="/" horiz-adv-x="410" 
d="M3 94l285 558q22 41 65 41q26 0 46.5 -19.5t20.5 -44.5q0 -19 -11 -41l-285 -557q-22 -42 -64 -42q-27 0 -47.5 19.5t-20.5 45.5q0 18 11 40z" />
    <glyph glyph-name="zero" unicode="0" 
d="M558 340q0 -172 -66 -261t-192 -89t-192 89t-66 261q0 173 66 262t192 89t192 -89t66 -262zM415 340q0 114 -30 169q-28 50 -85 50q-55 0 -84 -50q-33 -58 -33 -169q0 -113 32 -169q28 -49 85 -49t85 49q30 51 30 169z" />
    <glyph glyph-name="one" unicode="1" 
d="M394 124h106q25 0 42.5 -18.5t17.5 -43.5q0 -26 -17.5 -44t-42.5 -18h-366q-25 0 -42.5 18t-17.5 44q0 25 17.5 43.5t42.5 18.5h116v415l-97 -35q-10 -3 -20 -3q-26 0 -44 16.5t-18 45.5q0 20 11.5 36.5t30.5 23.5l174 59q20 8 45 8q31 0 46.5 -19.5t15.5 -50.5v-496z
" />
    <glyph glyph-name="two" unicode="2" 
d="M219 124h255q25 0 42.5 -18t17.5 -44t-17.5 -44t-42.5 -18h-349q-26 0 -43 17.5t-17 47.5q0 73 17 120.5t58 87.5q37 36 112.5 76t100.5 62q37 32 37 77q0 36 -23 58q-24 24 -72 24q-43 0 -82 -22q-8 -5 -25.5 -16t-28.5 -15.5t-23 -4.5q-28 0 -45.5 17t-17.5 46
q0 49 82 85q65 30 152 30q106 0 169 -68q49 -52 49 -130q0 -93 -70 -157q-37 -35 -107 -72t-94 -57q-35 -31 -35 -82z" />
    <glyph glyph-name="three" unicode="3" 
d="M505 182q0 -85 -62 -138.5t-170 -53.5q-69 0 -120 15q-82 24 -82 76q0 25 18 43t44 18q11 0 20.5 -3.5t22.5 -11t20 -10.5q32 -14 67 -14q52 0 79.5 24.5t27.5 67.5q0 59 -53 83q-27 13 -81 13q-67 0 -67 57q0 22 15 38.5t42 16.5q51 0 79 14q45 21 45 75q0 32 -21 55
t-60 23q-35 0 -69 -19q-5 -3 -15 -8l-15 -7.5t-13 -5t-15 -2.5q-26 0 -43.5 18t-17.5 43q0 45 67 74q59 27 131 27q93 0 146.5 -51.5t53.5 -127.5q0 -111 -98 -155q124 -46 124 -174z" />
    <glyph glyph-name="four" unicode="4" 
d="M330 443l-137 -194h137v194zM468 249h55q23 0 40 -18t17 -41q0 -25 -17 -42t-40 -17h-55v-74q0 -28 -20 -47.5t-48 -19.5q-29 0 -49.5 19.5t-20.5 47.5v74h-254q-24 0 -40.5 17t-16.5 42q0 21 13 40l297 412q35 48 76 48q28 0 45.5 -19t17.5 -48v-374z" />
    <glyph glyph-name="five" unicode="5" 
d="M70 89q0 25 18 42.5t44 17.5q7 0 12.5 -1t11.5 -4t9.5 -5t11 -7l10.5 -7q38 -22 92 -22q50 0 81 31t31 88q0 58 -27.5 88t-76.5 30q-35 0 -79 -35q-18 -15 -23.5 -19.5t-19 -11t-25.5 -6.5q-25 0 -40 15t-15 38q0 9 2 45l17 255q2 25 19 42.5t41 17.5h285q26 0 43 -18.5
t17 -43.5q0 -26 -17 -44t-43 -18h-221l-10 -127q34 22 89 22q110 0 166.5 -61t56.5 -167q0 -107 -68 -170.5t-183 -63.5q-100 0 -157 31q-52 27 -52 68z" />
    <glyph glyph-name="six" unicode="6" 
d="M53 313q0 48 5.5 93t24 98.5t48.5 93t83.5 66t124.5 26.5q85 0 139 -24q57 -26 57 -70q0 -27 -19 -45.5t-46 -18.5q-10 0 -19.5 3t-23 9.5t-19.5 8.5q-34 15 -72 15q-73 0 -112 -78q-21 -44 -24 -97q51 45 127 45q94 0 156.5 -55t62.5 -165q0 -103 -67.5 -165.5
t-171.5 -62.5q-52 0 -95.5 16t-80.5 51.5t-57.5 100.5t-20.5 155zM194 266q5 -156 113 -156q45 0 72.5 30t27.5 74q0 55 -27.5 80t-68.5 25q-64 0 -117 -53z" />
    <glyph glyph-name="seven" unicode="7" 
d="M119 681h364q25 0 42.5 -18.5t17.5 -43.5q0 -18 -11 -43l-247 -545q-12 -26 -40.5 -36t-54.5 1q-29 13 -39 40t3 54l167 348q25 49 67 119h-207v-53q0 -25 -18.5 -42.5t-43.5 -17.5q-26 0 -44.5 17.5t-18.5 42.5v116q0 25 18.5 43t44.5 18z" />
    <glyph glyph-name="eight" unicode="8" 
d="M416 191q0 33 -30.5 57.5t-90.5 48.5q-107 -42 -107 -105q0 -37 26.5 -63.5t85.5 -26.5t87.5 25.5t28.5 63.5zM389 513q0 32 -22.5 51.5t-64.5 19.5q-90 0 -90 -67q0 -53 97 -97q80 41 80 93zM424 359q32 -20 50.5 -33.5t39.5 -35.5t30.5 -48.5t9.5 -60.5
q0 -86 -67.5 -138.5t-186.5 -52.5q-117 0 -185.5 51.5t-68.5 137.5q0 114 135 180q-25 16 -39.5 27.5t-32.5 31t-27 44t-9 55.5q0 75 61.5 124.5t164.5 49.5q104 0 166 -49.5t62 -124.5q0 -32 -8.5 -57.5t-26.5 -45t-31.5 -30t-36.5 -25.5z" />
    <glyph glyph-name="nine" unicode="9" 
d="M546 366q0 -47 -5.5 -92t-24 -99t-48.5 -93.5t-83.5 -66t-123.5 -26.5q-87 0 -140 24q-56 26 -56 71q0 27 18.5 45.5t45.5 18.5q10 0 19.5 -3t23 -9.5t19.5 -8.5q36 -15 72 -15q73 0 112 78q20 42 25 97q-51 -45 -128 -45q-93 0 -156 55t-63 164q0 103 67.5 165.5
t171.5 62.5q52 0 95.5 -16t80.5 -51.5t57.5 -100.5t20.5 -155zM406 413q-6 156 -114 156q-45 0 -72.5 -30t-27.5 -74q0 -55 28 -79.5t69 -24.5q65 0 117 52z" />
    <glyph glyph-name="colon" unicode=":" horiz-adv-x="261" 
d="M210 70q0 -33 -23 -56.5t-56 -23.5t-56 23.5t-23 56.5t23 56t56 23t56 -23t23 -56zM210 388q0 -33 -23 -56.5t-56 -23.5t-56 23.5t-23 56.5q0 32 23 55.5t56 23.5t56 -23.5t23 -55.5z" />
    <glyph glyph-name="semicolon" unicode=";" horiz-adv-x="261" 
d="M55 -111q0 16 29 39t29 46q0 13 -9.5 23t-21 16t-21 21.5t-9.5 38.5q0 32 21 54t61 22q45 0 70.5 -30t25.5 -81q0 -73 -54 -123t-96 -50q-11 0 -18 7t-7 17zM217 388q0 -33 -23 -56.5t-56 -23.5t-56 23.5t-23 56.5q0 32 23 55.5t56 23.5t56 -23.5t23 -55.5z" />
    <glyph glyph-name="less" unicode="&#x3c;" horiz-adv-x="630" 
d="M121 460l359 140q18 8 33 8q28 0 48 -20.5t20 -50.5q0 -48 -44 -63l-339 -121l339 -121q20 -7 32 -24.5t12 -39.5q0 -30 -20.5 -50.5t-48.5 -20.5q-10 0 -32 8l-359 140q-83 32 -83 108q0 78 83 107z" />
    <glyph glyph-name="equal" unicode="=" horiz-adv-x="577" 
d="M482 174h-386q-25 0 -43 18t-18 44q0 25 18 43.5t43 18.5h386q25 0 42.5 -18.5t17.5 -43.5q0 -26 -17.5 -44t-42.5 -18zM482 406h-386q-25 0 -43 18t-18 44q0 25 18 43.5t43 18.5h386q25 0 42.5 -18.5t17.5 -43.5q0 -26 -17.5 -44t-42.5 -18z" />
    <glyph glyph-name="greater" unicode="&#x3e;" horiz-adv-x="633" 
d="M150 600l359 -140q83 -33 83 -107q0 -76 -83 -108l-359 -140q-22 -8 -32 -8q-28 0 -48.5 20.5t-20.5 50.5q0 22 12 39.5t32 24.5l339 121l-339 121q-44 15 -44 63q0 30 20 50.5t48 20.5q15 0 33 -8z" />
    <glyph glyph-name="question" unicode="?" horiz-adv-x="522" 
d="M329 70q0 -33 -23 -56.5t-56 -23.5t-56 23.5t-23 56.5t23 56t56 23q34 0 56.5 -23t22.5 -56zM33 561q0 41 60 79q77 51 175 51q93 0 155.5 -55t62.5 -139q0 -53 -24 -90t-78 -73q-58 -41 -70 -82q-16 -53 -66 -53q-26 0 -43.5 19t-17.5 47q0 36 35 84q11 15 23.5 27
t39 33t32.5 26q34 28 34 62q0 33 -25.5 54t-67.5 21q-48 0 -93 -28q-10 -6 -24 -18.5t-25 -18.5t-26 -6q-24 0 -40.5 17.5t-16.5 42.5z" />
    <glyph glyph-name="at" unicode="@" horiz-adv-x="802" 
d="M497 243v89q-98 -5 -138 -23q-47 -19 -47 -58q0 -26 22 -45q22 -17 59 -17q73 0 104 54zM406 481q-36 0 -71 -20q-4 -2 -12.5 -8t-14 -8t-13.5 -2q-13 0 -22.5 9.5t-9.5 22.5q0 18 35 40q49 28 108 28q66 0 110 -38q48 -41 48 -123v-162q0 -27 21 -27q40 0 76 50.5
t36 146.5q0 113 -78 179t-197 66q-131 0 -224.5 -87.5t-93.5 -210.5q0 -134 91 -216.5t230 -82.5q117 0 209 37q6 2 14 5.5t13 5.5t10 2q12 0 20.5 -8t8.5 -20q0 -25 -46 -40q-104 -39 -229 -39q-165 0 -272 99t-107 259q0 145 110.5 248.5t264.5 103.5q143 0 238.5 -81.5
t95.5 -216.5q0 -105 -51 -181t-134 -76q-52 0 -63 44q-39 -46 -116 -46q-52 0 -93 25q-52 34 -52 95q0 80 104 113q57 16 146 21q0 45 -23 68q-25 25 -67 25z" />
    <glyph glyph-name="A" unicode="A" horiz-adv-x="617" 
d="M309 510l-89 -256h176zM466 38l-35 100h-247l-35 -100q-16 -48 -71 -48q-31 0 -50 19.5t-19 46.5q0 14 8 32l192 528q26 75 101 75q76 0 102 -75l189 -528q7 -19 7 -32q0 -30 -20.5 -48t-52.5 -18q-55 0 -69 48z" />
    <glyph glyph-name="B" unicode="B" horiz-adv-x="619" 
d="M577 185q0 -89 -67 -137t-160 -48h-210q-31 0 -51.5 20.5t-20.5 49.5v541q0 29 20.5 49.5t51.5 20.5h174q83 0 145 -45t62 -128q0 -107 -85 -146v-2q141 -33 141 -175zM377 489q0 36 -25 56t-64 20h-76v-161h75q36 0 63 19t27 66zM430 203q0 40 -28.5 63t-88.5 23h-101
v-172h106q112 0 112 86z" />
    <glyph glyph-name="C" unicode="C" horiz-adv-x="654" 
d="M619 596q0 -29 -19.5 -48t-47.5 -19q-16 0 -57.5 16t-91.5 16q-88 0 -150 -63.5t-62 -156.5q0 -96 61 -158t151 -62q55 0 99.5 17t59.5 17q28 0 47.5 -19t19.5 -48q0 -46 -60 -70q-74 -28 -165 -28q-159 0 -261.5 96t-102.5 255q0 147 108.5 248t257.5 101q86 0 155 -25
q58 -22 58 -69z" />
    <glyph glyph-name="D" unicode="D" horiz-adv-x="742" 
d="M702 341q0 -160 -98 -251q-97 -90 -279 -90h-185q-31 0 -51.5 20.5t-20.5 49.5v541q0 29 20.5 49.5t51.5 20.5h199q182 0 280 -104q83 -88 83 -236zM212 560v-439h102q121 0 184 63q56 56 56 157q0 100 -52 155q-60 64 -184 64h-106z" />
    <glyph glyph-name="E" unicode="E" horiz-adv-x="627" 
d="M212 279v-151h323q26 0 44 -19t18 -45t-18 -45t-44 -19h-395q-31 0 -51.5 20.5t-20.5 49.5v541q0 29 20.5 49.5t51.5 20.5h395q26 0 44 -19t18 -45t-18 -45t-44 -19h-323v-147h271q25 0 43 -19t18 -45t-18 -44.5t-43 -18.5h-271z" />
    <glyph glyph-name="F" unicode="F" horiz-adv-x="578" 
d="M140 681h365q25 0 43.5 -19t18.5 -45t-18.5 -45t-43.5 -19h-293v-147h248q25 0 43.5 -19t18.5 -45t-18 -44.5t-44 -18.5h-248v-219q0 -29 -21.5 -49.5t-50.5 -20.5q-30 0 -51 20.5t-21 49.5v551q0 29 21 49.5t51 20.5z" />
    <glyph glyph-name="G" unicode="G" horiz-adv-x="750" 
d="M444 368h175q31 0 48 -19.5t17 -50.5v-238q0 -30 -19.5 -50t-51.5 -20q-44 0 -62 34q-72 -34 -158 -34q-157 0 -255 92.5t-98 258.5q0 147 106.5 248t258.5 101q89 0 156 -24q58 -19 58 -70q0 -29 -19.5 -48t-47.5 -19q-18 0 -61 15.5t-89 15.5q-89 0 -150.5 -63.5
t-61.5 -155.5q0 -98 59 -160.5t153 -62.5q76 0 140 31v91h-98q-25 0 -43.5 19t-18.5 45t18.5 45t43.5 19z" />
    <glyph glyph-name="H" unicode="H" horiz-adv-x="733" 
d="M68 60v560q0 29 21 49.5t51 20.5t51 -20.5t21 -49.5v-214h309v214q0 29 21.5 49.5t50.5 20.5q30 0 51 -20.5t21 -49.5v-560q0 -29 -21.5 -49.5t-50.5 -20.5t-50.5 20.5t-21.5 49.5v219h-309v-219q0 -29 -21.5 -49.5t-50.5 -20.5q-30 0 -51 20.5t-21 49.5z" />
    <glyph glyph-name="I" unicode="I" horiz-adv-x="280" 
d="M68 60v560q0 29 21 49.5t51 20.5t51 -20.5t21 -49.5v-560q0 -29 -21.5 -49.5t-50.5 -20.5q-30 0 -51 20.5t-21 49.5z" />
    <glyph glyph-name="J" unicode="J" horiz-adv-x="533" 
d="M467 620v-373q0 -137 -82 -203q-67 -54 -178 -54q-100 0 -170 57q-29 26 -29 59q0 28 19 47t47 19q21 0 58 -27t74 -27q52 0 81 26q36 33 36 115v361q0 29 21.5 49.5t50.5 20.5q30 0 51 -20.5t21 -49.5z" />
    <glyph glyph-name="K" unicode="K" horiz-adv-x="618" 
d="M556 576l-187 -190l215 -285q12 -16 12 -38q0 -28 -21.5 -50.5t-51.5 -22.5q-35 0 -59 32l-192 263l-60 -61v-164q0 -29 -21.5 -49.5t-50.5 -20.5q-30 0 -51 20.5t-21 49.5v560q0 29 21 49.5t51 20.5t51 -20.5t21 -49.5v-211l242 259q20 22 50 22q27 0 48 -20.5t21 -49.5
q0 -27 -17 -44z" />
    <glyph glyph-name="L" unicode="L" horiz-adv-x="542" 
d="M68 70v550q0 29 20.5 49.5t51.5 20.5q30 0 51 -20.5t21 -49.5v-492h252q26 0 44 -19t18 -45t-18 -45t-44 -19h-324q-31 0 -51.5 20.5t-20.5 49.5z" />
    <glyph glyph-name="M" unicode="M" horiz-adv-x="840" 
d="M68 602q0 38 25 63t65 25q52 0 79 -45l182 -317l184 317q25 45 78 45q41 0 66 -25t25 -63v-545q0 -28 -19.5 -47.5t-50.5 -19.5t-50 19.5t-19 47.5v374l-143 -241q-26 -44 -70 -44t-70 44l-143 241v-374q0 -28 -19.5 -47.5t-50.5 -19.5t-50 19.5t-19 47.5v545z" />
    <glyph glyph-name="N" unicode="N" horiz-adv-x="743" 
d="M675 624v-556q0 -33 -24 -55.5t-59 -22.5q-44 0 -70 36l-317 415v-386q0 -27 -20 -46t-49 -19q-28 0 -48 19t-20 46v557q0 32 24 55t58 23q43 0 70 -37l317 -414v385q0 27 20.5 46.5t48.5 19.5t48.5 -19.5t20.5 -46.5z" />
    <glyph glyph-name="O" unicode="O" horiz-adv-x="809" 
d="M769 339q0 -155 -104 -252t-260 -97t-260.5 97t-104.5 252q0 156 104.5 253.5t260.5 97.5q155 0 259.5 -98t104.5 -253zM616 339q0 92 -60 154t-151 62t-151.5 -62t-60.5 -154t60.5 -153.5t151.5 -61.5t151 61.5t60 153.5z" />
    <glyph glyph-name="P" unicode="P" horiz-adv-x="647" 
d="M140 681h226q101 0 163 -51q83 -68 83 -187q0 -123 -90 -192q-60 -46 -156 -46h-154v-145q0 -29 -21.5 -49.5t-50.5 -20.5q-30 0 -51 20.5t-21 49.5v551q0 29 21 49.5t51 20.5zM466 443q0 64 -43 92q-28 20 -76 20h-135v-224h132q50 0 77 18q45 29 45 94z" />
    <glyph glyph-name="Q" unicode="Q" horiz-adv-x="809" 
d="M769 339q0 -128 -72.5 -218t-190.5 -119q1 -6 25 -14q35 -12 66.5 -20t71 -17t60.5 -14q22 -6 33 -10.5t21.5 -19t10.5 -37.5q0 -30 -21.5 -47.5t-53.5 -17.5q-42 0 -124 27.5t-214 78.5l-45 18q-36 14 -36 45q0 16 8 27q-120 28 -194 118t-74 220q0 156 104.5 253.5
t260.5 97.5q155 0 259.5 -98t104.5 -253zM616 339q0 92 -60 154t-151 62t-151.5 -62t-60.5 -154t60.5 -153.5t151.5 -61.5t151 61.5t60 153.5z" />
    <glyph glyph-name="R" unicode="R" horiz-adv-x="675" 
d="M212 237v-177q0 -29 -21.5 -49.5t-50.5 -20.5q-31 0 -51.5 20.5t-20.5 49.5v551q0 29 20.5 49.5t51.5 20.5h235q110 0 172 -46q79 -58 79 -175q0 -101 -76 -167q-22 -18 -48 -31l112 -161q12 -17 12 -38q0 -31 -21 -52t-51 -21q-38 0 -61 34l-141 213h-140zM364 559h-152
v-201h150q50 0 77 17q41 26 41 83q0 56 -38 82q-30 19 -78 19z" />
    <glyph glyph-name="S" unicode="S" horiz-adv-x="579" 
d="M520 589q0 -28 -19.5 -47.5t-48.5 -19.5q-22 0 -72 22t-92 22q-99 0 -99 -63q0 -26 22 -43t65 -31q14 -4 46 -13t51.5 -15.5t46 -18t46.5 -25.5q78 -55 78 -153q0 -99 -74 -156.5t-188 -57.5q-100 0 -181 34q-67 28 -67 77q0 29 20 49t49 20q17 0 43 -14t60.5 -28
t73.5 -14q58 0 82.5 23t24.5 55q0 51 -85 80q-16 6 -54 17t-69 23t-57 29q-85 54 -85 159q0 85 68 137.5t191 52.5q97 0 160 -27q64 -27 64 -74z" />
    <glyph glyph-name="T" unicode="T" horiz-adv-x="599" 
d="M537 553h-166v-493q0 -29 -21.5 -49.5t-50.5 -20.5t-50.5 20.5t-21.5 49.5v493h-165q-25 0 -43.5 19t-18.5 45t18.5 45t43.5 19h475q25 0 43.5 -19t18.5 -45t-18.5 -45t-43.5 -19z" />
    <glyph glyph-name="U" unicode="U" horiz-adv-x="724" 
d="M361 122q81 0 119 48q34 42 34 116v334q0 29 20.5 49.5t51.5 20.5q29 0 50.5 -20.5t21.5 -49.5v-351q0 -115 -62 -188q-80 -91 -234 -91t-234 91q-62 73 -62 188v351q0 29 21.5 49.5t50.5 20.5q31 0 51.5 -20.5t20.5 -49.5v-334q0 -74 34 -116q38 -48 117 -48z" />
    <glyph glyph-name="V" unicode="V" horiz-adv-x="646" 
d="M321 175l170 467q8 22 28 35t44 13q31 0 52.5 -19.5t21.5 -50.5q0 -12 -5 -25l-209 -531q-27 -74 -103 -74q-75 0 -104 74l-202 530q-5 13 -5 25q0 30 21.5 50.5t53.5 20.5q24 0 42.5 -13t26.5 -36z" />
    <glyph glyph-name="W" unicode="W" horiz-adv-x="1017" 
d="M732 175l130 467q6 22 26.5 35t45.5 13q31 0 52.5 -19t21.5 -50q0 -11 -6 -29l-168 -528q-10 -33 -36 -53.5t-67 -20.5q-78 0 -103 74l-121 352l-115 -352q-25 -74 -104 -74q-80 0 -103 74l-171 530q-5 13 -5 25q0 30 21.5 50.5t53.5 20.5q55 0 70 -52l135 -463l142 461
q16 54 78 54q58 0 76 -55z" />
    <glyph glyph-name="X" unicode="X" horiz-adv-x="645" 
d="M172 659l152 -204l150 204q22 31 63 31q32 0 57.5 -21.5t25.5 -54.5q0 -22 -16 -43l-187 -229l193 -234q16 -17 16 -42q0 -31 -25 -53.5t-58 -22.5q-41 0 -63 31l-156 208l-159 -208q-24 -31 -64 -31q-32 0 -57 21.5t-25 53.5q0 26 16 43l196 231l-189 232q-17 22 -17 43
q0 31 25.5 53.5t58.5 22.5q41 0 63 -31z" />
    <glyph glyph-name="Y" unicode="Y" horiz-adv-x="584" 
d="M562 575l-199 -292v-223q0 -29 -21.5 -49.5t-50.5 -20.5t-50.5 20.5t-21.5 49.5v224l-197 292q-14 20 -14 45q0 30 20.5 49.5t50.5 19.5q40 0 60 -32l151 -230l154 231q22 31 61 31q30 0 50.5 -20t20.5 -49q0 -26 -14 -46z" />
    <glyph glyph-name="Z" unicode="Z" horiz-adv-x="581" 
d="M76 681h400q26 0 44 -19t18 -45q0 -20 -10 -35l-304 -454h277q26 0 44.5 -19.5t18.5 -44.5q0 -26 -18.5 -45t-44.5 -19h-408q-26 0 -44.5 19t-18.5 45q0 19 14 39l300 450h-268q-25 0 -43 19t-18 45t18 45t43 19z" />
    <glyph glyph-name="bracketleft" unicode="[" horiz-adv-x="395" 
d="M136 741h175q25 0 42.5 -18t17.5 -43t-17.5 -42.5t-42.5 -17.5h-105v-661h105q25 0 42.5 -18t17.5 -43t-17.5 -42.5t-42.5 -17.5h-175q-29 0 -50 20t-21 48v767q0 28 21 48t50 20z" />
    <glyph glyph-name="backslash" unicode="\" horiz-adv-x="330" 
d="M40 607q-8 26 6 50t40 31t50 -6t31 -38l160 -570q7 -26 -6.5 -50t-39.5 -31q-26 -8 -50.5 5t-31.5 39z" />
    <glyph glyph-name="bracketright" unicode="]" horiz-adv-x="395" 
d="M84 741h176q29 0 49.5 -20t20.5 -48v-767q0 -28 -20.5 -48t-49.5 -20h-176q-25 0 -42 17.5t-17 42.5t17 43t42 18h105v661h-105q-25 0 -42 17.5t-17 42.5t17 43t42 18z" />
    <glyph glyph-name="asciicircum" unicode="^" horiz-adv-x="521" 
d="M260 730q38 0 59 -34l147 -224q10 -14 10 -33q0 -23 -17 -39.5t-40 -16.5q-32 0 -47 25l-112 173l-111 -173q-15 -25 -47 -25q-23 0 -40 16.5t-17 39.5q0 19 10 33l147 224q21 34 58 34z" />
    <glyph glyph-name="underscore" unicode="_" horiz-adv-x="459" 
d="M0 -56h459q19 0 33.5 -15t14.5 -35t-14.5 -35t-33.5 -15h-459q-20 0 -34.5 15t-14.5 35t14.5 35t34.5 15z" />
    <glyph glyph-name="grave" unicode="`" horiz-adv-x="466" 
d="M313 605q0 -18 -13.5 -30t-31.5 -12q-26 0 -42 28l-61 100q-13 19 -13 34q0 20 15.5 34.5t36.5 14.5q31 0 47 -33l53 -105q9 -20 9 -31z" />
    <glyph glyph-name="a" unicode="a" horiz-adv-x="487" 
d="M34 131q0 42 21.5 71.5t62 45t82 23.5t98.5 12v8q0 36 -14 54q-16 20 -54 20q-28 0 -68 -15.5t-58 -15.5q-20 0 -34 14t-14 34q0 40 58 63q57 22 132 22q97 0 144 -52q40 -43 40 -121v-240q0 -26 -20 -45t-46 -19q-37 0 -55 28q-49 -28 -123 -28q-65 0 -108.5 38.5
t-43.5 102.5zM228 88q39 0 70 19v87q-138 -5 -138 -59q0 -23 19 -35t49 -12z" />
    <glyph glyph-name="b" unicode="b" horiz-adv-x="551" 
d="M197 625v-173q47 15 97 15q99 0 160 -66q60 -65 60 -173q0 -94 -56 -158q-72 -80 -223 -80q-70 0 -111 9q-59 13 -59 74v552q0 27 19 45.5t47 18.5q27 0 46.5 -18.5t19.5 -45.5zM197 342v-241q18 -2 50 -2q71 0 106 45q26 34 26 84q0 58 -32 93q-33 34 -81 34
q-35 0 -69 -13z" />
    <glyph glyph-name="c" unicode="c" horiz-adv-x="480" 
d="M455 382q0 -22 -15.5 -38t-37.5 -16q-16 0 -47.5 13t-58.5 13q-57 0 -92 -38q-32 -35 -32 -88q0 -55 33 -91t92 -36q32 0 63.5 12t43.5 12q22 0 37.5 -16t15.5 -39q0 -44 -69 -66q-41 -14 -95 -14q-127 0 -195 73q-60 63 -60 166q0 87 49 147q74 91 209 91q60 0 107 -22
q52 -24 52 -63z" />
    <glyph glyph-name="d" unicode="d" horiz-adv-x="547" 
d="M320 110h30v237q-28 7 -61 7q-59 0 -92 -44q-24 -33 -24 -82q0 -56 36 -87q39 -31 111 -31zM407 0h-101q-125 0 -197 60q-71 60 -71 166q0 96 50 160q67 82 193 82q36 0 69 -9v166q0 27 19 46t47 19t47 -19t19 -46v-554q0 -34 -21.5 -52.5t-53.5 -18.5z" />
    <glyph glyph-name="e" unicode="e" horiz-adv-x="525" 
d="M424 126q21 0 35 -15.5t14 -37.5q0 -38 -57 -61q-53 -22 -130 -22q-116 0 -181 67q-67 69 -67 177q0 102 65 169q64 64 169 64q103 0 163 -60q57 -58 57 -144q0 -35 -17 -54.5t-48 -19.5h-250q18 -94 118 -94q40 0 78.5 15.5t50.5 15.5zM176 276h188q-3 37 -27.5 62
t-63.5 25q-82 0 -97 -87z" />
    <glyph glyph-name="f" unicode="f" horiz-adv-x="382" 
d="M219 458h87q20 0 35 -16t15 -36q0 -22 -15 -37t-35 -15h-87v-300q0 -26 -19.5 -45t-46.5 -19t-46.5 19t-19.5 45v300h-33q-21 0 -36 15t-15 37q0 21 15 36.5t36 15.5h33v56q0 76 35.5 125.5t119.5 49.5q58 0 102 -17q58 -23 58 -66q0 -22 -14.5 -36t-35.5 -14
q-12 0 -37 9t-44 9q-28 0 -40 -16.5t-12 -53.5v-46z" />
    <glyph glyph-name="g" unicode="g" horiz-adv-x="564" 
d="M76 -142q0 24 16 41.5t40 17.5q18 0 59 -22t80 -22q96 0 96 89v57q-45 -27 -110 -27q-92 0 -152 58q-67 65 -67 180q0 107 62 175q59 62 156 62q58 0 118 -35q19 35 59 35q28 0 47 -19t19 -45v-418q0 -117 -67 -174q-58 -49 -159 -49q-69 0 -125 21q-72 26 -72 75z
M272 101q52 0 95 29v189q-48 35 -92 35q-46 0 -72 -29q-31 -37 -31 -97q0 -65 30 -98q27 -29 70 -29z" />
    <glyph glyph-name="h" unicode="h" horiz-adv-x="577" 
d="M197 215v-161q0 -26 -20 -45t-46 -19q-27 0 -46.5 19t-19.5 45v571q0 27 19.5 45.5t46.5 18.5q28 0 47 -18.5t19 -45.5v-213q54 55 136 55q85 0 134 -45q53 -48 53 -144v-224q0 -26 -20 -45t-47 -19t-46.5 19t-19.5 45v191q0 61 -23 86q-20 23 -60 23q-54 0 -80.5 -41.5
t-26.5 -97.5z" />
    <glyph glyph-name="i" unicode="i" horiz-adv-x="262" 
d="M65 403q0 26 19 45t47 19t47 -19t19 -45v-349q0 -26 -20 -45t-46 -19q-28 0 -47 19t-19 45v349zM131 584q-31 0 -53.5 22t-22.5 54t22.5 54t53.5 22t53.5 -22t22.5 -54t-22.5 -54t-53.5 -22z" />
    <glyph glyph-name="j" unicode="j" horiz-adv-x="262" 
d="M65 35v369q0 26 19 45t47 19q27 0 46.5 -19t19.5 -45v-393q0 -128 -49 -196q-40 -53 -99 -53q-31 0 -50.5 13.5t-19.5 40.5q0 18 8.5 28.5t25.5 24.5t29 32q23 33 23 134zM131 584q-31 0 -53.5 22t-22.5 54t22.5 54t53.5 22t53.5 -22t22.5 -54t-22.5 -54t-53.5 -22z" />
    <glyph glyph-name="k" unicode="k" horiz-adv-x="501" 
d="M457 364l-113 -101l130 -170q14 -19 14 -39q0 -26 -20 -45t-46 -19q-32 0 -52 28l-118 163l-55 -48v-79q0 -26 -20 -45t-46 -19q-28 0 -47 19t-19 45v570q0 27 19 46t47 19t47 -19t19 -46v-340l175 167q17 16 41 16q27 0 44 -18.5t17 -42.5q0 -27 -17 -42z" />
    <glyph glyph-name="l" unicode="l" horiz-adv-x="262" 
d="M65 54v571q0 27 19.5 45.5t46.5 18.5q28 0 47 -18.5t19 -45.5v-571q0 -26 -19.5 -45t-46.5 -19t-46.5 19t-19.5 45z" />
    <glyph glyph-name="m" unicode="m" horiz-adv-x="836" 
d="M65 401q0 27 19 46t47 19q21 0 37.5 -12t24.5 -30q47 42 116 42q94 0 143 -66q54 66 148 66q81 0 129 -45q50 -45 50 -140v-228q0 -26 -20 -45t-46 -19q-28 0 -47 19t-19 45v195q0 55 -20 82q-20 25 -58 25q-42 0 -63 -36q-18 -31 -18 -97v-169q0 -26 -20 -45t-46 -19
q-28 0 -47 19t-19 45v195q0 55 -20 82q-20 25 -58 25q-41 0 -63 -36q-16 -29 -18 -94v-171q0 -27 -19.5 -46t-46.5 -19q-28 0 -47 19t-19 46v347z" />
    <glyph glyph-name="n" unicode="n" horiz-adv-x="577" 
d="M65 403q0 26 19 45t47 19q25 0 43 -15.5t22 -39.5q55 55 137 55q85 0 134 -45q53 -48 53 -144v-224q0 -26 -20 -45t-47 -19t-46.5 19t-19.5 45v191q0 61 -23 86q-20 23 -60 23q-54 0 -80.5 -41.5t-26.5 -97.5v-161q0 -26 -20 -45t-46 -19q-28 0 -47 19t-19 45v349z" />
    <glyph glyph-name="o" unicode="o" horiz-adv-x="570" 
d="M168 228q0 -56 32 -91.5t85 -35.5t85 35.5t32 91.5t-32 91.5t-85 35.5t-85 -35.5t-32 -91.5zM38 228q0 109 70.5 174t176.5 65q107 0 177.5 -65t70.5 -174t-70.5 -173.5t-177.5 -64.5t-177 64.5t-70 173.5z" />
    <glyph glyph-name="p" unicode="p" horiz-adv-x="548" 
d="M197 356v-249q24 -9 56 -9q58 0 91 29q36 31 36 101q0 59 -32 94q-33 38 -93 38q-24 0 -58 -4zM144 459q45 8 97 8q135 0 207 -72q63 -63 63 -167q0 -102 -54 -163q-68 -75 -190 -75q-41 0 -70 8v-175q0 -26 -20 -45t-46 -19q-27 0 -46.5 19t-19.5 45v547q0 42 19 62
t60 27z" />
    <glyph glyph-name="q" unicode="q" horiz-adv-x="548" 
d="M351 211v141q-27 5 -55 5q-68 0 -103 -46q-25 -33 -25 -84q0 -60 27 -95q26 -34 72 -34q84 0 84 113zM483 370v-547q0 -27 -19 -45.5t-47 -18.5q-27 0 -46.5 18.5t-19.5 45.5v201q-39 -34 -107 -34q-97 0 -151.5 65t-54.5 170q0 99 57 163q72 79 212 79q70 0 107 -9
q35 -8 52 -28t17 -60z" />
    <glyph glyph-name="r" unicode="r" horiz-adv-x="426" 
d="M308 467q47 0 81 -19q39 -22 39 -60q0 -26 -16 -43.5t-41 -17.5q-15 0 -40 12t-47 12q-87 0 -87 -126v-171q0 -26 -20 -45t-46 -19q-28 0 -47 19t-19 45v349q0 26 19 45t47 19q24 0 41.5 -15t22.5 -37q43 52 113 52z" />
    <glyph glyph-name="s" unicode="s" horiz-adv-x="416" 
d="M379 395q0 -24 -14.5 -39t-35.5 -15q-20 0 -51 11t-54 11q-47 0 -47 -32q0 -23 43 -40q7 -3 41 -15.5t53 -21.5q75 -38 75 -117q0 -64 -51 -105.5t-136 -41.5q-175 0 -175 82q0 22 14.5 37t36.5 15q18 0 53 -15.5t66 -15.5q53 0 53 36q0 15 -10 23.5t-32 18.5
q-12 5 -45.5 17.5t-51.5 21.5q-74 38 -74 121q0 64 47 100.5t133 36.5q72 0 117 -18t45 -55z" />
    <glyph glyph-name="t" unicode="t" horiz-adv-x="394" 
d="M54 458h32v67q0 27 19 46t47 19q27 0 46.5 -19t19.5 -46v-67h90q21 0 36 -15t15 -37q0 -21 -15 -36.5t-36 -15.5h-90v-189q0 -61 47 -61q19 0 43 14t40 14q22 0 36 -15.5t14 -37.5q0 -42 -62 -70q-46 -19 -97 -19q-77 0 -115 45t-38 116v203h-32q-21 0 -36 15.5t-15 36.5
q0 22 15 37t36 15z" />
    <glyph glyph-name="u" unicode="u" horiz-adv-x="567" 
d="M57 198v205q0 26 19 45t47 19t47 -19t19 -45v-197q0 -37 13 -62q24 -42 82 -42q59 0 81 42q13 25 13 62v197q0 26 19 45t47 19t47 -19t19 -45v-205q0 -87 -40 -136q-58 -72 -186 -72q-130 0 -187 72q-40 52 -40 136z" />
    <glyph glyph-name="v" unicode="v" horiz-adv-x="472" 
d="M143 413l93 -281h4l93 286q15 49 64 49q31 0 48.5 -17t17.5 -44q0 -17 -14 -55l-111 -278q-33 -83 -106 -83q-41 0 -64.5 20t-39.5 63l-106 279q-13 32 -13 51q0 28 19.5 46t53.5 18q45 0 61 -54z" />
    <glyph glyph-name="w" unicode="w" horiz-adv-x="684" 
d="M416 403l68 -252l67 255q6 30 19.5 45.5t43.5 15.5q28 0 44.5 -15t16.5 -44q0 -18 -6 -40l-93 -300q-5 -18 -9 -27.5t-14 -23.5t-27 -20.5t-42 -6.5q-46 0 -65 20t-27 56l-51 180l-52 -180q-7 -32 -29 -54t-59 -22q-42 0 -62.5 19t-32.5 59l-92 300q-5 19 -5 34
q0 32 20.5 48.5t48.5 16.5q49 0 63 -68l66 -248l67 252q15 64 72 64q55 0 70 -64z" />
    <glyph glyph-name="x" unicode="x" horiz-adv-x="477" 
d="M467 57q0 -28 -20.5 -47.5t-50.5 -19.5q-18 0 -33 7.5t-23 15t-18 21.5l-84 105l-89 -113q-29 -36 -67 -36q-31 0 -51 19t-20 47q0 5 1 10t2 8.5t3.5 8.5t4 7t5.5 7t5 6.5t6.5 7l6.5 6.5l105 117l-105 119q-24 28 -24 48q0 28 20 47.5t50 19.5q38 0 67 -37l80 -103
l81 102q30 38 66 38q28 0 48 -18.5t20 -44.5q0 -22 -21 -45l-108 -117l119 -136q24 -27 24 -50z" />
    <glyph glyph-name="y" unicode="y" horiz-adv-x="503" 
d="M422 468q30 0 51 -21t21 -51q0 -13 -13 -49l-140 -372q-40 -106 -108.5 -157.5t-144.5 -51.5q-27 0 -45.5 18.5t-18.5 44.5t18.5 44.5t45.5 18.5q73 0 110 76l-173 378q-16 35 -16 48q0 31 21.5 52.5t51.5 21.5q50 0 70 -48l111 -280l87 267q19 61 72 61z" />
    <glyph glyph-name="z" unicode="z" horiz-adv-x="430" 
d="M198 116h168q23 0 39 -17.5t16 -40.5q0 -24 -16 -41t-39 -17h-296q-25 0 -40.5 14t-15.5 38q0 26 22 53l192 238h-167q-23 0 -39.5 17t-16.5 41q0 23 16.5 40.5t39.5 17.5h295q23 0 39.5 -15t16.5 -37q0 -24 -22 -53z" />
    <glyph glyph-name="braceleft" unicode="{" horiz-adv-x="408" 
d="M22 319q0 61 38 61h5q77 0 77 129q0 11 -2 50t-2 55q0 174 196 174q23 0 36.5 -14.5t13.5 -35.5t-13.5 -34.5t-36.5 -16.5q-36 -4 -54 -25t-18 -71q0 -31 1 -61.5t1 -35.5q0 -74 -25.5 -111t-85.5 -64q60 -27 85.5 -64.5t25.5 -110.5q0 -5 -1 -36t-1 -62q0 -49 18 -70
t54 -26q50 -7 50 -50q0 -21 -13.5 -35.5t-36.5 -14.5q-196 0 -196 174q0 16 2 54.5t2 50.5q0 129 -77 129h-5q-38 0 -38 61z" />
    <glyph glyph-name="bar" unicode="|" horiz-adv-x="270" 
d="M70 -163v789q0 26 19.5 45t47.5 19q27 0 46.5 -19t19.5 -45v-789q0 -27 -19.5 -46t-46.5 -19q-28 0 -48 19t-19 46z" />
    <glyph glyph-name="braceright" unicode="}" horiz-adv-x="408" 
d="M386 319q0 -61 -38 -61h-5q-76 0 -76 -129q0 -12 1.5 -50.5t1.5 -54.5q0 -174 -196 -174q-23 0 -36.5 14.5t-13.5 35.5q0 43 50 50q36 5 54 26t18 70q0 31 -1 62t-1 36q0 73 25.5 110.5t85.5 64.5q-60 27 -85.5 64t-25.5 111q0 5 1 35.5t1 61.5q0 50 -18 71t-54 25
q-23 3 -36.5 16.5t-13.5 34.5t13.5 35.5t36.5 14.5q196 0 196 -174q0 -16 -1.5 -55t-1.5 -50q0 -129 76 -129h5q38 0 38 -61z" />
    <glyph glyph-name="asciitilde" unicode="~" horiz-adv-x="639" 
d="M586 324q0 -53 -45.5 -95t-106.5 -42q-45 0 -83 21.5t-68.5 42.5t-57.5 21q-20 0 -34.5 -11.5t-21.5 -25.5t-21 -25.5t-35 -11.5q-28 0 -43.5 18.5t-15.5 47.5q0 56 46.5 97.5t105.5 41.5q46 0 84.5 -21.5t69 -43t55.5 -21.5q20 0 34 11.5t21 25t21.5 25t35.5 11.5
q28 0 43.5 -18.5t15.5 -47.5z" />
    <glyph glyph-name="nonbreakingspace" unicode="&#xa0;" 
 />
    <glyph glyph-name="exclamdown" unicode="&#xa1;" horiz-adv-x="324" 
d="M84 388q0 33 23 56t56 23t56.5 -23t23.5 -56q0 -34 -23.5 -57t-56.5 -23t-56 23t-23 57zM74 -109q0 17 13 105l32 194q8 46 44 46t44 -46l33 -194q13 -70 13 -105q0 -124 -90 -124q-89 0 -89 124z" />
    <glyph glyph-name="cent" unicode="&#xa2;" 
d="M307 465v63q0 13 10.5 23t24.5 10q15 0 25 -9.5t10 -23.5v-62q41 -5 79 -22q52 -25 52 -61q0 -22 -16 -38t-38 -16q-9 0 -44 13q-33 14 -61 14q-61 0 -95 -42q-28 -33 -28 -84q0 -58 33 -93q35 -37 90 -37q32 0 63 11q35 14 46 14q21 0 36 -16t15 -38q0 -23 -16.5 -37.5
t-51.5 -26.5q-30 -12 -64 -15v-61q0 -13 -10.5 -23t-24.5 -10t-24.5 10t-10.5 23v61q-90 11 -143 61q-73 67 -73 177q0 89 54 153q62 70 162 82z" />
    <glyph glyph-name="sterling" unicode="&#xa3;" 
d="M273 124h217q25 0 43 -18t18 -44t-18 -44t-43 -18h-381q-25 0 -43 18t-18 44t18 44t43 18h27q41 38 41 107q0 9 -2 27h-50q-23 0 -39 17t-16 40t16 40t39 17h17q-18 59 -18 109q0 88 59 148.5t172 60.5q69 0 121 -16q55 -18 55 -60q0 -25 -16 -42.5t-39 -17.5
q-14 0 -51 11q-32 8 -57 8q-57 0 -82.5 -28t-25.5 -69q0 -49 19 -104h133q23 0 39.5 -17t16.5 -40t-16.5 -40t-39.5 -17h-103q2 -18 2 -27q0 -62 -38 -107z" />
    <glyph glyph-name="currency" unicode="&#xa4;" horiz-adv-x="702" 
d="M67 186l66 66q-40 60 -40 136q0 75 40 137l-66 68q-16 16 -15.5 39t17.5 41q16 17 39.5 17.5t39.5 -16.5l67 -68q61 41 137 41q74 0 135 -40l67 66q16 16 39 15.5t41 -17.5q17 -16 17 -39.5t-16 -39.5l-65 -65q41 -63 41 -139t-41 -137l65 -64q16 -16 16 -39t-17 -40
q-17 -18 -40 -18.5t-40 16.5l-65 63q-62 -40 -137 -40q-76 0 -139 41l-65 -65q-16 -16 -39 -16t-40 17q-18 17 -18.5 40t16.5 40zM181 388q0 -70 50.5 -120.5t120.5 -50.5t120 50.5t50 120.5t-50 120t-120 50t-120.5 -50t-50.5 -120z" />
    <glyph glyph-name="yen" unicode="&#xa5;" 
d="M432 374h74q19 0 32.5 -14t13.5 -34t-13.5 -33.5t-32.5 -13.5h-135v-68h135q19 0 32.5 -14.5t13.5 -33.5q0 -20 -13.5 -34t-32.5 -14h-135v-56q0 -29 -21.5 -50t-50.5 -21q-30 0 -51 21t-21 50v56h-136q-19 0 -32.5 14t-13.5 34q0 19 13.5 33.5t32.5 14.5h136v68h-136
q-19 0 -32.5 14t-13.5 33q0 20 13.5 34t32.5 14h76l-137 200q-14 20 -14 46q0 30 20.5 49t50.5 19q41 0 60 -32l151 -230l154 231q21 31 61 31q30 0 50.5 -19.5t20.5 -49.5q0 -24 -14 -46z" />
    <glyph glyph-name="brokenbar" unicode="&#xa6;" horiz-adv-x="268" 
d="M68 119q0 26 19 45t47 19q27 0 46.5 -19t19.5 -45v-282q0 -27 -19.5 -46t-46.5 -19q-28 0 -47 19t-19 46v282zM68 627q0 26 19 45t47 19q27 0 46.5 -19t19.5 -45v-282q0 -27 -19.5 -46t-46.5 -19q-28 0 -47 19t-19 46v282z" />
    <glyph glyph-name="section" unicode="&#xa7;" horiz-adv-x="526" 
d="M118 414q-32 42 -32 95q0 83 54.5 132.5t139.5 49.5q79 0 131 -30q46 -26 46 -61q0 -23 -17 -39.5t-40 -16.5q-9 0 -17.5 3t-13 5.5t-13 9t-12.5 9.5q-26 17 -59 17q-22 0 -41 -14t-19 -46q0 -31 26.5 -59t63.5 -53t74.5 -52.5t64 -68.5t26.5 -90q0 -92 -72 -158
q33 -43 33 -95q0 -83 -54.5 -132.5t-139.5 -49.5q-80 0 -132 30q-45 26 -45 61q0 23 16.5 39.5t40.5 16.5q7 0 13 -1t12.5 -4.5t9.5 -5.5t10.5 -8t10.5 -8q25 -16 59 -16q22 0 41 14t19 46q0 30 -26.5 58.5t-64 53t-75 52t-64 68.5t-26.5 91q0 91 72 157zM320 131
q22 22 22 54q0 19 -7 35.5t-23.5 32.5t-28.5 25.5t-38.5 27t-37.5 25.5q-23 -25 -23 -55q0 -19 6.5 -35.5t24 -32.5t28.5 -25t39 -27t38 -25z" />
    <glyph glyph-name="dieresis" unicode="&#xa8;" horiz-adv-x="466" 
d="M117 584q-31 0 -53.5 22.5t-22.5 54.5q0 31 22.5 53.5t53.5 22.5q32 0 54 -22t22 -54t-22 -54.5t-54 -22.5zM349 584q-31 0 -53.5 22.5t-22.5 54.5q0 31 22.5 53.5t53.5 22.5t53.5 -22.5t22.5 -53.5q0 -32 -22.5 -54.5t-53.5 -22.5z" />
    <glyph glyph-name="copyright" unicode="&#xa9;" horiz-adv-x="824" 
d="M505 257q16 0 26.5 -10t10.5 -26q0 -25 -32 -36q-37 -14 -86 -14q-85 0 -138.5 50.5t-53.5 133.5q0 79 57 131.5t136 52.5q43 0 79 -13q32 -10 32 -37q0 -15 -10 -25t-25 -10q-10 0 -32 8t-46 8q-46 0 -78.5 -32.5t-32.5 -81.5q0 -51 32 -83t79 -32q26 0 49 8t33 8z
M114 359q0 -125 85.5 -212t209.5 -87t209.5 87t85.5 212q0 124 -85.5 211.5t-209.5 87.5q-123 0 -209 -87.5t-86 -211.5zM777 359q0 -153 -107.5 -260.5t-260.5 -107.5t-261 107.5t-108 260.5t107.5 260.5t261.5 107.5q153 0 260.5 -107.5t107.5 -260.5z" />
    <glyph glyph-name="ordfeminine" unicode="&#xaa;" horiz-adv-x="296" 
d="M77 559q37 18 109 23v4q0 28 -12 39q-11 9 -29 9q-22 0 -44 -11.5t-28 -11.5q-12 0 -20.5 8.5t-8.5 20.5q0 23 36.5 37t74.5 14q47 0 75 -23q34 -26 34 -91v-131q0 -16 -11.5 -27t-27.5 -11q-25 0 -34 23q-30 -23 -72 -23q-36 0 -62 23q-25 22 -25 61q0 44 45 67zM94 304
h110q11 0 19 -8.5t8 -19.5t-8 -19.5t-19 -8.5h-110q-11 0 -19 8.5t-8 19.5t8 19.5t19 8.5zM146 464q24 0 40 13v59q-36 -4 -53 -11q-26 -10 -26 -30q0 -14 11 -22.5t28 -8.5z" />
    <glyph glyph-name="guillemotleft" unicode="&#xab;" horiz-adv-x="650" 
d="M269 -10q-25 0 -43 18l-168 175q-18 18 -18 42t18 42l168 175q18 18 44 18q24 0 42 -17.5t18 -41.5t-17 -43l-129 -133l129 -133q17 -19 17 -43q0 -25 -18 -42t-43 -17zM550 -10q-25 0 -43 18l-168 175q-18 18 -18 42t18 42l168 175q18 18 44 18q24 0 42 -17.5t18 -41.5
t-17 -43l-129 -133l129 -133q17 -19 17 -43q0 -25 -18 -42t-43 -17z" />
    <glyph glyph-name="logicalnot" unicode="&#xac;" horiz-adv-x="587" 
d="M98 418h391q26 0 44.5 -19.5t18.5 -46.5v-132q0 -25 -18.5 -42.5t-44.5 -17.5q-25 0 -44 18t-19 42v67h-328q-26 0 -44.5 19t-18.5 46t18.5 46.5t44.5 19.5z" />
    <glyph glyph-name="uni00AD" unicode="&#xad;" horiz-adv-x="521" 
d="M376 218h-230q-25 0 -43 18.5t-18 44.5q0 24 18 43t43 19h230q24 0 42 -19t18 -43q0 -26 -17.5 -44.5t-42.5 -18.5z" />
    <glyph glyph-name="registered" unicode="&#xae;" horiz-adv-x="455" 
d="M408 534q0 -76 -54 -129.5t-130 -53.5t-130 53.5t-54 129.5t53.5 130t129.5 54q77 0 131 -54t54 -130zM78 534q0 -61 42.5 -104t103.5 -43t103.5 43t42.5 104q0 62 -42.5 105t-103.5 43t-103.5 -43t-42.5 -105zM150 462v144q0 20 19 20h64q30 0 48.5 -15.5t18.5 -43.5
q0 -35 -32 -51l28 -40q6 -9 6 -14q0 -19 -21 -19q-10 0 -17 10l-37 56h-37v-47q0 -7 -6.5 -13t-14.5 -6q-7 0 -13 5.5t-6 13.5zM260 568q0 24 -32 24h-38v-50h38q32 0 32 26z" />
    <glyph glyph-name="macron" unicode="&#xaf;" horiz-adv-x="466" 
d="M377 647q0 -22 -15.5 -37.5t-37.5 -15.5h-182q-22 0 -38 15.5t-16 37.5q0 23 16 38.5t38 15.5h182q22 0 37.5 -16t15.5 -38z" />
    <glyph glyph-name="degree" unicode="&#xb0;" horiz-adv-x="370" 
d="M266 593q0 34 -23.5 57t-57.5 23t-56.5 -22.5t-22.5 -57.5q0 -34 22.5 -57.5t56.5 -23.5t57.5 23.5t23.5 57.5zM320 593q0 -56 -39.5 -95.5t-95.5 -39.5t-95.5 39.5t-39.5 95.5t39.5 95.5t95.5 39.5t95.5 -39.5t39.5 -95.5z" />
    <glyph glyph-name="plusminus" unicode="&#xb1;" horiz-adv-x="577" 
d="M350 481h131q25 0 43 -18.5t18 -43.5q0 -26 -18 -44t-43 -18h-131v-131q0 -25 -18 -42.5t-44 -17.5t-44 17.5t-18 42.5v131h-130q-25 0 -43 18t-18 44q0 25 18 43.5t43 18.5h130v131q0 25 18 42.5t44 17.5t44 -17.5t18 -42.5v-131zM96 124h385q25 0 43 -18t18 -44
t-18 -44t-43 -18h-385q-25 0 -43 18t-18 44t18 44t43 18z" />
    <glyph glyph-name="twosuperior" unicode="&#xb2;" horiz-adv-x="417" 
d="M206 691q53 0 85.5 -29t32.5 -74q0 -48 -34 -80q-17 -17 -52.5 -36.5t-45.5 -26.5q-27 -18 -27 -46h132q13 0 22 -9.5t9 -23.5t-9 -23.5t-22 -9.5h-178q-16 0 -25.5 9t-9.5 24q0 69 39 108q11 11 25 20.5t33.5 20t26.5 15.5q45 24 45 55q0 19 -13.5 30.5t-35.5 11.5
q-21 0 -42 -12q-28 -16 -39 -16q-14 0 -23.5 9.5t-9.5 22.5q0 25 36 43q39 17 80 17z" />
    <glyph glyph-name="threesuperior" unicode="&#xb3;" horiz-adv-x="417" 
d="M317 428q0 -44 -32 -72t-88 -28q-39 0 -64 8q-41 12 -41 39q0 14 9.5 23.5t22.5 9.5q7 0 33 -13q14 -8 34 -8q56 0 56 48q0 30 -29 41q-10 5 -30 6t-29 5q-16 7 -16 26q0 18 16 26q8 3 26 4t28 6q22 11 22 38q0 16 -10.5 28t-30.5 12q-18 0 -35 -10q-18 -10 -29 -10
q-13 0 -23 9.5t-10 21.5q0 22 24 34q37 19 79 19q48 0 75.5 -27t27.5 -67q0 -57 -50 -80q64 -23 64 -89z" />
    <glyph glyph-name="acute" unicode="&#xb4;" horiz-adv-x="466" 
d="M152 605q0 15 9 31l53 105q16 33 47 33q21 0 36.5 -14.5t15.5 -34.5q0 -12 -13 -34l-61 -100q-18 -28 -43 -28q-18 0 -31 12t-13 30z" />
    <glyph glyph-name="mu" unicode="&#xb5;" horiz-adv-x="567" 
d="M57 -116v519q0 26 19 45t47 19t47 -19t19 -45v-197q0 -37 13 -62q24 -42 82 -42q59 0 81 42q13 25 13 62v197q0 26 19 45t47 19t47 -19t19 -45v-205q0 -87 -40 -136q-58 -72 -186 -72q-53 0 -95 12v-118q0 -26 -20 -45.5t-46 -19.5q-27 0 -46.5 19.5t-19.5 45.5z" />
    <glyph glyph-name="paragraph" unicode="&#xb6;" horiz-adv-x="732" 
d="M576 606v-749q0 -23 -18 -40t-41 -17q-24 0 -41 17t-17 40v749h-111v-749q0 -23 -17.5 -40t-41.5 -17t-41 17t-17 40v454q-92 5 -144.5 59.5t-52.5 143.5q0 97 60 149.5t170 52.5h403q22 0 38 -16t16 -39t-16 -39t-38 -16h-91z" />
    <glyph glyph-name="periodcentered" unicode="&#xb7;" horiz-adv-x="258" 
d="M214 345q0 -35 -24.5 -59t-59.5 -24q-34 0 -58.5 24t-24.5 59t24.5 59t58.5 24q35 0 59.5 -24t24.5 -59z" />
    <glyph glyph-name="cedilla" unicode="&#xb8;" horiz-adv-x="451" 
d="M350 -114q0 -52 -42 -76.5t-105 -24.5q-22 0 -38 4q-31 7 -31 34q0 13 10 23.5t24 10.5q5 0 17.5 -2t21.5 -2q57 0 57 35q0 34 -53 34q-12 0 -20 8t-6 23l7 66h66l1 -47q43 -6 67 -30t24 -56z" />
    <glyph glyph-name="onesuperior" unicode="&#xb9;" horiz-adv-x="417" 
d="M216 691q34 0 34 -38v-254h54q14 0 22.5 -9.5t8.5 -23.5t-8.5 -23.5t-22.5 -9.5h-189q-14 0 -23 9.5t-9 23.5q0 13 9 23t23 10h60v211l-44 -15q-11 -4 -19 -4q-31 0 -31 31q0 26 25 34l91 31q10 4 19 4z" />
    <glyph glyph-name="ordmasculine" unicode="&#xba;" horiz-adv-x="374" 
d="M131 304h110q11 0 19 -8.5t8 -19.5t-8 -19.5t-19 -8.5h-110q-11 0 -18.5 8.5t-7.5 19.5t7.5 19.5t18.5 8.5zM118 549q0 -29 15 -49q20 -27 54 -27t54 27q15 22 15 49t-15 50q-20 27 -54 27t-54 -27q-15 -21 -15 -50zM40 549q0 56 33 94q43 48 114 48t113 -48
q34 -37 34 -94q0 -56 -34 -93q-42 -48 -113 -48t-114 48q-33 38 -33 93z" />
    <glyph glyph-name="guillemotright" unicode="&#xbb;" horiz-adv-x="650" 
d="M381 -10q-25 0 -43 17t-18 42q0 24 17 43l128 133l-128 133q-17 19 -17 43t18 41.5t42 17.5q26 0 44 -18l168 -175q18 -18 18 -42t-18 -42l-168 -175q-18 -18 -43 -18zM100 -10q-24 0 -42 17t-18 42q0 26 16 43l129 133l-129 133q-16 17 -16 43q0 25 17.5 42t41.5 17
q26 0 44 -18l168 -175q19 -19 19 -42t-19 -42l-168 -175q-18 -18 -43 -18z" />
    <glyph glyph-name="onequarter" unicode="&#xbc;" horiz-adv-x="417" 
d="M214 691q35 0 35 -38v-254h54q14 0 22.5 -10t8.5 -23q0 -14 -8.5 -23.5t-22.5 -9.5h-190q-13 0 -22.5 9.5t-9.5 23.5q0 13 9.5 23t22.5 10h60v211l-44 -15q-11 -4 -19 -4q-13 0 -22 8.5t-9 22.5q0 26 25 34l91 31q12 4 19 4zM216 17l-69 -97h69v97zM288 -80h29
q12 0 21 -9.5t9 -21.5q0 -13 -9 -22t-21 -9h-29v-38q0 -14 -10.5 -24.5t-25.5 -10.5t-25.5 10.5t-10.5 24.5v38h-130q-13 0 -22 9t-9 22q0 10 8 21l158 220q14 18 31 18q15 0 25.5 -11t10.5 -25v-192zM377 237q0 -13 -9.5 -23t-23.5 -10h-272q-13 0 -22.5 9.5t-9.5 23.5
t9.5 23.5t22.5 9.5h272q14 0 23.5 -10t9.5 -23z" />
    <glyph glyph-name="onehalf" unicode="&#xbd;" horiz-adv-x="417" 
d="M214 691q35 0 35 -38v-254h54q14 0 22.5 -10t8.5 -23q0 -14 -8.5 -23.5t-22.5 -9.5h-190q-13 0 -22.5 9.5t-9.5 23.5q0 13 9.5 23t22.5 10h60v211l-44 -15q-12 -4 -19 -4q-13 0 -22 8.5t-9 22.5q0 26 25 34l91 31q12 4 19 4zM377 237q0 -14 -9 -23.5t-24 -9.5h-272
q-15 0 -23.5 9.5t-8.5 23.5t9.5 23.5t22.5 9.5h272q15 0 24 -9.5t9 -23.5zM206 148q53 0 85 -29t32 -74q0 -49 -33 -80q-18 -17 -53.5 -36.5t-45.5 -26.5q-26 -18 -26 -46h131q13 0 22.5 -9.5t9.5 -23.5t-9.5 -23.5t-22.5 -9.5h-177q-35 0 -35 33q0 69 38 108
q11 11 24.5 20.5t35.5 21.5t26 14q44 26 44 55q0 19 -13.5 30.5t-35.5 11.5t-41 -12q-30 -16 -40 -16q-13 0 -22.5 9.5t-9.5 22.5q0 26 36 43q39 17 80 17z" />
    <glyph glyph-name="threequarters" unicode="&#xbe;" horiz-adv-x="417" 
d="M314 428q0 -44 -32 -72t-88 -28q-39 0 -64 8q-41 12 -41 39q0 14 9.5 23.5t22.5 9.5q7 0 33 -13q14 -8 34 -8q56 0 56 48q0 30 -29 41q-10 5 -30 6t-29 5q-16 7 -16 26q0 18 16 26q8 3 26 4t28 6q22 11 22 38q0 16 -10.5 28t-30.5 12q-18 0 -35 -10q-18 -10 -29 -10
q-13 0 -23 9.5t-10 21.5q0 22 24 34q37 19 79 19q48 0 75.5 -27t27.5 -67q0 -57 -50 -80q64 -23 64 -89zM216 17l-69 -97h69v97zM288 -80h29q12 0 21 -9.5t9 -21.5q0 -13 -9 -22t-21 -9h-29v-38q0 -14 -10.5 -24.5t-25.5 -10.5t-25.5 10.5t-10.5 24.5v38h-130q-13 0 -22 9
t-9 22q0 10 8 21l158 220q14 18 31 18q15 0 25.5 -11t10.5 -25v-192zM377 237q0 -13 -9.5 -23t-23.5 -10h-272q-13 0 -22.5 9.5t-9.5 23.5t9.5 23.5t22.5 9.5h272q14 0 23.5 -10t9.5 -23z" />
    <glyph glyph-name="questiondown" unicode="&#xbf;" horiz-adv-x="498" 
d="M196 387q0 33 23 56.5t56 23.5t56 -23.5t23 -56.5t-23 -56t-56 -23q-34 0 -56.5 23t-22.5 56zM492 -104q0 -41 -60 -79q-77 -51 -175 -51q-93 0 -155.5 55t-62.5 139q0 53 24 90t78 73q58 41 70 82q16 53 66 53q26 0 43.5 -19t17.5 -47q0 -36 -35 -84q-11 -15 -23.5 -27
t-39 -33t-32.5 -26q-34 -28 -34 -62q0 -33 25.5 -54t67.5 -21q48 0 93 28q10 6 24 18.5t25 18.5t26 6q24 0 40.5 -17.5t16.5 -42.5z" />
    <glyph glyph-name="Agrave" unicode="&#xc0;" horiz-adv-x="617" 
d="M309 510l-89 -256h176zM466 38l-35 100h-247l-35 -100q-16 -48 -71 -48q-31 0 -50 19.5t-19 46.5q0 14 8 32l192 528q26 75 101 75q76 0 102 -75l189 -528q7 -19 7 -32q0 -30 -20.5 -48t-52.5 -18q-55 0 -69 48zM389 809q0 -18 -13.5 -30t-31.5 -12q-26 0 -42 28l-61 100
q-13 19 -13 34q0 20 15.5 34.5t36.5 14.5q31 0 47 -33l53 -105q9 -20 9 -31z" />
    <glyph glyph-name="Aacute" unicode="&#xc1;" horiz-adv-x="617" 
d="M309 510l-89 -256h176zM466 38l-35 100h-247l-35 -100q-16 -48 -71 -48q-31 0 -50 19.5t-19 46.5q0 14 8 32l192 528q26 75 101 75q76 0 102 -75l189 -528q7 -19 7 -32q0 -30 -20.5 -48t-52.5 -18q-55 0 -69 48zM228 809q0 15 9 31l53 105q16 33 47 33q21 0 36.5 -14.5
t15.5 -34.5q0 -12 -13 -34l-61 -100q-18 -28 -43 -28q-18 0 -31 12t-13 30z" />
    <glyph glyph-name="Acircumflex" unicode="&#xc2;" horiz-adv-x="617" 
d="M309 510l-89 -256h176zM466 38l-35 100h-247l-35 -100q-16 -48 -71 -48q-31 0 -50 19.5t-19 46.5q0 14 8 32l192 528q26 75 101 75q76 0 102 -75l189 -528q7 -19 7 -32q0 -30 -20.5 -48t-52.5 -18q-55 0 -69 48zM308 976q18 0 36 -16l107 -101q21 -18 21 -38
q0 -21 -13.5 -34t-32.5 -13q-17 0 -32 12l-86 83l-86 -83q-15 -12 -32 -12q-19 0 -33 13t-14 34q0 19 22 38l106 101q18 16 37 16z" />
    <glyph glyph-name="Atilde" unicode="&#xc3;" horiz-adv-x="617" 
d="M309 510l-89 -256h176zM466 38l-35 100h-247l-35 -100q-16 -48 -71 -48q-31 0 -50 19.5t-19 46.5q0 14 8 32l192 528q26 75 101 75q76 0 102 -75l189 -528q7 -19 7 -32q0 -30 -20.5 -48t-52.5 -18q-55 0 -69 48zM489 897q0 -31 -23 -58q-34 -37 -80 -37q-40 0 -79 27
q-3 2 -15.5 10.5t-17 11t-14 6t-17.5 3.5q-9 0 -17 -4.5t-10.5 -7.5t-9.5 -13q-19 -25 -39 -25t-30.5 13t-10.5 33q0 32 24 58q32 37 80 37q40 0 79 -27q4 -3 12.5 -9t13 -9t11.5 -7t13.5 -5.5t12.5 -1.5q19 0 37 26q19 25 40 25q19 0 29.5 -13t10.5 -33z" />
    <glyph glyph-name="Adieresis" unicode="&#xc4;" horiz-adv-x="617" 
d="M309 510l-89 -256h176zM466 38l-35 100h-247l-35 -100q-16 -48 -71 -48q-31 0 -50 19.5t-19 46.5q0 14 8 32l192 528q26 75 101 75q76 0 102 -75l189 -528q7 -19 7 -32q0 -30 -20.5 -48t-52.5 -18q-55 0 -69 48zM192 784q-31 0 -53.5 22.5t-22.5 54.5q0 31 22 53.5
t54 22.5t54 -22t22 -54t-22 -54.5t-54 -22.5zM424 784q-31 0 -53.5 22.5t-22.5 54.5q0 31 22 53.5t54 22.5t54 -22.5t22 -53.5q0 -32 -22.5 -54.5t-53.5 -22.5z" />
    <glyph glyph-name="Aring" unicode="&#xc5;" horiz-adv-x="617" 
d="M309 510l-89 -256h176zM466 38l-35 100h-247l-35 -100q-16 -48 -71 -48q-31 0 -50 19.5t-19 46.5q0 14 8 32l192 528q26 75 101 75q76 0 102 -75l189 -528q7 -19 7 -32q0 -30 -20.5 -48t-52.5 -18q-55 0 -69 48zM430 858q0 -50 -35.5 -85.5t-85.5 -35.5q-51 0 -86.5 35.5
t-35.5 85.5q0 51 35.5 86.5t86.5 35.5q50 0 85.5 -35.5t35.5 -86.5zM372 858q0 27 -18.5 45.5t-44.5 18.5q-27 0 -45 -18.5t-18 -45.5t18 -45.5t45 -18.5q26 0 44.5 19t18.5 45z" />
    <glyph glyph-name="AE" unicode="&#xc6;" horiz-adv-x="989" 
d="M624 279v-151h274q24 0 42.5 -19.5t18.5 -44.5q0 -26 -18 -45t-43 -19h-346q-30 0 -51 20.5t-21 49.5v68h-252l-77 -100q-15 -20 -21.5 -27t-20 -14t-32.5 -7q-31 0 -49.5 18t-18.5 49q0 26 21 53l393 503q27 35 52 51t66 17h357q25 0 43 -19t18 -45t-18 -45t-43 -19
h-274v-147h220q26 0 44.5 -19t18.5 -45t-18.5 -44.5t-44.5 -18.5h-220zM316 254h164v215z" />
    <glyph glyph-name="Ccedilla" unicode="&#xc7;" horiz-adv-x="654" 
d="M523 -114q0 -52 -42 -76.5t-105 -24.5q-22 0 -38 4q-31 7 -31 34q0 13 10.5 23.5t23.5 10.5q5 0 17.5 -2t21.5 -2q57 0 57 35q0 34 -53 34q-12 0 -19.5 8t-6.5 23l4 39q-143 13 -232.5 107t-89.5 242q0 147 108.5 248t257.5 101q86 0 155 -25q58 -22 58 -69
q0 -29 -19.5 -48t-47.5 -19q-16 0 -57.5 16t-91.5 16q-88 0 -150 -63.5t-62 -156.5q0 -96 61 -158t151 -62q55 0 99.5 17t59.5 17q28 0 47.5 -19t19.5 -48q0 -46 -60 -70q-63 -24 -138 -27l1 -19q43 -6 67 -30t24 -56z" />
    <glyph glyph-name="Egrave" unicode="&#xc8;" horiz-adv-x="627" 
d="M212 279v-151h323q26 0 44 -19t18 -45t-18 -45t-44 -19h-395q-31 0 -51.5 20.5t-20.5 49.5v541q0 29 20.5 49.5t51.5 20.5h395q26 0 44 -19t18 -45t-18 -45t-44 -19h-323v-147h271q25 0 43 -19t18 -45t-18 -44.5t-43 -18.5h-271zM393 805q0 -18 -13.5 -30t-31.5 -12
q-25 0 -42 28l-61 100q-13 19 -13 34q0 20 15.5 34.5t36.5 14.5q31 0 47 -33l53 -105q9 -20 9 -31z" />
    <glyph glyph-name="Eacute" unicode="&#xc9;" horiz-adv-x="627" 
d="M212 279v-151h323q26 0 44 -19t18 -45t-18 -45t-44 -19h-395q-31 0 -51.5 20.5t-20.5 49.5v541q0 29 20.5 49.5t51.5 20.5h395q26 0 44 -19t18 -45t-18 -45t-44 -19h-323v-147h271q25 0 43 -19t18 -45t-18 -44.5t-43 -18.5h-271zM236 805q0 15 9 31l53 105q16 33 47 33
q21 0 36.5 -14.5t15.5 -34.5q0 -12 -13 -34l-61 -100q-18 -28 -43 -28q-18 0 -31 12t-13 30z" />
    <glyph glyph-name="Ecircumflex" unicode="&#xca;" horiz-adv-x="627" 
d="M212 279v-151h323q26 0 44 -19t18 -45t-18 -45t-44 -19h-395q-31 0 -51.5 20.5t-20.5 49.5v541q0 29 20.5 49.5t51.5 20.5h395q26 0 44 -19t18 -45t-18 -45t-44 -19h-323v-147h271q25 0 43 -19t18 -45t-18 -44.5t-43 -18.5h-271zM315 972q19 0 37 -16l106 -101
q22 -20 22 -38q0 -21 -14 -34t-33 -13q-20 0 -35 15l-83 80l-83 -80q-15 -15 -35 -15q-19 0 -33 13t-14 34q0 18 22 38l106 101q18 16 37 16z" />
    <glyph glyph-name="Edieresis" unicode="&#xcb;" horiz-adv-x="627" 
d="M212 279v-151h323q26 0 44 -19t18 -45t-18 -45t-44 -19h-395q-31 0 -51.5 20.5t-20.5 49.5v541q0 29 20.5 49.5t51.5 20.5h395q26 0 44 -19t18 -45t-18 -45t-44 -19h-323v-147h271q25 0 43 -19t18 -45t-18 -44.5t-43 -18.5h-271zM200 784q-31 0 -53.5 22.5t-22.5 54.5
q0 31 22 53.5t54 22.5t54 -22t22 -54t-22 -54.5t-54 -22.5zM432 784q-31 0 -53.5 22.5t-22.5 54.5q0 31 22 53.5t54 22.5t54 -22.5t22 -53.5q0 -32 -22.5 -54.5t-53.5 -22.5z" />
    <glyph glyph-name="Igrave" unicode="&#xcc;" horiz-adv-x="279" 
d="M68 60v560q0 29 21 49.5t51 20.5t51 -20.5t21 -49.5v-560q0 -29 -21.5 -49.5t-50.5 -20.5q-30 0 -51 20.5t-21 49.5zM222 805q0 -18 -13.5 -30t-31.5 -12q-25 0 -42 28l-61 100q-13 19 -13 34q0 20 15.5 34.5t36.5 14.5q31 0 47 -33l53 -105q9 -20 9 -31z" />
    <glyph glyph-name="Iacute" unicode="&#xcd;" horiz-adv-x="279" 
d="M68 60v560q0 29 21 49.5t51 20.5t51 -20.5t21 -49.5v-560q0 -29 -21.5 -49.5t-50.5 -20.5q-30 0 -51 20.5t-21 49.5zM61 805q0 15 9 31l53 105q16 33 47 33q21 0 36.5 -14.5t15.5 -34.5q0 -12 -13 -34l-61 -100q-18 -28 -43 -28q-18 0 -31 12t-13 30z" />
    <glyph glyph-name="Icircumflex" unicode="&#xce;" horiz-adv-x="279" 
d="M68 60v560q0 29 21 49.5t51 20.5t51 -20.5t21 -49.5v-560q0 -29 -21.5 -49.5t-50.5 -20.5q-30 0 -51 20.5t-21 49.5zM141 972q19 0 37 -16l106 -101q22 -20 22 -38q0 -21 -14 -34t-33 -13q-20 0 -35 15l-83 80l-83 -80q-15 -15 -35 -15q-19 0 -33 13t-14 34q0 18 22 38
l106 101q18 16 37 16z" />
    <glyph glyph-name="Idieresis" unicode="&#xcf;" horiz-adv-x="279" 
d="M68 60v560q0 29 21 49.5t51 20.5t51 -20.5t21 -49.5v-560q0 -29 -21.5 -49.5t-50.5 -20.5q-30 0 -51 20.5t-21 49.5zM25 784q-31 0 -53.5 22.5t-22.5 54.5q0 31 22.5 53.5t53.5 22.5q32 0 54 -22t22 -54t-22 -54.5t-54 -22.5zM257 784q-31 0 -53.5 22.5t-22.5 54.5
q0 31 22.5 53.5t53.5 22.5t53.5 -22.5t22.5 -53.5q0 -32 -22.5 -54.5t-53.5 -22.5z" />
    <glyph glyph-name="Eth" unicode="&#xd0;" horiz-adv-x="752" 
d="M312 279h-90v-158h103q97 0 155 37q85 55 85 183q0 99 -52 154q-61 65 -185 65h-106v-157h90q24 0 41.5 -19t17.5 -43q0 -26 -17.5 -44t-41.5 -18zM78 70v209h-38q-26 0 -43.5 18t-17.5 44q0 24 18 43t43 19h38v208q0 29 21 49.5t51 20.5h199q88 0 156.5 -22.5
t124.5 -81.5q82 -89 82 -236q0 -161 -97 -251q-99 -90 -280 -90h-185q-30 0 -51 20.5t-21 49.5z" />
    <glyph glyph-name="Ntilde" unicode="&#xd1;" horiz-adv-x="743" 
d="M675 624v-556q0 -33 -24 -55.5t-59 -22.5q-44 0 -70 36l-317 415v-386q0 -27 -20 -46t-49 -19q-28 0 -48 19t-20 46v557q0 32 24 55t58 23q43 0 70 -37l317 -414v385q0 27 20.5 46.5t48.5 19.5t48.5 -19.5t20.5 -46.5zM552 896q0 -31 -23 -58q-34 -37 -82 -37
q-40 0 -79 27q-3 2 -15.5 10.5t-17 11t-14 6t-17.5 3.5q-18 0 -34.5 -25t-39.5 -25q-20 0 -30.5 13t-10.5 33q0 32 24 58q32 37 82 37q40 0 79 -27q4 -3 12.5 -9t13 -9t11.5 -7t13.5 -5.5t12.5 -1.5q18 0 35.5 25.5t39.5 25.5q19 0 29.5 -13t10.5 -33z" />
    <glyph glyph-name="Ograve" unicode="&#xd2;" horiz-adv-x="809" 
d="M769 339q0 -155 -104 -252t-260 -97t-260.5 97t-104.5 252q0 156 104.5 253.5t260.5 97.5q155 0 259.5 -98t104.5 -253zM616 339q0 92 -60 154t-151 62t-151.5 -62t-60.5 -154t60.5 -153.5t151.5 -61.5t151 61.5t60 153.5zM485 805q0 -18 -13.5 -30t-31.5 -12
q-25 0 -42 28l-61 100q-13 19 -13 34q0 20 15.5 34.5t36.5 14.5q31 0 47 -33l53 -105q9 -20 9 -31z" />
    <glyph glyph-name="Oacute" unicode="&#xd3;" horiz-adv-x="809" 
d="M769 339q0 -155 -104 -252t-260 -97t-260.5 97t-104.5 252q0 156 104.5 253.5t260.5 97.5q155 0 259.5 -98t104.5 -253zM616 339q0 92 -60 154t-151 62t-151.5 -62t-60.5 -154t60.5 -153.5t151.5 -61.5t151 61.5t60 153.5zM324 805q0 15 9 31l53 105q16 33 47 33
q21 0 36.5 -14.5t15.5 -34.5q0 -12 -13 -34l-61 -100q-18 -28 -43 -28q-18 0 -31 12t-13 30z" />
    <glyph glyph-name="Ocircumflex" unicode="&#xd4;" horiz-adv-x="809" 
d="M769 339q0 -155 -104 -252t-260 -97t-260.5 97t-104.5 252q0 156 104.5 253.5t260.5 97.5q155 0 259.5 -98t104.5 -253zM616 339q0 92 -60 154t-151 62t-151.5 -62t-60.5 -154t60.5 -153.5t151.5 -61.5t151 61.5t60 153.5zM404 972q19 0 37 -16l106 -101q22 -20 22 -38
q0 -21 -14 -34t-33 -13q-20 0 -35 15l-83 80l-83 -80q-15 -15 -35 -15q-19 0 -33 13t-14 34q0 18 22 38l106 101q18 16 37 16z" />
    <glyph glyph-name="Otilde" unicode="&#xd5;" horiz-adv-x="809" 
d="M769 339q0 -155 -104 -252t-260 -97t-260.5 97t-104.5 252q0 156 104.5 253.5t260.5 97.5q155 0 259.5 -98t104.5 -253zM616 339q0 92 -60 154t-151 62t-151.5 -62t-60.5 -154t60.5 -153.5t151.5 -61.5t151 61.5t60 153.5zM584 896q0 -31 -23 -58q-34 -37 -82 -37
q-40 0 -79 27q-3 2 -15.5 10.5t-17 11t-14 6t-17.5 3.5q-18 0 -34.5 -25t-39.5 -25q-20 0 -30.5 13t-10.5 33q0 32 24 58q32 37 82 37q40 0 79 -27q4 -3 12.5 -9t13 -9t11.5 -7t13.5 -5.5t12.5 -1.5q18 0 35.5 25.5t39.5 25.5q19 0 29.5 -13t10.5 -33z" />
    <glyph glyph-name="Odieresis" unicode="&#xd6;" horiz-adv-x="809" 
d="M769 339q0 -155 -104 -252t-260 -97t-260.5 97t-104.5 252q0 156 104.5 253.5t260.5 97.5q155 0 259.5 -98t104.5 -253zM616 339q0 92 -60 154t-151 62t-151.5 -62t-60.5 -154t60.5 -153.5t151.5 -61.5t151 61.5t60 153.5zM288 784q-31 0 -53.5 22.5t-22.5 54.5
q0 31 22 53.5t54 22.5t54 -22t22 -54t-22 -54.5t-54 -22.5zM520 784q-31 0 -53.5 22.5t-22.5 54.5q0 31 22 53.5t54 22.5t54 -22.5t22 -53.5q0 -32 -22.5 -54.5t-53.5 -22.5z" />
    <glyph glyph-name="multiply" unicode="&#xd7;" horiz-adv-x="519" 
d="M260 441l120 120q17 17 43 16.5t44 -17.5q19 -18 19 -44t-18 -43l-121 -120l121 -120q18 -17 17.5 -43t-18.5 -44q-19 -18 -44.5 -18t-42.5 17l-120 120l-120 -120q-18 -17 -43.5 -17t-43.5 18t-18.5 43.5t17.5 43.5l120 120l-120 120q-18 18 -17.5 43t18.5 44
q18 18 43.5 18t43.5 -17z" />
    <glyph glyph-name="Oslash" unicode="&#xd8;" horiz-adv-x="809" 
d="M769 339q0 -155 -104 -252t-260 -97q-109 0 -198 50l-26 -30q-14 -16 -35 -16q-20 0 -34 14t-14 34q0 17 11 30l23 27q-92 97 -92 240q0 156 104.5 253.5t260.5 97.5q110 0 197 -51l26 29q13 16 35 16q20 0 34 -13.5t14 -34.5q0 -16 -11 -30l-23 -27q92 -97 92 -240z
M616 339q0 70 -38 127l-276 -317q47 -25 103 -25q91 0 151 61.5t60 153.5zM349 349l158 181q-47 25 -102 25q-91 0 -151.5 -62t-60.5 -154q0 -72 38 -127z" />
    <glyph glyph-name="Ugrave" unicode="&#xd9;" horiz-adv-x="724" 
d="M361 122q81 0 119 48q34 42 34 116v334q0 29 20.5 49.5t51.5 20.5q29 0 50.5 -20.5t21.5 -49.5v-351q0 -115 -62 -188q-80 -91 -234 -91t-234 91q-62 73 -62 188v351q0 29 21.5 49.5t50.5 20.5q31 0 51.5 -20.5t20.5 -49.5v-334q0 -74 34 -116q38 -48 117 -48zM442 805
q0 -18 -13.5 -30t-31.5 -12q-25 0 -42 28l-61 100q-13 19 -13 34q0 20 15.5 34.5t36.5 14.5q31 0 47 -33l53 -105q9 -20 9 -31z" />
    <glyph glyph-name="Uacute" unicode="&#xda;" horiz-adv-x="724" 
d="M361 122q81 0 119 48q34 42 34 116v334q0 29 20.5 49.5t51.5 20.5q29 0 50.5 -20.5t21.5 -49.5v-351q0 -115 -62 -188q-80 -91 -234 -91t-234 91q-62 73 -62 188v351q0 29 21.5 49.5t50.5 20.5q31 0 51.5 -20.5t20.5 -49.5v-334q0 -74 34 -116q38 -48 117 -48zM281 805
q0 15 9 31l53 105q16 33 47 33q21 0 36.5 -14.5t15.5 -34.5q0 -12 -13 -34l-61 -100q-18 -28 -43 -28q-18 0 -31 12t-13 30z" />
    <glyph glyph-name="Ucircumflex" unicode="&#xdb;" horiz-adv-x="724" 
d="M361 122q81 0 119 48q34 42 34 116v334q0 29 20.5 49.5t51.5 20.5q29 0 50.5 -20.5t21.5 -49.5v-351q0 -115 -62 -188q-80 -91 -234 -91t-234 91q-62 73 -62 188v351q0 29 21.5 49.5t50.5 20.5q31 0 51.5 -20.5t20.5 -49.5v-334q0 -74 34 -116q38 -48 117 -48zM361 972
q19 0 37 -16l106 -101q22 -20 22 -38q0 -21 -14 -34t-33 -13q-20 0 -35 15l-83 80l-83 -80q-15 -15 -35 -15q-19 0 -33 13t-14 34q0 18 22 38l106 101q18 16 37 16z" />
    <glyph glyph-name="Udieresis" unicode="&#xdc;" horiz-adv-x="724" 
d="M361 122q81 0 119 48q34 42 34 116v334q0 29 20.5 49.5t51.5 20.5q29 0 50.5 -20.5t21.5 -49.5v-351q0 -115 -62 -188q-80 -91 -234 -91t-234 91q-62 73 -62 188v351q0 29 21.5 49.5t50.5 20.5q31 0 51.5 -20.5t20.5 -49.5v-334q0 -74 34 -116q38 -48 117 -48zM233 784
q-31 0 -53.5 22.5t-22.5 54.5q0 31 22.5 53.5t53.5 22.5q32 0 54 -22t22 -54t-22 -54.5t-54 -22.5zM465 784q-31 0 -53.5 22.5t-22.5 54.5q0 31 22.5 53.5t53.5 22.5t53.5 -22.5t22.5 -53.5q0 -32 -22.5 -54.5t-53.5 -22.5z" />
    <glyph glyph-name="Yacute" unicode="&#xdd;" horiz-adv-x="584" 
d="M562 575l-199 -292v-223q0 -29 -21.5 -49.5t-50.5 -20.5t-50.5 20.5t-21.5 49.5v224l-197 292q-14 20 -14 45q0 30 20.5 49.5t50.5 19.5q40 0 60 -32l151 -230l154 231q22 31 61 31q30 0 50.5 -20t20.5 -49q0 -26 -14 -46zM221 805q0 15 9 31l53 105q16 33 47 33
q21 0 36.5 -14.5t15.5 -34.5q0 -12 -13 -34l-61 -100q-18 -28 -43 -28q-18 0 -31 12t-13 30z" />
    <glyph glyph-name="Thorn" unicode="&#xde;" horiz-adv-x="647" 
d="M68 -66v686q0 29 21 49.5t51 20.5t51 -20.5t21 -49.5v-67h154q101 0 163 -51q83 -67 83 -187q0 -60 -24 -110t-66 -81q-61 -47 -156 -47h-154v-143q0 -29 -21.5 -49.5t-50.5 -20.5q-30 0 -51 20.5t-21 49.5zM466 315q0 55 -31 83q-30 29 -88 29h-135v-224h132q56 0 85 24
q37 29 37 88z" />
    <glyph glyph-name="germandbls" unicode="&#xdf;" horiz-adv-x="592" 
d="M369 385q0 -13 16 -24t46.5 -25t46.5 -24q77 -50 77 -141q0 -76 -53 -128.5t-136 -52.5q-67 0 -110 20q-47 24 -47 64q0 25 13.5 41t37.5 16q13 0 41 -15q26 -14 61 -14q28 0 47.5 16.5t19.5 42.5q0 37 -42 59l-34 17t-41.5 23t-31.5 25.5t-28.5 39t-8.5 47.5
q0 19 11 33.5t26.5 23.5t31.5 19t27 26.5t11 39.5q0 33 -20.5 51t-52.5 18q-30 0 -53.5 -19t-23.5 -64v-507q0 -27 -20 -46.5t-47 -19.5q-28 0 -48 19.5t-20 46.5v507q0 90 59.5 140.5t148.5 50.5q102 0 158.5 -41.5t56.5 -116.5q0 -31 -12.5 -55t-30 -37t-34.5 -22.5
t-29.5 -17.5t-12.5 -16z" />
    <glyph glyph-name="agrave" unicode="&#xe0;" horiz-adv-x="487" 
d="M34 131q0 42 21.5 71.5t62 45t82 23.5t98.5 12v8q0 36 -14 54q-16 20 -54 20q-28 0 -68 -15.5t-58 -15.5q-20 0 -34 14t-14 34q0 40 58 63q57 22 132 22q97 0 144 -52q40 -43 40 -121v-240q0 -26 -20 -45t-46 -19q-37 0 -55 28q-49 -28 -123 -28q-65 0 -108.5 38.5
t-43.5 102.5zM228 88q39 0 70 19v87q-138 -5 -138 -59q0 -23 19 -35t49 -12zM325 605q0 -18 -13.5 -30t-31.5 -12q-25 0 -42 28l-61 100q-13 19 -13 34q0 20 15.5 34.5t36.5 14.5q31 0 47 -33l53 -105q9 -20 9 -31z" />
    <glyph glyph-name="aacute" unicode="&#xe1;" horiz-adv-x="487" 
d="M34 131q0 42 21.5 71.5t62 45t82 23.5t98.5 12v8q0 36 -14 54q-16 20 -54 20q-28 0 -68 -15.5t-58 -15.5q-20 0 -34 14t-14 34q0 40 58 63q57 22 132 22q97 0 144 -52q40 -43 40 -121v-240q0 -26 -20 -45t-46 -19q-37 0 -55 28q-49 -28 -123 -28q-65 0 -108.5 38.5
t-43.5 102.5zM228 88q39 0 70 19v87q-138 -5 -138 -59q0 -23 19 -35t49 -12zM162 605q0 15 9 31l53 105q16 33 47 33q21 0 36.5 -14.5t15.5 -34.5q0 -12 -13 -34l-61 -100q-18 -28 -43 -28q-18 0 -31 12t-13 30z" />
    <glyph glyph-name="acircumflex" unicode="&#xe2;" horiz-adv-x="487" 
d="M34 131q0 42 21.5 71.5t62 45t82 23.5t98.5 12v8q0 36 -14 54q-16 20 -54 20q-28 0 -68 -15.5t-58 -15.5q-20 0 -34 14t-14 34q0 40 58 63q57 22 132 22q97 0 144 -52q40 -43 40 -121v-240q0 -26 -20 -45t-46 -19q-37 0 -55 28q-49 -28 -123 -28q-65 0 -108.5 38.5
t-43.5 102.5zM228 88q39 0 70 19v87q-138 -5 -138 -59q0 -23 19 -35t49 -12zM243 772q19 0 37 -16l106 -101q22 -20 22 -38q0 -21 -14 -34t-33 -13q-20 0 -35 15l-83 80l-83 -80q-15 -15 -35 -15q-19 0 -33 13t-14 34q0 18 22 38l106 101q18 16 37 16z" />
    <glyph glyph-name="atilde" unicode="&#xe3;" horiz-adv-x="487" 
d="M34 131q0 42 21.5 71.5t62 45t82 23.5t98.5 12v8q0 36 -14 54q-16 20 -54 20q-28 0 -68 -15.5t-58 -15.5q-20 0 -34 14t-14 34q0 40 58 63q57 22 132 22q97 0 144 -52q40 -43 40 -121v-240q0 -26 -20 -45t-46 -19q-37 0 -55 28q-49 -28 -123 -28q-65 0 -108.5 38.5
t-43.5 102.5zM228 88q39 0 70 19v87q-138 -5 -138 -59q0 -23 19 -35t49 -12zM423 688q0 -31 -23 -58q-34 -37 -82 -37q-40 0 -79 27q-3 2 -15.5 10.5t-17 11t-14 6t-17.5 3.5q-18 0 -34.5 -25t-39.5 -25q-20 0 -30.5 13t-10.5 33q0 32 24 58q32 37 82 37q40 0 79 -27
q4 -3 12.5 -9t13 -9t11.5 -7t13.5 -5.5t12.5 -1.5q18 0 35.5 25.5t39.5 25.5q19 0 29.5 -13t10.5 -33z" />
    <glyph glyph-name="adieresis" unicode="&#xe4;" horiz-adv-x="487" 
d="M34 131q0 42 21.5 71.5t62 45t82 23.5t98.5 12v8q0 36 -14 54q-16 20 -54 20q-28 0 -68 -15.5t-58 -15.5q-20 0 -34 14t-14 34q0 40 58 63q57 22 132 22q97 0 144 -52q40 -43 40 -121v-240q0 -26 -20 -45t-46 -19q-37 0 -55 28q-49 -28 -123 -28q-65 0 -108.5 38.5
t-43.5 102.5zM228 88q39 0 70 19v87q-138 -5 -138 -59q0 -23 19 -35t49 -12zM127 584q-31 0 -53.5 22.5t-22.5 54.5q0 31 22.5 53.5t53.5 22.5q32 0 54 -22t22 -54t-22 -54.5t-54 -22.5zM359 584q-31 0 -53.5 22.5t-22.5 54.5q0 31 22.5 53.5t53.5 22.5t53.5 -22.5
t22.5 -53.5q0 -32 -22.5 -54.5t-53.5 -22.5z" />
    <glyph glyph-name="aring" unicode="&#xe5;" horiz-adv-x="487" 
d="M34 131q0 42 21.5 71.5t62 45t82 23.5t98.5 12v8q0 36 -14 54q-16 20 -54 20q-28 0 -68 -15.5t-58 -15.5q-20 0 -34 14t-14 34q0 40 58 63q57 22 132 22q97 0 144 -52q40 -43 40 -121v-240q0 -26 -20 -45t-46 -19q-37 0 -55 28q-49 -28 -123 -28q-65 0 -108.5 38.5
t-43.5 102.5zM228 88q39 0 70 19v87q-138 -5 -138 -59q0 -23 19 -35t49 -12zM366 667q0 -50 -35.5 -85.5t-85.5 -35.5q-51 0 -86.5 35.5t-35.5 85.5q0 51 35.5 86.5t86.5 35.5q50 0 85.5 -35.5t35.5 -86.5zM308 667q0 27 -18.5 45.5t-44.5 18.5q-27 0 -45 -18.5t-18 -45.5
t18 -45.5t45 -18.5q26 0 44.5 19t18.5 45z" />
    <glyph glyph-name="ae" unicode="&#xe6;" horiz-adv-x="782" 
d="M227 84q50 0 89 41q-14 30 -19 70q-137 -6 -137 -61q0 -22 18 -36t49 -14zM356 62q-68 -72 -172 -72q-66 0 -108 39.5t-42 100.5q0 42 22.5 70.5t65 43.5t80.5 21.5t92 10.5v17q0 37 -13 54q-16 20 -53 20q-34 0 -76 -18q-37 -15 -49 -15q-20 0 -33.5 14t-13.5 34
q0 37 58 61q62 24 130 24q50 0 86 -18q30 -15 48 -40q62 58 151 58q103 0 163 -60q57 -58 57 -144q0 -67 -65 -67h-251q17 -101 119 -101q40 0 78.5 15.5t50.5 15.5q21 0 35 -15.5t14 -37.5q0 -38 -57 -61q-53 -22 -130 -22q-117 0 -187 72zM433 276h188q-3 37 -27.5 62
t-63.5 25q-82 0 -97 -87z" />
    <glyph glyph-name="ccedilla" unicode="&#xe7;" horiz-adv-x="480" 
d="M411 -114q0 -52 -42 -76.5t-105 -24.5q-22 0 -38 4q-31 7 -31 34q0 13 10.5 23.5t23.5 10.5q5 0 17.5 -2t21.5 -2q57 0 57 35q0 34 -53 34q-12 0 -19.5 8t-6.5 23l4 40q-97 11 -152 70q-60 63 -60 166q0 87 49 147q74 91 209 91q60 0 107 -22q52 -24 52 -63
q0 -22 -15.5 -38t-37.5 -16q-16 0 -47.5 13t-58.5 13q-57 0 -92 -38q-32 -35 -32 -88q0 -55 33 -91t92 -36q32 0 63.5 12t43.5 12q22 0 37.5 -16t15.5 -39q0 -44 -69 -66q-29 -10 -69 -13l1 -19q43 -6 67 -30t24 -56z" />
    <glyph glyph-name="egrave" unicode="&#xe8;" horiz-adv-x="525" 
d="M424 126q21 0 35 -15.5t14 -37.5q0 -38 -57 -61q-53 -22 -130 -22q-116 0 -181 67q-67 69 -67 177q0 102 65 169q64 64 169 64q103 0 163 -60q57 -58 57 -144q0 -35 -17 -54.5t-48 -19.5h-250q18 -94 118 -94q40 0 78.5 15.5t50.5 15.5zM176 276h188q-3 37 -27.5 62
t-63.5 25q-82 0 -97 -87zM351 605q0 -18 -13.5 -30t-31.5 -12q-25 0 -42 28l-61 100q-13 19 -13 34q0 20 15.5 34.5t36.5 14.5q31 0 47 -33l53 -105q9 -20 9 -31z" />
    <glyph glyph-name="eacute" unicode="&#xe9;" horiz-adv-x="525" 
d="M424 126q21 0 35 -15.5t14 -37.5q0 -38 -57 -61q-53 -22 -130 -22q-116 0 -181 67q-67 69 -67 177q0 102 65 169q64 64 169 64q103 0 163 -60q57 -58 57 -144q0 -35 -17 -54.5t-48 -19.5h-250q18 -94 118 -94q40 0 78.5 15.5t50.5 15.5zM176 276h188q-3 37 -27.5 62
t-63.5 25q-82 0 -97 -87zM180 605q0 15 9 31l53 105q16 33 47 33q21 0 36.5 -14.5t15.5 -34.5q0 -12 -13 -34l-61 -100q-18 -28 -43 -28q-18 0 -31 12t-13 30z" />
    <glyph glyph-name="ecircumflex" unicode="&#xea;" horiz-adv-x="525" 
d="M424 126q21 0 35 -15.5t14 -37.5q0 -38 -57 -61q-53 -22 -130 -22q-116 0 -181 67q-67 69 -67 177q0 102 65 169q64 64 169 64q103 0 163 -60q57 -58 57 -144q0 -35 -17 -54.5t-48 -19.5h-250q18 -94 118 -94q40 0 78.5 15.5t50.5 15.5zM176 276h188q-3 37 -27.5 62
t-63.5 25q-82 0 -97 -87zM261 772q19 0 37 -16l106 -101q22 -20 22 -38q0 -21 -14 -34t-33 -13q-20 0 -35 15l-83 80l-83 -80q-15 -15 -35 -15q-19 0 -33 13t-14 34q0 18 22 38l106 101q18 16 37 16z" />
    <glyph glyph-name="edieresis" unicode="&#xeb;" horiz-adv-x="525" 
d="M424 126q21 0 35 -15.5t14 -37.5q0 -38 -57 -61q-53 -22 -130 -22q-116 0 -181 67q-67 69 -67 177q0 102 65 169q64 64 169 64q103 0 163 -60q57 -58 57 -144q0 -35 -17 -54.5t-48 -19.5h-250q18 -94 118 -94q40 0 78.5 15.5t50.5 15.5zM176 276h188q-3 37 -27.5 62
t-63.5 25q-82 0 -97 -87zM145 584q-31 0 -53.5 22.5t-22.5 54.5q0 31 22.5 53.5t53.5 22.5q32 0 54 -22t22 -54t-22 -54.5t-54 -22.5zM377 584q-31 0 -53.5 22.5t-22.5 54.5q0 31 22.5 53.5t53.5 22.5t53.5 -22.5t22.5 -53.5q0 -32 -22.5 -54.5t-53.5 -22.5z" />
    <glyph glyph-name="igrave" unicode="&#xec;" horiz-adv-x="262" 
d="M65 403q0 26 19 45t47 19t47 -19t19 -45v-349q0 -26 -20 -45t-46 -19q-28 0 -47 19t-19 45v349zM213 605q0 -18 -13.5 -30t-31.5 -12q-25 0 -42 28l-61 100q-13 19 -13 34q0 20 15.5 34.5t36.5 14.5q31 0 47 -33l53 -105q9 -20 9 -31z" />
    <glyph glyph-name="iacute" unicode="&#xed;" horiz-adv-x="262" 
d="M65 403q0 26 19 45t47 19t47 -19t19 -45v-349q0 -26 -20 -45t-46 -19q-28 0 -47 19t-19 45v349zM51 605q0 15 9 31l53 105q16 33 47 33q21 0 36.5 -14.5t15.5 -34.5q0 -12 -13 -34l-61 -100q-18 -28 -43 -28q-18 0 -31 12t-13 30z" />
    <glyph glyph-name="icircumflex" unicode="&#xee;" horiz-adv-x="262" 
d="M65 403q0 26 19 45t47 19t47 -19t19 -45v-349q0 -26 -20 -45t-46 -19q-28 0 -47 19t-19 45v349zM132 772q19 0 37 -16l106 -101q22 -20 22 -38q0 -21 -14 -34t-33 -13q-20 0 -35 15l-83 80l-83 -80q-15 -15 -35 -15q-19 0 -33 13t-14 34q0 18 22 38l106 101q18 16 37 16z
" />
    <glyph glyph-name="idieresis" unicode="&#xef;" horiz-adv-x="262" 
d="M65 403q0 26 19 45t47 19t47 -19t19 -45v-349q0 -26 -20 -45t-46 -19q-28 0 -47 19t-19 45v349zM16 584q-31 0 -53.5 22.5t-22.5 54.5q0 31 22 53.5t54 22.5t54 -22t22 -54t-22 -54.5t-54 -22.5zM248 584q-31 0 -53.5 22.5t-22.5 54.5q0 31 22 53.5t54 22.5t54 -22.5
t22 -53.5q0 -32 -22.5 -54.5t-53.5 -22.5z" />
    <glyph glyph-name="eth" unicode="&#xf0;" horiz-adv-x="518" 
d="M481 226q0 -113 -63.5 -174.5t-159.5 -61.5q-88 0 -147 50q-73 60 -73 169q0 88 57 145q60 59 151 59q31 0 61 -14q-26 55 -81 108l-54 -42q-13 -10 -28 -10q-18 0 -31 13.5t-13 31.5q0 20 18 35l38 30q-23 21 -32 32q-11 12 -11 31q0 27 17.5 45.5t43.5 18.5
q20 0 44 -18q10 -7 39 -34l54 42q13 10 27 10q19 0 32 -13t13 -33q0 -21 -19 -35l-40 -30q157 -163 157 -355zM357 226q0 34 -6 65q-36 20 -85 20q-47 0 -78 -33q-28 -28 -28 -69q0 -52 29 -81q27 -27 69 -27q45 0 72 30.5t27 94.5z" />
    <glyph glyph-name="ntilde" unicode="&#xf1;" horiz-adv-x="577" 
d="M65 403q0 26 19 45t47 19q25 0 43 -15.5t22 -39.5q55 55 137 55q85 0 134 -45q53 -48 53 -144v-224q0 -26 -20 -45t-47 -19t-46.5 19t-19.5 45v191q0 61 -23 86q-20 23 -60 23q-54 0 -80.5 -41.5t-26.5 -97.5v-161q0 -26 -20 -45t-46 -19q-28 0 -47 19t-19 45v349z
M464 688q0 -31 -23 -58q-34 -37 -82 -37q-40 0 -79 27q-3 2 -15.5 10.5t-17 11t-14 6t-17.5 3.5q-18 0 -34.5 -25t-39.5 -25q-20 0 -30.5 13t-10.5 33q0 32 24 58q32 37 82 37q40 0 79 -27q4 -3 12.5 -9t13 -9t11.5 -7t13.5 -5.5t12.5 -1.5q18 0 35.5 25.5t39.5 25.5
q19 0 29.5 -13t10.5 -33z" />
    <glyph glyph-name="ograve" unicode="&#xf2;" horiz-adv-x="570" 
d="M168 228q0 -56 32 -91.5t85 -35.5t85 35.5t32 91.5t-32 91.5t-85 35.5t-85 -35.5t-32 -91.5zM38 228q0 109 70.5 174t176.5 65q107 0 177.5 -65t70.5 -174t-70.5 -173.5t-177.5 -64.5t-177 64.5t-70 173.5zM365 605q0 -18 -13.5 -30t-31.5 -12q-25 0 -42 28l-61 100
q-13 19 -13 34q0 20 15.5 34.5t36.5 14.5q31 0 47 -33l53 -105q9 -20 9 -31z" />
    <glyph glyph-name="oacute" unicode="&#xf3;" horiz-adv-x="570" 
d="M168 228q0 -56 32 -91.5t85 -35.5t85 35.5t32 91.5t-32 91.5t-85 35.5t-85 -35.5t-32 -91.5zM38 228q0 109 70.5 174t176.5 65q107 0 177.5 -65t70.5 -174t-70.5 -173.5t-177.5 -64.5t-177 64.5t-70 173.5zM204 605q0 15 9 31l53 105q16 33 47 33q21 0 36.5 -14.5
t15.5 -34.5q0 -12 -13 -34l-61 -100q-18 -28 -43 -28q-18 0 -31 12t-13 30z" />
    <glyph glyph-name="ocircumflex" unicode="&#xf4;" horiz-adv-x="570" 
d="M168 228q0 -56 32 -91.5t85 -35.5t85 35.5t32 91.5t-32 91.5t-85 35.5t-85 -35.5t-32 -91.5zM38 228q0 109 70.5 174t176.5 65q107 0 177.5 -65t70.5 -174t-70.5 -173.5t-177.5 -64.5t-177 64.5t-70 173.5zM285 772q19 0 37 -16l106 -101q22 -20 22 -38q0 -21 -14 -34
t-33 -13q-20 0 -35 15l-83 80l-83 -80q-15 -15 -35 -15q-19 0 -33 13t-14 34q0 18 22 38l106 101q18 16 37 16z" />
    <glyph glyph-name="otilde" unicode="&#xf5;" horiz-adv-x="570" 
d="M168 228q0 -56 32 -91.5t85 -35.5t85 35.5t32 91.5t-32 91.5t-85 35.5t-85 -35.5t-32 -91.5zM38 228q0 109 70.5 174t176.5 65q107 0 177.5 -65t70.5 -174t-70.5 -173.5t-177.5 -64.5t-177 64.5t-70 173.5zM465 688q0 -31 -23 -58q-34 -37 -82 -37q-40 0 -79 27
q-3 2 -15.5 10.5t-17 11t-14 6t-17.5 3.5q-18 0 -34.5 -25t-39.5 -25q-20 0 -30.5 13t-10.5 33q0 32 24 58q32 37 82 37q40 0 79 -27q4 -3 12.5 -9t13 -9t11.5 -7t13.5 -5.5t12.5 -1.5q18 0 35.5 25.5t39.5 25.5q19 0 29.5 -13t10.5 -33z" />
    <glyph glyph-name="odieresis" unicode="&#xf6;" horiz-adv-x="570" 
d="M168 228q0 -56 32 -91.5t85 -35.5t85 35.5t32 91.5t-32 91.5t-85 35.5t-85 -35.5t-32 -91.5zM38 228q0 109 70.5 174t176.5 65q107 0 177.5 -65t70.5 -174t-70.5 -173.5t-177.5 -64.5t-177 64.5t-70 173.5zM169 584q-31 0 -53.5 22.5t-22.5 54.5q0 31 22.5 53.5
t53.5 22.5q32 0 54 -22t22 -54t-22 -54.5t-54 -22.5zM401 584q-31 0 -53.5 22.5t-22.5 54.5q0 31 22.5 53.5t53.5 22.5t53.5 -22.5t22.5 -53.5q0 -32 -22.5 -54.5t-53.5 -22.5z" />
    <glyph glyph-name="divide" unicode="&#xf7;" horiz-adv-x="610" 
d="M305 654q32 0 55.5 -23t23.5 -56t-23.5 -56t-55.5 -23q-33 0 -56.5 23t-23.5 56t23.5 56t56.5 23zM575 353q0 -26 -17.5 -44.5t-42.5 -18.5h-420q-25 0 -42.5 18.5t-17.5 44.5q0 24 18 43t42 19h420q24 0 42 -19t18 -43zM225 130q0 34 23.5 57t56.5 23t56 -23t23 -57
q0 -33 -23 -56t-56 -23t-56.5 23t-23.5 56z" />
    <glyph glyph-name="oslash" unicode="&#xf8;" horiz-adv-x="573" 
d="M38 228q0 109 70.5 174t176.5 65q75 0 135 -34l20 23q9 11 24 11q14 0 23.5 -9.5t9.5 -23.5q0 -11 -8 -21l-18 -21q62 -64 62 -164q0 -109 -70.5 -173.5t-177.5 -64.5q-74 0 -132 32l-19 -22q-8 -10 -24 -10q-14 0 -23.5 9t-9.5 23q0 13 8 21l16 18q-63 65 -63 167z
M168 228q0 -38 16 -70l158 183q-26 14 -57 14q-53 0 -85 -35.5t-32 -91.5zM402 228q0 38 -15 66l-156 -181q23 -12 54 -12q53 0 85 35.5t32 91.5z" />
    <glyph glyph-name="ugrave" unicode="&#xf9;" horiz-adv-x="567" 
d="M57 198v205q0 26 19 45t47 19t47 -19t19 -45v-197q0 -37 13 -62q24 -42 82 -42q59 0 81 42q13 25 13 62v197q0 26 19 45t47 19t47 -19t19 -45v-205q0 -87 -40 -136q-58 -72 -186 -72q-130 0 -187 72q-40 52 -40 136zM364 605q0 -18 -13.5 -30t-31.5 -12q-25 0 -42 28
l-61 100q-13 19 -13 34q0 20 15.5 34.5t36.5 14.5q31 0 47 -33l53 -105q9 -20 9 -31z" />
    <glyph glyph-name="uacute" unicode="&#xfa;" horiz-adv-x="567" 
d="M57 198v205q0 26 19 45t47 19t47 -19t19 -45v-197q0 -37 13 -62q24 -42 82 -42q59 0 81 42q13 25 13 62v197q0 26 19 45t47 19t47 -19t19 -45v-205q0 -87 -40 -136q-58 -72 -186 -72q-130 0 -187 72q-40 52 -40 136zM203 605q0 15 9 31l53 105q16 33 47 33
q21 0 36.5 -14.5t15.5 -34.5q0 -12 -13 -34l-61 -100q-18 -28 -43 -28q-18 0 -31 12t-13 30z" />
    <glyph glyph-name="ucircumflex" unicode="&#xfb;" horiz-adv-x="567" 
d="M57 198v205q0 26 19 45t47 19t47 -19t19 -45v-197q0 -37 13 -62q24 -42 82 -42q59 0 81 42q13 25 13 62v197q0 26 19 45t47 19t47 -19t19 -45v-205q0 -87 -40 -136q-58 -72 -186 -72q-130 0 -187 72q-40 52 -40 136zM283 772q19 0 37 -16l106 -101q22 -20 22 -38
q0 -21 -14 -34t-33 -13q-20 0 -35 15l-83 80l-83 -80q-15 -15 -35 -15q-19 0 -33 13t-14 34q0 18 22 38l106 101q18 16 37 16z" />
    <glyph glyph-name="udieresis" unicode="&#xfc;" horiz-adv-x="567" 
d="M57 198v205q0 26 19 45t47 19t47 -19t19 -45v-197q0 -37 13 -62q24 -42 82 -42q59 0 81 42q13 25 13 62v197q0 26 19 45t47 19t47 -19t19 -45v-205q0 -87 -40 -136q-58 -72 -186 -72q-130 0 -187 72q-40 52 -40 136zM168 584q-31 0 -53.5 22.5t-22.5 54.5q0 31 22 53.5
t54 22.5t54 -22t22 -54t-22 -54.5t-54 -22.5zM400 584q-31 0 -53.5 22.5t-22.5 54.5q0 31 22 53.5t54 22.5t54 -22.5t22 -53.5q0 -32 -22.5 -54.5t-53.5 -22.5z" />
    <glyph glyph-name="yacute" unicode="&#xfd;" horiz-adv-x="503" 
d="M422 468q30 0 51 -21t21 -51q0 -13 -13 -49l-140 -372q-40 -106 -108.5 -157.5t-144.5 -51.5q-27 0 -45.5 18.5t-18.5 44.5t18.5 44.5t45.5 18.5q73 0 110 76l-173 378q-16 35 -16 48q0 31 21.5 52.5t51.5 21.5q50 0 70 -48l111 -280l87 267q19 61 72 61zM172 605
q0 15 9 31l53 105q16 33 47 33q21 0 36.5 -14.5t15.5 -34.5q0 -12 -13 -34l-61 -100q-18 -28 -43 -28q-18 0 -31 12t-13 30z" />
    <glyph glyph-name="thorn" unicode="&#xfe;" horiz-adv-x="548" 
d="M65 625q0 27 19.5 45.5t46.5 18.5q28 0 47 -18.5t19 -45.5v-161q20 3 44 3q135 0 207 -72q63 -63 63 -167q0 -103 -54 -162q-66 -76 -190 -76q-41 0 -70 8v-175q0 -26 -20 -45t-46 -19q-27 0 -46.5 19t-19.5 45v802zM197 356v-249q24 -9 56 -9q58 0 91 29q36 31 36 101
q0 59 -32 94q-33 38 -93 38q-24 0 -58 -4z" />
    <glyph glyph-name="ydieresis" unicode="&#xff;" horiz-adv-x="503" 
d="M422 468q30 0 51 -21t21 -51q0 -13 -13 -49l-140 -372q-40 -106 -108.5 -157.5t-144.5 -51.5q-27 0 -45.5 18.5t-18.5 44.5t18.5 44.5t45.5 18.5q73 0 110 76l-173 378q-16 35 -16 48q0 31 21.5 52.5t51.5 21.5q50 0 70 -48l111 -280l87 267q19 61 72 61zM137 584
q-31 0 -53.5 22.5t-22.5 54.5q0 31 22.5 53.5t53.5 22.5q32 0 54 -22t22 -54t-22 -54.5t-54 -22.5zM369 584q-31 0 -53.5 22.5t-22.5 54.5q0 31 22.5 53.5t53.5 22.5t53.5 -22.5t22.5 -53.5q0 -32 -22.5 -54.5t-53.5 -22.5z" />
    <glyph glyph-name="Amacron" unicode="&#x100;" horiz-adv-x="617" 
d="M309 510l-89 -256h176zM466 38l-35 100h-247l-35 -100q-16 -48 -71 -48q-31 0 -50 19.5t-19 46.5q0 14 8 32l192 528q26 75 101 75q76 0 102 -75l189 -528q7 -19 7 -32q0 -30 -20.5 -48t-52.5 -18q-55 0 -69 48zM452 870q0 -22 -15.5 -37.5t-37.5 -15.5h-182
q-22 0 -38 15.5t-16 37.5t15.5 38t38.5 16h182q22 0 37.5 -16t15.5 -38z" />
    <glyph glyph-name="amacron" unicode="&#x101;" horiz-adv-x="487" 
d="M34 131q0 42 21.5 71.5t62 45t82 23.5t98.5 12v8q0 36 -14 54q-16 20 -54 20q-28 0 -68 -15.5t-58 -15.5q-20 0 -34 14t-14 34q0 40 58 63q57 22 132 22q97 0 144 -52q40 -43 40 -121v-240q0 -26 -20 -45t-46 -19q-37 0 -55 28q-49 -28 -123 -28q-65 0 -108.5 38.5
t-43.5 102.5zM228 88q39 0 70 19v87q-138 -5 -138 -59q0 -23 19 -35t49 -12zM385 647q0 -22 -15.5 -37.5t-37.5 -15.5h-182q-22 0 -38 15.5t-16 37.5q0 23 16 38.5t38 15.5h182q22 0 37.5 -16t15.5 -38z" />
    <glyph glyph-name="Abreve" unicode="&#x102;" horiz-adv-x="617" 
d="M309 510l-89 -256h176zM466 38l-35 100h-247l-35 -100q-16 -48 -71 -48q-31 0 -50 19.5t-19 46.5q0 14 8 32l192 528q26 75 101 75q76 0 102 -75l189 -528q7 -19 7 -32q0 -30 -20.5 -48t-52.5 -18q-55 0 -69 48zM308 876q38 0 63 37q9 14 14.5 20.5t15.5 13.5t21 7
q20 0 34 -13.5t14 -32.5q0 -25 -40 -72q-50 -54 -122 -54t-122 54q-40 47 -40 72q0 19 14 32.5t34 13.5q11 0 21 -7t15.5 -13.5t14.5 -20.5q25 -37 63 -37z" />
    <glyph glyph-name="abreve" unicode="&#x103;" horiz-adv-x="487" 
d="M34 131q0 42 21.5 71.5t62 45t82 23.5t98.5 12v8q0 36 -14 54q-16 20 -54 20q-28 0 -68 -15.5t-58 -15.5q-20 0 -34 14t-14 34q0 40 58 63q57 22 132 22q97 0 144 -52q40 -43 40 -121v-240q0 -26 -20 -45t-46 -19q-37 0 -55 28q-49 -28 -123 -28q-65 0 -108.5 38.5
t-43.5 102.5zM228 88q39 0 70 19v87q-138 -5 -138 -59q0 -23 19 -35t49 -12zM243 665q22 0 38.5 12t24.5 27t21 27t30 12q20 0 34 -13.5t14 -32.5q0 -52 -50 -89t-112 -37t-112 37t-50 89q0 19 14 32.5t34 13.5q17 0 30 -12t21 -27t24.5 -27t38.5 -12z" />
    <glyph glyph-name="Aogonek" unicode="&#x104;" horiz-adv-x="617" 
d="M528 -210q-115 0 -115 95q2 28 22.5 60t58.5 55q-21 13 -28 38l-35 100h-247l-35 -100q-16 -48 -71 -48q-31 0 -50 19.5t-19 46.5q0 14 8 32l192 528q26 75 101 75q76 0 102 -75l189 -528q7 -19 7 -32q0 -49 -47 -62q-26 -17 -42.5 -40.5t-16.5 -45.5q0 -32 37 -32
q9 0 22.5 3.5t21.5 3.5q17 0 27.5 -9.5t10.5 -27.5q0 -31 -28 -43.5t-65 -12.5zM309 510l-89 -256h176z" />
    <glyph glyph-name="aogonek" unicode="&#x105;" horiz-adv-x="487" 
d="M356 -208q-115 0 -115 95q2 28 23 60t59 55q-6 4 -14 16q-49 -28 -123 -28q-65 0 -108.5 38.5t-43.5 102.5q0 42 21.5 71.5t62 45t82 23.5t98.5 12v8q0 36 -14 54q-16 20 -54 20q-28 0 -68 -15.5t-58 -15.5q-20 0 -34 14t-14 34q0 40 58 63q57 22 132 22q97 0 144 -52
q40 -43 40 -121v-240q0 -20 -12 -36t-31 -23q-26 -17 -41.5 -40t-15.5 -45q0 -32 37 -32q9 0 22.5 3.5t21.5 3.5q17 0 27.5 -9.5t10.5 -27.5q0 -31 -28 -43.5t-65 -12.5zM228 88q39 0 70 19v87q-138 -5 -138 -59q0 -23 19 -35t49 -12z" />
    <glyph glyph-name="Cacute" unicode="&#x106;" horiz-adv-x="654" 
d="M619 596q0 -29 -19.5 -48t-47.5 -19q-16 0 -57.5 16t-91.5 16q-88 0 -150 -63.5t-62 -156.5q0 -96 61 -158t151 -62q55 0 99.5 17t59.5 17q28 0 47.5 -19t19.5 -48q0 -46 -60 -70q-74 -28 -165 -28q-159 0 -261.5 96t-102.5 255q0 147 108.5 248t257.5 101q86 0 155 -25
q58 -22 58 -69zM287 805q0 15 9 31l53 105q16 33 47 33q21 0 36.5 -14.5t15.5 -34.5q0 -12 -13 -34l-61 -100q-18 -28 -43 -28q-18 0 -31 12t-13 30z" />
    <glyph glyph-name="cacute" unicode="&#x107;" horiz-adv-x="480" 
d="M455 382q0 -22 -15.5 -38t-37.5 -16q-16 0 -47.5 13t-58.5 13q-57 0 -92 -38q-32 -35 -32 -88q0 -55 33 -91t92 -36q32 0 63.5 12t43.5 12q22 0 37.5 -16t15.5 -39q0 -44 -69 -66q-41 -14 -95 -14q-127 0 -195 73q-60 63 -60 166q0 87 49 147q74 91 209 91q60 0 107 -22
q52 -24 52 -63zM199 605q0 15 9 31l53 105q16 33 47 33q21 0 36.5 -14.5t15.5 -34.5q0 -12 -13 -34l-61 -100q-18 -28 -43 -28q-18 0 -31 12t-13 30z" />
    <glyph glyph-name="Ccaron" unicode="&#x10c;" horiz-adv-x="654" 
d="M619 596q0 -29 -19.5 -48t-47.5 -19q-16 0 -57.5 16t-91.5 16q-88 0 -150 -63.5t-62 -156.5q0 -96 61 -158t151 -62q55 0 99.5 17t59.5 17q28 0 47.5 -19t19.5 -48q0 -46 -60 -70q-74 -28 -165 -28q-159 0 -261.5 96t-102.5 255q0 147 108.5 248t257.5 101q86 0 155 -25
q58 -22 58 -69zM382 770q-19 0 -37 16l-106 101q-22 20 -22 38q0 21 14 34t33 13q20 0 35 -15l83 -80l83 80q15 15 35 15q19 0 33 -13t14 -34q0 -18 -22 -38l-106 -101q-18 -16 -37 -16z" />
    <glyph glyph-name="ccaron" unicode="&#x10d;" horiz-adv-x="480" 
d="M455 382q0 -22 -15.5 -38t-37.5 -16q-16 0 -47.5 13t-58.5 13q-57 0 -92 -38q-32 -35 -32 -88q0 -55 33 -91t92 -36q32 0 63.5 12t43.5 12q22 0 37.5 -16t15.5 -39q0 -44 -69 -66q-41 -14 -95 -14q-127 0 -195 73q-60 63 -60 166q0 87 49 147q74 91 209 91q60 0 107 -22
q52 -24 52 -63zM266 570q-19 0 -37 16l-106 101q-22 20 -22 38q0 21 14 34t33 13q20 0 35 -15l83 -80l83 80q15 15 35 15q19 0 33 -13t14 -34q0 -18 -22 -38l-106 -101q-18 -16 -37 -16z" />
    <glyph glyph-name="Dcaron" unicode="&#x10e;" horiz-adv-x="742" 
d="M702 341q0 -160 -98 -251q-97 -90 -279 -90h-185q-31 0 -51.5 20.5t-20.5 49.5v541q0 29 20.5 49.5t51.5 20.5h199q182 0 280 -104q83 -88 83 -236zM212 560v-439h102q121 0 184 63q56 56 56 157q0 100 -52 155q-60 64 -184 64h-106zM367 770q-19 0 -37 16l-106 101
q-22 20 -22 38q0 21 14 34t33 13q20 0 35 -15l83 -80l83 80q15 15 35 15q19 0 33 -13t14 -34q0 -18 -22 -38l-106 -101q-18 -16 -37 -16z" />
    <glyph glyph-name="dcaron" unicode="&#x10f;" horiz-adv-x="752" 
d="M320 110h30v237q-28 7 -61 7q-59 0 -92 -44q-24 -33 -24 -82q0 -56 36 -87q39 -31 111 -31zM407 0h-101q-125 0 -197 60q-71 60 -71 166q0 96 50 160q67 82 193 82q36 0 69 -9v166q0 27 19 46t47 19t47 -19t19 -46v-554q0 -34 -21.5 -52.5t-53.5 -18.5zM567 430
q0 16 29 39t29 46q0 13 -9.5 23t-21 16t-21 21.5t-9.5 38.5q0 32 21 54t61 22q45 0 70.5 -30t25.5 -81q0 -73 -53.5 -123t-96.5 -50q-11 0 -18 7t-7 17z" />
    <glyph glyph-name="Dcroat" unicode="&#x110;" horiz-adv-x="752" 
d="M312 279h-90v-158h103q97 0 155 37q85 55 85 183q0 99 -52 154q-61 65 -185 65h-106v-157h90q24 0 41.5 -19t17.5 -43q0 -26 -17.5 -44t-41.5 -18zM78 70v209h-38q-26 0 -43.5 18t-17.5 44q0 24 18 43t43 19h38v208q0 29 21 49.5t51 20.5h199q88 0 156.5 -22.5
t124.5 -81.5q82 -89 82 -236q0 -161 -97 -251q-99 -90 -280 -90h-185q-30 0 -51 20.5t-21 49.5z" />
    <glyph glyph-name="dcroat" unicode="&#x111;" horiz-adv-x="547" 
d="M524 501h-42v-430q0 -34 -21.5 -52.5t-53.5 -18.5h-101q-125 0 -197 60q-71 60 -71 166q0 96 50 160q67 82 193 82q36 0 69 -9v42h-43q-24 0 -40.5 17t-16.5 41q0 23 16.5 40.5t40.5 17.5h43v8q0 27 19 46t47 19t47 -19t19 -46v-8h42q23 0 39.5 -17.5t16.5 -40.5
q0 -24 -16.5 -41t-39.5 -17zM320 110h30v237q-28 7 -61 7q-59 0 -92 -44q-24 -33 -24 -82q0 -56 36 -87q39 -31 111 -31z" />
    <glyph glyph-name="Emacron" unicode="&#x112;" horiz-adv-x="627" 
d="M212 279v-151h323q26 0 44 -19t18 -45t-18 -45t-44 -19h-395q-31 0 -51.5 20.5t-20.5 49.5v541q0 29 20.5 49.5t51.5 20.5h395q26 0 44 -19t18 -45t-18 -45t-44 -19h-323v-147h271q25 0 43 -19t18 -45t-18 -44.5t-43 -18.5h-271zM456 870q0 -22 -15.5 -37.5t-37.5 -15.5
h-182q-22 0 -38 15.5t-16 37.5t15.5 38t38.5 16h182q22 0 37.5 -16t15.5 -38z" />
    <glyph glyph-name="emacron" unicode="&#x113;" horiz-adv-x="525" 
d="M424 126q21 0 35 -15.5t14 -37.5q0 -38 -57 -61q-53 -22 -130 -22q-116 0 -181 67q-67 69 -67 177q0 102 65 169q64 64 169 64q103 0 163 -60q57 -58 57 -144q0 -35 -17 -54.5t-48 -19.5h-250q18 -94 118 -94q40 0 78.5 15.5t50.5 15.5zM176 276h188q-3 37 -27.5 62
t-63.5 25q-82 0 -97 -87zM405 647q0 -22 -15.5 -37.5t-37.5 -15.5h-182q-22 0 -38 15.5t-16 37.5q0 23 16 38.5t38 15.5h182q22 0 37.5 -16t15.5 -38z" />
    <glyph glyph-name="Edotaccent" unicode="&#x116;" horiz-adv-x="627" 
d="M212 279v-151h323q26 0 44 -19t18 -45t-18 -45t-44 -19h-395q-31 0 -51.5 20.5t-20.5 49.5v541q0 29 20.5 49.5t51.5 20.5h395q26 0 44 -19t18 -45t-18 -45t-44 -19h-323v-147h271q25 0 43 -19t18 -45t-18 -44.5t-43 -18.5h-271zM330 790q-32 0 -54 22t-22 54t22 54
t54 22t54 -22t22 -54t-22 -54t-54 -22z" />
    <glyph glyph-name="edotaccent" unicode="&#x117;" horiz-adv-x="525" 
d="M424 126q21 0 35 -15.5t14 -37.5q0 -38 -57 -61q-53 -22 -130 -22q-116 0 -181 67q-67 69 -67 177q0 102 65 169q64 64 169 64q103 0 163 -60q57 -58 57 -144q0 -35 -17 -54.5t-48 -19.5h-250q18 -94 118 -94q40 0 78.5 15.5t50.5 15.5zM176 276h188q-3 37 -27.5 62
t-63.5 25q-82 0 -97 -87zM261 585q-31 0 -53.5 22.5t-22.5 53.5t22.5 53.5t53.5 22.5t53.5 -22.5t22.5 -53.5t-22.5 -53.5t-53.5 -22.5z" />
    <glyph glyph-name="Eogonek" unicode="&#x118;" horiz-adv-x="627" 
d="M434 -209q-115 0 -115 95q2 28 22.5 59.5t57.5 54.5h-259q-31 0 -51.5 20.5t-20.5 49.5v541q0 29 20.5 49.5t51.5 20.5h395q26 0 44 -19t18 -45t-18 -45t-44 -19h-323v-147h271q25 0 43 -19t18 -45t-18 -44.5t-43 -18.5h-271v-151h323q26 0 44 -19t18 -45t-18 -45
t-44 -19h-58q-30 -16 -49.5 -41.5t-19.5 -49.5q0 -32 37 -32q9 0 22.5 3.5t21.5 3.5q17 0 27.5 -9.5t10.5 -27.5q0 -31 -28 -43.5t-65 -12.5z" />
    <glyph glyph-name="eogonek" unicode="&#x119;" horiz-adv-x="525" 
d="M385 -192q-115 0 -115 95q2 45 46 88q-5 0 -15 -0.5t-15 -0.5q-116 0 -181 67q-67 69 -67 177q0 102 65 169q64 64 169 64q103 0 163 -60q57 -58 57 -144q0 -35 -17 -54.5t-48 -19.5h-250q18 -94 118 -94q40 0 78.5 15.5t50.5 15.5q21 0 35 -15.5t14 -37.5q0 -35 -45 -56
q-30 -16 -49.5 -41.5t-19.5 -49.5q0 -32 37 -32q9 0 22.5 3.5t21.5 3.5q17 0 27.5 -9.5t10.5 -27.5q0 -31 -28 -43.5t-65 -12.5zM176 276h188q-3 37 -27.5 62t-63.5 25q-82 0 -97 -87z" />
    <glyph glyph-name="Ecaron" unicode="&#x11a;" horiz-adv-x="627" 
d="M212 279v-151h323q26 0 44 -19t18 -45t-18 -45t-44 -19h-395q-31 0 -51.5 20.5t-20.5 49.5v541q0 29 20.5 49.5t51.5 20.5h395q26 0 44 -19t18 -45t-18 -45t-44 -19h-323v-147h271q25 0 43 -19t18 -45t-18 -44.5t-43 -18.5h-271zM330 770q-19 0 -37 16l-106 101
q-22 20 -22 38q0 21 14 34t33 13q20 0 35 -15l83 -80l83 80q15 15 35 15q19 0 33 -13t14 -34q0 -18 -22 -38l-106 -101q-18 -16 -37 -16z" />
    <glyph glyph-name="ecaron" unicode="&#x11b;" horiz-adv-x="525" 
d="M424 126q21 0 35 -15.5t14 -37.5q0 -38 -57 -61q-53 -22 -130 -22q-116 0 -181 67q-67 69 -67 177q0 102 65 169q64 64 169 64q103 0 163 -60q57 -58 57 -144q0 -35 -17 -54.5t-48 -19.5h-250q18 -94 118 -94q40 0 78.5 15.5t50.5 15.5zM176 276h188q-3 37 -27.5 62
t-63.5 25q-82 0 -97 -87zM267 570q-19 0 -37 16l-106 101q-22 20 -22 38q0 21 14 34t33 13q20 0 35 -15l83 -80l83 80q15 15 35 15q19 0 33 -13t14 -34q0 -18 -22 -38l-106 -101q-18 -16 -37 -16z" />
    <glyph glyph-name="Gbreve" unicode="&#x11e;" horiz-adv-x="750" 
d="M444 368h175q31 0 48 -19.5t17 -50.5v-238q0 -30 -19.5 -50t-51.5 -20q-44 0 -62 34q-72 -34 -158 -34q-157 0 -255 92.5t-98 258.5q0 147 106.5 248t258.5 101q89 0 156 -24q58 -19 58 -70q0 -29 -19.5 -48t-47.5 -19q-18 0 -61 15.5t-89 15.5q-89 0 -150.5 -63.5
t-61.5 -155.5q0 -98 59 -160.5t153 -62.5q76 0 140 31v91h-98q-25 0 -43.5 19t-18.5 45t18.5 45t43.5 19zM373 876q22 0 38.5 12t24.5 27t21 27t30 12q20 0 34 -13.5t14 -32.5q0 -52 -50 -89t-112 -37t-112 37t-50 89q0 19 14 32.5t34 13.5q17 0 30 -12t21 -27t24.5 -27
t38.5 -12z" />
    <glyph glyph-name="gbreve" unicode="&#x11f;" horiz-adv-x="564" 
d="M76 -142q0 24 16 41.5t40 17.5q18 0 59 -22t80 -22q96 0 96 89v57q-45 -27 -110 -27q-92 0 -152 58q-67 65 -67 180q0 107 62 175q59 62 156 62q58 0 118 -35q19 35 59 35q28 0 47 -19t19 -45v-418q0 -117 -67 -174q-58 -49 -159 -49q-69 0 -125 21q-72 26 -72 75z
M272 101q52 0 95 29v189q-48 35 -92 35q-46 0 -72 -29q-31 -37 -31 -97q0 -65 30 -98q27 -29 70 -29zM281 665q22 0 38.5 12t24.5 27t21 27t30 12q20 0 34 -13.5t14 -32.5q0 -52 -50 -89t-112 -37t-112 37t-50 89q0 19 14 32.5t34 13.5q17 0 30 -12t21 -27t24.5 -27
t38.5 -12z" />
    <glyph glyph-name="Gcommaaccent" unicode="&#x122;" horiz-adv-x="750" 
d="M444 368h175q31 0 48 -19.5t17 -50.5v-238q0 -30 -19.5 -50t-51.5 -20q-44 0 -62 34q-72 -34 -158 -34q-157 0 -255 92.5t-98 258.5q0 147 106.5 248t258.5 101q89 0 156 -24q58 -19 58 -70q0 -29 -19.5 -48t-47.5 -19q-18 0 -61 15.5t-89 15.5q-89 0 -150.5 -63.5
t-61.5 -155.5q0 -98 59 -160.5t153 -62.5q76 0 140 31v91h-98q-25 0 -43.5 19t-18.5 45t18.5 45t43.5 19zM314 -318q0 16 29 39t29 46q0 13 -9.5 23t-21 16t-21 21.5t-9.5 38.5q0 32 21 54t61 22q45 0 70.5 -30t25.5 -81q0 -73 -53.5 -123t-96.5 -50q-11 0 -18 7t-7 17z" />
    <glyph glyph-name="gcommaaccent" unicode="&#x123;" horiz-adv-x="564" 
d="M366 817q0 -15 -29 -38.5t-29 -46.5q0 -13 9.5 -22.5t21.5 -15.5t21.5 -21.5t9.5 -38.5q0 -32 -21 -54t-61 -22q-45 0 -70.5 30t-25.5 81q0 72 53.5 122t95.5 50q11 0 18 -6.5t7 -17.5zM76 -142q0 24 16 41.5t40 17.5q18 0 59 -22t80 -22q96 0 96 89v57q-45 -27 -110 -27
q-92 0 -152 58q-67 65 -67 180q0 107 62 175q59 62 156 62q58 0 118 -35q19 35 59 35q28 0 47 -19t19 -45v-418q0 -117 -67 -174q-58 -49 -159 -49q-69 0 -125 21q-72 26 -72 75zM272 101q52 0 95 29v189q-48 35 -92 35q-46 0 -72 -29q-31 -37 -31 -97q0 -65 30 -98
q27 -29 70 -29z" />
    <glyph glyph-name="Imacron" unicode="&#x12a;" horiz-adv-x="279" 
d="M68 60v560q0 29 21 49.5t51 20.5t51 -20.5t21 -49.5v-560q0 -29 -21.5 -49.5t-50.5 -20.5q-30 0 -51 20.5t-21 49.5zM285 870q0 -22 -15.5 -37.5t-37.5 -15.5h-182q-22 0 -38 15.5t-16 37.5t16 38t38 16h182q22 0 37.5 -16t15.5 -38z" />
    <glyph glyph-name="imacron" unicode="&#x12b;" horiz-adv-x="262" 
d="M65 403q0 26 19 45t47 19t47 -19t19 -45v-349q0 -26 -20 -45t-46 -19q-28 0 -47 19t-19 45v349zM275 647q0 -22 -15.5 -37.5t-37.5 -15.5h-182q-22 0 -37.5 15.5t-15.5 37.5t15.5 38t37.5 16h182q22 0 37.5 -15.5t15.5 -38.5z" />
    <glyph glyph-name="Iogonek" unicode="&#x12e;" horiz-adv-x="279" 
d="M127 -211q-115 0 -115 95q2 30 24 62.5t63 55.5q-31 21 -31 58v560q0 29 21 49.5t51 20.5t51 -20.5t21 -49.5v-560q0 -23 -14.5 -41.5t-36.5 -25.5q-27 -16 -43.5 -39.5t-16.5 -46.5q0 -32 37 -32q9 0 22.5 3.5t21.5 3.5q17 0 27.5 -9.5t10.5 -27.5q0 -31 -28 -43.5
t-65 -12.5z" />
    <glyph glyph-name="iogonek" unicode="&#x12f;" horiz-adv-x="262" 
d="M124 -208q-115 0 -115 95q2 29 23 60.5t60 54.5q-27 19 -27 52v349q0 26 19 45t47 19t47 -19t19 -45v-349q0 -42 -40 -58q-26 -17 -42.5 -40.5t-16.5 -45.5q0 -32 37 -32q9 0 22.5 3.5t21.5 3.5q17 0 27.5 -9.5t10.5 -27.5q0 -31 -28 -43.5t-65 -12.5zM131 584
q-31 0 -53.5 22t-22.5 54t22.5 54t53.5 22t53.5 -22t22.5 -54t-22.5 -54t-53.5 -22z" />
    <glyph glyph-name="Idotaccent" unicode="&#x130;" horiz-adv-x="279" 
d="M68 60v560q0 29 21 49.5t51 20.5t51 -20.5t21 -49.5v-560q0 -29 -21.5 -49.5t-50.5 -20.5q-30 0 -51 20.5t-21 49.5zM140 790q-32 0 -54 22t-22 54t22 54t54 22t54 -22t22 -54t-22 -54t-54 -22z" />
    <glyph glyph-name="dotlessi" unicode="&#x131;" horiz-adv-x="262" 
d="M65 403q0 26 19 45t47 19t47 -19t19 -45v-349q0 -26 -20 -45t-46 -19q-28 0 -47 19t-19 45v349z" />
    <glyph glyph-name="Kcommaaccent" unicode="&#x136;" horiz-adv-x="618" 
d="M556 576l-187 -190l215 -285q12 -16 12 -38q0 -28 -21.5 -50.5t-51.5 -22.5q-35 0 -59 32l-192 263l-60 -61v-164q0 -29 -21.5 -49.5t-50.5 -20.5q-30 0 -51 20.5t-21 49.5v560q0 29 21 49.5t51 20.5t51 -20.5t21 -49.5v-211l242 259q20 22 50 22q27 0 48 -20.5t21 -49.5
q0 -27 -17 -44zM240 -318q0 16 29 39t29 46q0 13 -9.5 23t-21 16t-21 21.5t-9.5 38.5q0 32 21 54t61 22q45 0 70.5 -30t25.5 -81q0 -73 -53.5 -123t-96.5 -50q-11 0 -18 7t-7 17z" />
    <glyph glyph-name="kcommaaccent" unicode="&#x137;" horiz-adv-x="502" 
d="M457 364l-113 -101l130 -170q14 -19 14 -39q0 -26 -20 -45t-46 -19q-32 0 -52 28l-118 163l-55 -48v-79q0 -26 -20 -45t-46 -19q-28 0 -47 19t-19 45v570q0 27 19 46t47 19t47 -19t19 -46v-340l175 167q17 16 41 16q27 0 44 -18.5t17 -42.5q0 -27 -17 -42zM190 -318
q0 16 29 39t29 46q0 13 -9.5 23t-21 16t-21 21.5t-9.5 38.5q0 32 21 54t61 22q45 0 70.5 -30t25.5 -81q0 -73 -53.5 -123t-96.5 -50q-11 0 -18 7t-7 17z" />
    <glyph glyph-name="Lacute" unicode="&#x139;" horiz-adv-x="542" 
d="M68 70v550q0 29 20.5 49.5t51.5 20.5q30 0 51 -20.5t21 -49.5v-492h252q26 0 44 -19t18 -45t-18 -45t-44 -19h-324q-31 0 -51.5 20.5t-20.5 49.5zM82 805q0 15 9 31l53 105q16 33 47 33q21 0 36.5 -14.5t15.5 -34.5q0 -12 -13 -34l-61 -100q-18 -28 -43 -28q-18 0 -31 12
t-13 30z" />
    <glyph glyph-name="lacute" unicode="&#x13a;" horiz-adv-x="264" 
d="M65 54v571q0 27 19.5 45.5t46.5 18.5q28 0 47 -18.5t19 -45.5v-571q0 -26 -19.5 -45t-46.5 -19t-46.5 19t-19.5 45zM52 805q0 15 9 31l53 105q16 33 47 33q21 0 36.5 -14.5t15.5 -34.5q0 -12 -13 -34l-61 -100q-18 -28 -43 -28q-18 0 -31 12t-13 30z" />
    <glyph glyph-name="Lcommaaccent" unicode="&#x13b;" horiz-adv-x="542" 
d="M68 70v550q0 29 20.5 49.5t51.5 20.5q30 0 51 -20.5t21 -49.5v-492h252q26 0 44 -19t18 -45t-18 -45t-44 -19h-324q-31 0 -51.5 20.5t-20.5 49.5zM208 -318q0 16 29 39t29 46q0 13 -9.5 23t-21 16t-21 21.5t-9.5 38.5q0 32 21 54t61 22q45 0 70.5 -30t25.5 -81
q0 -73 -53.5 -123t-96.5 -50q-11 0 -18 7t-7 17z" />
    <glyph glyph-name="lcommaaccent" unicode="&#x13c;" horiz-adv-x="264" 
d="M65 54v571q0 27 19.5 45.5t46.5 18.5q28 0 47 -18.5t19 -45.5v-571q0 -26 -19.5 -45t-46.5 -19t-46.5 19t-19.5 45zM47 -318q0 16 29 39t29 46q0 13 -9.5 23t-21 16t-21 21.5t-9.5 38.5q0 32 21 54t61 22q45 0 70.5 -30t25.5 -81q0 -73 -53.5 -123t-96.5 -50q-11 0 -18 7
t-7 17z" />
    <glyph glyph-name="Lcaron" unicode="&#x13d;" horiz-adv-x="542" 
d="M68 70v550q0 29 20.5 49.5t51.5 20.5q30 0 51 -20.5t21 -49.5v-492h252q26 0 44 -19t18 -45t-18 -45t-44 -19h-324q-31 0 -51.5 20.5t-20.5 49.5zM305 430q0 16 29 39t29 46q0 13 -9.5 23t-21 16t-21 21.5t-9.5 38.5q0 32 21 54t61 22q45 0 70.5 -30t25.5 -81
q0 -73 -53.5 -123t-96.5 -50q-11 0 -18 7t-7 17z" />
    <glyph glyph-name="lcaron" unicode="&#x13e;" horiz-adv-x="441" 
d="M65 54v571q0 27 19.5 45.5t46.5 18.5q28 0 47 -18.5t19 -45.5v-571q0 -26 -19.5 -45t-46.5 -19t-46.5 19t-19.5 45zM257 430q0 16 29 39t29 46q0 13 -9.5 23t-21 16t-21 21.5t-9.5 38.5q0 32 21 54t61 22q45 0 70.5 -30t25.5 -81q0 -73 -53.5 -123t-96.5 -50q-11 0 -18 7
t-7 17z" />
    <glyph glyph-name="Lslash" unicode="&#x141;" horiz-adv-x="554" 
d="M78 70v148l-24 -15q-17 -10 -32 -10q-24 0 -40 16.5t-16 40.5q0 31 26 48l86 56v267q0 29 21 49.5t51 20.5q31 0 51.5 -20.5t20.5 -49.5v-175l50 32q14 10 31 10q25 0 41 -16.5t16 -40.5q0 -31 -26 -48l-112 -72v-186h253q26 0 44 -18.5t18 -43.5q0 -26 -18 -44.5
t-44 -18.5h-325q-30 0 -51 20.5t-21 49.5z" />
    <glyph glyph-name="lslash" unicode="&#x142;" horiz-adv-x="264" 
d="M-29 293l99 63v269q0 27 19.5 45.5t46.5 18.5q28 0 47 -18.5t19 -45.5v-184l55 35q19 13 42.5 8.5t36.5 -24.5t8 -42.5t-25 -35.5l-117 -76v-252q0 -26 -19.5 -45t-46.5 -19t-46.5 19t-19.5 45v167l-36 -23q-20 -13 -42.5 -8t-34.5 24q-13 20 -9 43.5t23 35.5z" />
    <glyph glyph-name="Nacute" unicode="&#x143;" horiz-adv-x="743" 
d="M675 624v-556q0 -33 -24 -55.5t-59 -22.5q-44 0 -70 36l-317 415v-386q0 -27 -20 -46t-49 -19q-28 0 -48 19t-20 46v557q0 32 24 55t58 23q43 0 70 -37l317 -414v385q0 27 20.5 46.5t48.5 19.5t48.5 -19.5t20.5 -46.5zM290 805q0 15 9 31l53 105q16 33 47 33
q21 0 36.5 -14.5t15.5 -34.5q0 -12 -13 -34l-61 -100q-18 -28 -43 -28q-18 0 -31 12t-13 30z" />
    <glyph glyph-name="nacute" unicode="&#x144;" horiz-adv-x="577" 
d="M65 403q0 26 19 45t47 19q25 0 43 -15.5t22 -39.5q55 55 137 55q85 0 134 -45q53 -48 53 -144v-224q0 -26 -20 -45t-47 -19t-46.5 19t-19.5 45v191q0 61 -23 86q-20 23 -60 23q-54 0 -80.5 -41.5t-26.5 -97.5v-161q0 -26 -20 -45t-46 -19q-28 0 -47 19t-19 45v349z
M212 605q0 15 9 31l53 105q16 33 47 33q21 0 36.5 -14.5t15.5 -34.5q0 -12 -13 -34l-61 -100q-18 -28 -43 -28q-18 0 -31 12t-13 30z" />
    <glyph glyph-name="Ncommaaccent" unicode="&#x145;" horiz-adv-x="743" 
d="M675 624v-556q0 -33 -24 -55.5t-59 -22.5q-44 0 -70 36l-317 415v-386q0 -27 -20 -46t-49 -19q-28 0 -48 19t-20 46v557q0 32 24 55t58 23q43 0 70 -37l317 -414v385q0 27 20.5 46.5t48.5 19.5t48.5 -19.5t20.5 -46.5zM286 -318q0 16 29 39t29 46q0 13 -9.5 23t-21 16
t-21 21.5t-9.5 38.5q0 32 21 54t61 22q45 0 70.5 -30t25.5 -81q0 -73 -53.5 -123t-96.5 -50q-11 0 -18 7t-7 17z" />
    <glyph glyph-name="ncommaaccent" unicode="&#x146;" horiz-adv-x="577" 
d="M65 403q0 26 19 45t47 19q25 0 43 -15.5t22 -39.5q55 55 137 55q85 0 134 -45q53 -48 53 -144v-224q0 -26 -20 -45t-47 -19t-46.5 19t-19.5 45v191q0 61 -23 86q-20 23 -60 23q-54 0 -80.5 -41.5t-26.5 -97.5v-161q0 -26 -20 -45t-46 -19q-28 0 -47 19t-19 45v349z
M201 -318q0 16 29 39t29 46q0 13 -9.5 23t-21 16t-21 21.5t-9.5 38.5q0 32 21 54t61 22q45 0 70.5 -30t25.5 -81q0 -73 -53.5 -123t-96.5 -50q-11 0 -18 7t-7 17z" />
    <glyph glyph-name="Ncaron" unicode="&#x147;" horiz-adv-x="743" 
d="M675 624v-556q0 -33 -24 -55.5t-59 -22.5q-44 0 -70 36l-317 415v-386q0 -27 -20 -46t-49 -19q-28 0 -48 19t-20 46v557q0 32 24 55t58 23q43 0 70 -37l317 -414v385q0 27 20.5 46.5t48.5 19.5t48.5 -19.5t20.5 -46.5zM372 770q-19 0 -37 16l-106 101q-22 20 -22 38
q0 21 14 34t33 13q20 0 35 -15l83 -80l83 80q15 15 35 15q19 0 33 -13t14 -34q0 -18 -22 -38l-106 -101q-18 -16 -37 -16z" />
    <glyph glyph-name="ncaron" unicode="&#x148;" horiz-adv-x="577" 
d="M65 403q0 26 19 45t47 19q25 0 43 -15.5t22 -39.5q55 55 137 55q85 0 134 -45q53 -48 53 -144v-224q0 -26 -20 -45t-47 -19t-46.5 19t-19.5 45v191q0 61 -23 86q-20 23 -60 23q-54 0 -80.5 -41.5t-26.5 -97.5v-161q0 -26 -20 -45t-46 -19q-28 0 -47 19t-19 45v349z
M290 570q-19 0 -37 16l-106 101q-22 20 -22 38q0 21 14 34t33 13q20 0 35 -15l83 -80l83 80q15 15 35 15q19 0 33 -13t14 -34q0 -18 -22 -38l-106 -101q-18 -16 -37 -16z" />
    <glyph glyph-name="Omacron" unicode="&#x14c;" horiz-adv-x="809" 
d="M769 339q0 -155 -104 -252t-260 -97t-260.5 97t-104.5 252q0 156 104.5 253.5t260.5 97.5q155 0 259.5 -98t104.5 -253zM616 339q0 92 -60 154t-151 62t-151.5 -62t-60.5 -154t60.5 -153.5t151.5 -61.5t151 61.5t60 153.5zM550 870q0 -22 -15.5 -37.5t-37.5 -15.5h-182
q-22 0 -38 15.5t-16 37.5t15.5 38t38.5 16h182q22 0 37.5 -16t15.5 -38z" />
    <glyph glyph-name="omacron" unicode="&#x14d;" horiz-adv-x="570" 
d="M430 647q0 -22 -15.5 -37.5t-37.5 -15.5h-183q-22 0 -37.5 15.5t-15.5 37.5t15.5 38t37.5 16h183q22 0 37.5 -16t15.5 -38zM168 228q0 -56 32 -91.5t85 -35.5t85 35.5t32 91.5t-32 91.5t-85 35.5t-85 -35.5t-32 -91.5zM38 228q0 109 70.5 174t176.5 65q107 0 177.5 -65
t70.5 -174t-70.5 -173.5t-177.5 -64.5t-177 64.5t-70 173.5z" />
    <glyph glyph-name="Ohungarumlaut" unicode="&#x150;" horiz-adv-x="809" 
d="M769 339q0 -155 -104 -252t-260 -97t-260.5 97t-104.5 252q0 156 104.5 253.5t260.5 97.5q155 0 259.5 -98t104.5 -253zM616 339q0 92 -60 154t-151 62t-151.5 -62t-60.5 -154t60.5 -153.5t151.5 -61.5t151 61.5t60 153.5zM221 804q0 11 9 31l53 105q16 33 47 33
q21 0 36.5 -14.5t15.5 -34.5q0 -15 -13 -34l-61 -100q-18 -28 -42 -28q-18 0 -31.5 12t-13.5 30zM427 804q0 14 9 31l53 105q16 33 47 33q21 0 36.5 -14.5t15.5 -34.5q0 -12 -13 -34l-61 -100q-18 -28 -43 -28q-18 0 -31 12t-13 30z" />
    <glyph glyph-name="ohungarumlaut" unicode="&#x151;" horiz-adv-x="570" 
d="M168 228q0 -56 32 -91.5t85 -35.5t85 35.5t32 91.5t-32 91.5t-85 35.5t-85 -35.5t-32 -91.5zM38 228q0 109 70.5 174t176.5 65q107 0 177.5 -65t70.5 -174t-70.5 -173.5t-177.5 -64.5t-177 64.5t-70 173.5zM102 605q0 11 9 31l53 105q16 33 47 33q21 0 36.5 -14.5
t15.5 -34.5q0 -15 -13 -34l-61 -100q-18 -28 -42 -28q-18 0 -31.5 12t-13.5 30zM308 605q0 15 9 31l53 105q16 33 47 33q21 0 36.5 -14.5t15.5 -34.5q0 -12 -13 -34l-61 -100q-18 -28 -43 -28q-18 0 -31 12t-13 30z" />
    <glyph glyph-name="OE" unicode="&#x152;" horiz-adv-x="1180" 
d="M1035 279h-271v-151h323q26 0 44.5 -19.5t18.5 -44.5q0 -26 -18.5 -45t-44.5 -19h-395q-25 0 -45 15t-25 38q-92 -63 -217 -63q-156 0 -260.5 97t-104.5 252q0 156 104.5 253.5t260.5 97.5q123 0 217 -63q5 24 24.5 39t45.5 15h395q26 0 44.5 -19t18.5 -45t-18.5 -45
t-44.5 -19h-323v-147h271q25 0 43.5 -19t18.5 -45t-18 -44.5t-44 -18.5zM616 339q0 95 -59.5 155.5t-151.5 60.5q-91 0 -151.5 -62t-60.5 -154t60.5 -153.5t151.5 -61.5q92 0 151.5 60t59.5 155z" />
    <glyph glyph-name="oe" unicode="&#x153;" horiz-adv-x="890" 
d="M789 126q21 0 35 -15.5t14 -37.5q0 -38 -57 -61q-53 -22 -130 -22q-115 0 -184 69q-69 -69 -182 -69q-107 0 -177 64.5t-70 173.5t70.5 174t176.5 65q110 0 180 -68q63 68 172 68q103 0 163 -60q57 -58 57 -144q0 -35 -17 -54.5t-48 -19.5h-250q18 -94 118 -94
q40 0 78.5 15.5t50.5 15.5zM168 228q0 -56 32 -91.5t85 -35.5t85 35.5t32 91.5t-32 91.5t-85 35.5t-85 -35.5t-32 -91.5zM541 276h188q-3 37 -27.5 62t-63.5 25q-82 0 -97 -87z" />
    <glyph glyph-name="Racute" unicode="&#x154;" horiz-adv-x="674" 
d="M212 237v-177q0 -29 -21.5 -49.5t-50.5 -20.5q-31 0 -51.5 20.5t-20.5 49.5v551q0 29 20.5 49.5t51.5 20.5h235q110 0 172 -46q79 -58 79 -175q0 -101 -76 -167q-22 -18 -48 -31l112 -161q12 -17 12 -38q0 -31 -21 -52t-51 -21q-38 0 -61 34l-141 213h-140zM364 559h-152
v-201h150q50 0 77 17q41 26 41 83q0 56 -38 82q-30 19 -78 19zM251 805q0 15 9 31l53 105q16 33 47 33q21 0 36.5 -14.5t15.5 -34.5q0 -12 -13 -34l-61 -100q-18 -28 -43 -28q-18 0 -31 12t-13 30z" />
    <glyph glyph-name="racute" unicode="&#x155;" horiz-adv-x="426" 
d="M308 467q47 0 81 -19q39 -22 39 -60q0 -26 -16 -43.5t-41 -17.5q-15 0 -40 12t-47 12q-87 0 -87 -126v-171q0 -26 -20 -45t-46 -19q-28 0 -47 19t-19 45v349q0 26 19 45t47 19q24 0 41.5 -15t22.5 -37q43 52 113 52zM162 605q0 15 9 31l53 105q16 33 47 33
q21 0 36.5 -14.5t15.5 -34.5q0 -12 -13 -34l-61 -100q-18 -28 -43 -28q-18 0 -31 12t-13 30z" />
    <glyph glyph-name="Rcommaaccent" unicode="&#x156;" horiz-adv-x="674" 
d="M212 237v-177q0 -29 -21.5 -49.5t-50.5 -20.5q-31 0 -51.5 20.5t-20.5 49.5v551q0 29 20.5 49.5t51.5 20.5h235q110 0 172 -46q79 -58 79 -175q0 -101 -76 -167q-22 -18 -48 -31l112 -161q12 -17 12 -38q0 -31 -21 -52t-51 -21q-38 0 -61 34l-141 213h-140zM364 559h-152
v-201h150q50 0 77 17q41 26 41 83q0 56 -38 82q-30 19 -78 19zM258 -318q0 16 29 39t29 46q0 13 -9.5 23t-21 16t-21 21.5t-9.5 38.5q0 32 21 54t61 22q45 0 70.5 -30t25.5 -81q0 -73 -53.5 -123t-96.5 -50q-11 0 -18 7t-7 17z" />
    <glyph glyph-name="rcommaaccent" unicode="&#x157;" horiz-adv-x="426" 
d="M308 467q47 0 81 -19q39 -22 39 -60q0 -26 -16 -43.5t-41 -17.5q-15 0 -40 12t-47 12q-87 0 -87 -126v-171q0 -26 -20 -45t-46 -19q-28 0 -47 19t-19 45v349q0 26 19 45t47 19q24 0 41.5 -15t22.5 -37q43 52 113 52zM83 -318q0 16 29 39t29 46q0 13 -9.5 23t-21 16
t-21 21.5t-9.5 38.5q0 32 21 54t61 22q45 0 70.5 -30t25.5 -81q0 -73 -53.5 -123t-96.5 -50q-11 0 -18 7t-7 17z" />
    <glyph glyph-name="Rcaron" unicode="&#x158;" horiz-adv-x="674" 
d="M212 237v-177q0 -29 -21.5 -49.5t-50.5 -20.5q-31 0 -51.5 20.5t-20.5 49.5v551q0 29 20.5 49.5t51.5 20.5h235q110 0 172 -46q79 -58 79 -175q0 -101 -76 -167q-22 -18 -48 -31l112 -161q12 -17 12 -38q0 -31 -21 -52t-51 -21q-38 0 -61 34l-141 213h-140zM364 559h-152
v-201h150q50 0 77 17q41 26 41 83q0 56 -38 82q-30 19 -78 19zM331 770q-19 0 -37 16l-106 101q-22 20 -22 38q0 21 14 34t33 13q20 0 35 -15l83 -80l83 80q15 15 35 15q19 0 33 -13t14 -34q0 -18 -22 -38l-106 -101q-18 -16 -37 -16z" />
    <glyph glyph-name="rcaron" unicode="&#x159;" horiz-adv-x="426" 
d="M308 467q47 0 81 -19q39 -22 39 -60q0 -26 -16 -43.5t-41 -17.5q-15 0 -40 12t-47 12q-87 0 -87 -126v-171q0 -26 -20 -45t-46 -19q-28 0 -47 19t-19 45v349q0 26 19 45t47 19q24 0 41.5 -15t22.5 -37q43 52 113 52zM231 570q-19 0 -37 16l-106 101q-22 20 -22 38
q0 21 14 34t33 13q20 0 35 -15l83 -80l83 80q15 15 35 15q19 0 33 -13t14 -34q0 -18 -22 -38l-106 -101q-18 -16 -37 -16z" />
    <glyph glyph-name="Sacute" unicode="&#x15a;" horiz-adv-x="579" 
d="M520 589q0 -28 -19.5 -47.5t-48.5 -19.5q-22 0 -72 22t-92 22q-99 0 -99 -63q0 -26 22 -43t65 -31q14 -4 46 -13t51.5 -15.5t46 -18t46.5 -25.5q78 -55 78 -153q0 -99 -74 -156.5t-188 -57.5q-100 0 -181 34q-67 28 -67 77q0 29 20 49t49 20q17 0 43 -14t60.5 -28
t73.5 -14q58 0 82.5 23t24.5 55q0 51 -85 80q-16 6 -54 17t-69 23t-57 29q-85 54 -85 159q0 85 68 137.5t191 52.5q97 0 160 -27q64 -27 64 -74zM205 805q0 15 9 31l53 105q16 33 47 33q21 0 36.5 -14.5t15.5 -34.5q0 -12 -13 -34l-61 -100q-18 -28 -43 -28q-18 0 -31 12
t-13 30z" />
    <glyph glyph-name="sacute" unicode="&#x15b;" horiz-adv-x="416" 
d="M379 395q0 -24 -14.5 -39t-35.5 -15q-20 0 -51 11t-54 11q-47 0 -47 -32q0 -23 43 -40q7 -3 41 -15.5t53 -21.5q75 -38 75 -117q0 -64 -51 -105.5t-136 -41.5q-175 0 -175 82q0 22 14.5 37t36.5 15q18 0 53 -15.5t66 -15.5q53 0 53 36q0 15 -10 23.5t-32 18.5
q-12 5 -45.5 17.5t-51.5 21.5q-74 38 -74 121q0 64 47 100.5t133 36.5q72 0 117 -18t45 -55zM129 605q0 15 9 31l53 105q16 33 47 33q21 0 36.5 -14.5t15.5 -34.5q0 -12 -13 -34l-61 -100q-18 -28 -43 -28q-18 0 -31 12t-13 30z" />
    <glyph glyph-name="Scedilla" unicode="&#x15e;" horiz-adv-x="579" 
d="M400 -114q0 -52 -42 -76.5t-105 -24.5q-22 0 -38 4q-31 7 -31 34q0 13 10 23.5t24 10.5q5 0 17.5 -2t21.5 -2q57 0 57 35q0 34 -53 34q-12 0 -19.5 8t-6.5 23l4 39q-80 7 -138 32q-67 28 -67 77q0 29 20 49t49 20q17 0 43 -14t60.5 -28t73.5 -14q58 0 82.5 23t24.5 55
q0 51 -85 80q-16 6 -54 17t-69 23t-57 29q-85 54 -85 159q0 85 68 137.5t191 52.5q97 0 160 -27q64 -27 64 -74q0 -28 -19.5 -47.5t-48.5 -19.5q-22 0 -72 22t-92 22q-99 0 -99 -63q0 -26 22 -43t65 -31q14 -4 46 -13t51.5 -15.5t46 -18t46.5 -25.5q78 -55 78 -153
q0 -93 -66 -149.5t-170 -63.5l1 -19q43 -6 67 -30t24 -56z" />
    <glyph glyph-name="scedilla" unicode="&#x15f;" horiz-adv-x="416" 
d="M319 -114q0 -52 -42 -76.5t-105 -24.5q-22 0 -38 4q-31 7 -31 34q0 13 10.5 23.5t23.5 10.5q5 0 17.5 -2t21.5 -2q57 0 57 35q0 34 -53 34q-12 0 -19.5 8t-6.5 23l4 39q-131 11 -131 80q0 22 14.5 37t36.5 15q18 0 53 -15.5t66 -15.5q53 0 53 36q0 15 -10 23.5t-32 18.5
q-12 5 -45.5 17.5t-51.5 21.5q-74 38 -74 121q0 64 47 100.5t133 36.5q72 0 117 -18t45 -55q0 -24 -14.5 -39t-35.5 -15q-20 0 -51 11t-54 11q-47 0 -47 -32q0 -23 43 -40q7 -3 41 -15.5t53 -21.5q75 -38 75 -117q0 -59 -43.5 -99t-118.5 -47l1 -19q43 -6 67 -30t24 -56z
" />
    <glyph glyph-name="Scaron" unicode="&#x160;" horiz-adv-x="579" 
d="M520 589q0 -28 -19.5 -47.5t-48.5 -19.5q-22 0 -72 22t-92 22q-99 0 -99 -63q0 -26 22 -43t65 -31q14 -4 46 -13t51.5 -15.5t46 -18t46.5 -25.5q78 -55 78 -153q0 -99 -74 -156.5t-188 -57.5q-100 0 -181 34q-67 28 -67 77q0 29 20 49t49 20q17 0 43 -14t60.5 -28
t73.5 -14q58 0 82.5 23t24.5 55q0 51 -85 80q-16 6 -54 17t-69 23t-57 29q-85 54 -85 159q0 85 68 137.5t191 52.5q97 0 160 -27q64 -27 64 -74zM289 770q-19 0 -37 16l-106 101q-22 20 -22 38q0 21 14 34t33 13q20 0 35 -15l83 -80l83 80q15 15 35 15q19 0 33 -13t14 -34
q0 -18 -22 -38l-106 -101q-18 -16 -37 -16z" />
    <glyph glyph-name="scaron" unicode="&#x161;" horiz-adv-x="416" 
d="M379 395q0 -24 -14.5 -39t-35.5 -15q-20 0 -51 11t-54 11q-47 0 -47 -32q0 -23 43 -40q7 -3 41 -15.5t53 -21.5q75 -38 75 -117q0 -64 -51 -105.5t-136 -41.5q-175 0 -175 82q0 22 14.5 37t36.5 15q18 0 53 -15.5t66 -15.5q53 0 53 36q0 15 -10 23.5t-32 18.5
q-12 5 -45.5 17.5t-51.5 21.5q-74 38 -74 121q0 64 47 100.5t133 36.5q72 0 117 -18t45 -55zM208 570q-19 0 -37 16l-106 101q-22 20 -22 38q0 21 14 34t33 13q20 0 35 -15l83 -80l83 80q15 15 35 15q19 0 33 -13t14 -34q0 -18 -22 -38l-106 -101q-18 -16 -37 -16z" />
    <glyph glyph-name="Tcommaaccent" unicode="&#x162;" horiz-adv-x="599" 
d="M537 553h-166v-493q0 -29 -21.5 -49.5t-50.5 -20.5t-50.5 20.5t-21.5 49.5v493h-165q-25 0 -43.5 19t-18.5 45t18.5 45t43.5 19h475q25 0 43.5 -19t18.5 -45t-18.5 -45t-43.5 -19zM215 -318q0 16 29 39t29 46q0 13 -9.5 23t-21 16t-21 21.5t-9.5 38.5q0 32 21 54t61 22
q45 0 70.5 -30t25.5 -81q0 -73 -53.5 -123t-96.5 -50q-11 0 -18 7t-7 17z" />
    <glyph glyph-name="tcommaaccent" unicode="&#x163;" horiz-adv-x="394" 
d="M54 458h32v67q0 27 19 46t47 19q27 0 46.5 -19t19.5 -46v-67h90q21 0 36 -15t15 -37q0 -21 -15 -36.5t-36 -15.5h-90v-189q0 -61 47 -61q19 0 43 14t40 14q22 0 36 -15.5t14 -37.5q0 -42 -62 -70q-46 -19 -97 -19q-77 0 -115 45t-38 116v203h-32q-21 0 -36 15.5t-15 36.5
q0 22 15 37t36 15zM162 -318q0 16 29 39t29 46q0 13 -9.5 23t-21 16t-21 21.5t-9.5 38.5q0 32 21 54t61 22q45 0 70.5 -30t25.5 -81q0 -73 -53.5 -123t-96.5 -50q-11 0 -18 7t-7 17z" />
    <glyph glyph-name="Tcaron" unicode="&#x164;" horiz-adv-x="599" 
d="M537 553h-166v-493q0 -29 -21.5 -49.5t-50.5 -20.5t-50.5 20.5t-21.5 49.5v493h-165q-25 0 -43.5 19t-18.5 45t18.5 45t43.5 19h475q25 0 43.5 -19t18.5 -45t-18.5 -45t-43.5 -19zM299 770q-19 0 -37 16l-106 101q-22 20 -22 38q0 21 14 34t33 13q20 0 35 -15l83 -80
l83 80q15 15 35 15q19 0 33 -13t14 -34q0 -18 -22 -38l-106 -101q-18 -16 -37 -16z" />
    <glyph glyph-name="tcaron" unicode="&#x165;" horiz-adv-x="524" 
d="M54 458h32v67q0 27 19 46t47 19q27 0 46.5 -19t19.5 -46v-67h90q21 0 36 -15t15 -37q0 -21 -15 -36.5t-36 -15.5h-90v-189q0 -61 47 -61q19 0 43 14t40 14q22 0 36 -15.5t14 -37.5q0 -42 -62 -70q-46 -19 -97 -19q-77 0 -115 45t-38 116v203h-32q-21 0 -36 15.5t-15 36.5
q0 22 15 37t36 15zM382 430q0 16 29 39t29 46q0 13 -9.5 23t-21 16t-21 21.5t-9.5 38.5q0 32 21 54t61 22q45 0 70.5 -30t25.5 -81q0 -73 -53.5 -123t-96.5 -50q-11 0 -18 7t-7 17z" />
    <glyph glyph-name="Umacron" unicode="&#x16a;" horiz-adv-x="724" 
d="M361 122q81 0 119 48q34 42 34 116v334q0 29 20.5 49.5t51.5 20.5q29 0 50.5 -20.5t21.5 -49.5v-351q0 -115 -62 -188q-80 -91 -234 -91t-234 91q-62 73 -62 188v351q0 29 21.5 49.5t50.5 20.5q31 0 51.5 -20.5t20.5 -49.5v-334q0 -74 34 -116q38 -48 117 -48zM505 870
q0 -22 -15.5 -37.5t-37.5 -15.5h-182q-22 0 -38 15.5t-16 37.5t16 38t38 16h182q22 0 37.5 -16t15.5 -38z" />
    <glyph glyph-name="umacron" unicode="&#x16b;" horiz-adv-x="567" 
d="M57 198v205q0 26 19 45t47 19t47 -19t19 -45v-197q0 -37 13 -62q24 -42 82 -42q59 0 81 42q13 25 13 62v197q0 26 19 45t47 19t47 -19t19 -45v-205q0 -87 -40 -136q-58 -72 -186 -72q-130 0 -187 72q-40 52 -40 136zM428 647q0 -22 -15.5 -37.5t-37.5 -15.5h-182
q-22 0 -38 15.5t-16 37.5q0 23 15.5 38.5t38.5 15.5h182q22 0 37.5 -16t15.5 -38z" />
    <glyph glyph-name="Uring" unicode="&#x16e;" horiz-adv-x="724" 
d="M361 122q81 0 119 48q34 42 34 116v334q0 29 20.5 49.5t51.5 20.5q29 0 50.5 -20.5t21.5 -49.5v-351q0 -115 -62 -188q-80 -91 -234 -91t-234 91q-62 73 -62 188v351q0 29 21.5 49.5t50.5 20.5q31 0 51.5 -20.5t20.5 -49.5v-334q0 -74 34 -116q38 -48 117 -48zM483 858
q0 -50 -35.5 -85.5t-85.5 -35.5q-51 0 -86.5 35.5t-35.5 85.5q0 51 35.5 86.5t86.5 35.5q50 0 85.5 -35.5t35.5 -86.5zM425 858q0 27 -18.5 45.5t-44.5 18.5q-27 0 -45 -18.5t-18 -45.5t18 -45.5t45 -18.5q26 0 44.5 19t18.5 45z" />
    <glyph glyph-name="uring" unicode="&#x16f;" horiz-adv-x="567" 
d="M57 198v205q0 26 19 45t47 19t47 -19t19 -45v-197q0 -37 13 -62q24 -42 82 -42q59 0 81 42q13 25 13 62v197q0 26 19 45t47 19t47 -19t19 -45v-205q0 -87 -40 -136q-58 -72 -186 -72q-130 0 -187 72q-40 52 -40 136zM405 667q0 -50 -35.5 -85.5t-85.5 -35.5
q-51 0 -86.5 35.5t-35.5 85.5q0 51 35.5 86.5t86.5 35.5q50 0 85.5 -35.5t35.5 -86.5zM347 667q0 27 -18.5 45.5t-44.5 18.5q-27 0 -45 -18.5t-18 -45.5t18 -45.5t45 -18.5q26 0 44.5 19t18.5 45z" />
    <glyph glyph-name="Uhungarumlaut" unicode="&#x170;" horiz-adv-x="724" 
d="M361 122q81 0 119 48q34 42 34 116v334q0 29 20.5 49.5t51.5 20.5q29 0 50.5 -20.5t21.5 -49.5v-351q0 -115 -62 -188q-80 -91 -234 -91t-234 91q-62 73 -62 188v351q0 29 21.5 49.5t50.5 20.5q31 0 51.5 -20.5t20.5 -49.5v-334q0 -74 34 -116q38 -48 117 -48zM178 804
q0 11 9 31l53 105q16 33 47 33q21 0 36.5 -14.5t15.5 -34.5q0 -15 -13 -34l-61 -100q-18 -28 -42 -28q-18 0 -31.5 12t-13.5 30zM384 804q0 14 9 31l53 105q16 33 47 33q21 0 36.5 -14.5t15.5 -34.5q0 -12 -13 -34l-61 -100q-18 -28 -43 -28q-18 0 -31 12t-13 30z" />
    <glyph glyph-name="uhungarumlaut" unicode="&#x171;" horiz-adv-x="567" 
d="M57 198v205q0 26 19 45t47 19t47 -19t19 -45v-197q0 -37 13 -62q24 -42 82 -42q59 0 81 42q13 25 13 62v197q0 26 19 45t47 19t47 -19t19 -45v-205q0 -87 -40 -136q-58 -72 -186 -72q-130 0 -187 72q-40 52 -40 136zM103 605q0 11 9 31l53 105q16 33 47 33
q21 0 36.5 -14.5t15.5 -34.5q0 -15 -13 -34l-61 -100q-18 -28 -42 -28q-18 0 -31.5 12t-13.5 30zM309 605q0 15 9 31l53 105q16 33 47 33q21 0 36.5 -14.5t15.5 -34.5q0 -12 -13 -34l-61 -100q-18 -28 -43 -28q-18 0 -31 12t-13 30z" />
    <glyph glyph-name="Uogonek" unicode="&#x172;" horiz-adv-x="724" 
d="M397 -211q-115 0 -115 95q2 58 69 106q-146 3 -223 91q-62 73 -62 188v351q0 29 21.5 49.5t50.5 20.5q31 0 51.5 -20.5t20.5 -49.5v-334q0 -74 34 -116q38 -48 117 -48q81 0 119 48q34 42 34 116v334q0 29 20.5 49.5t51.5 20.5q29 0 50.5 -20.5t21.5 -49.5v-351
q0 -115 -62 -188q-60 -68 -160 -84q-29 -17 -47 -42t-18 -48q0 -32 37 -32q9 0 22.5 3.5t21.5 3.5q17 0 27.5 -9.5t10.5 -27.5q0 -31 -28 -43.5t-65 -12.5z" />
    <glyph glyph-name="uogonek" unicode="&#x173;" horiz-adv-x="567" 
d="M313 -210q-115 0 -115 95q2 57 68 106q-117 5 -169 71q-40 52 -40 136v205q0 26 19 45t47 19t47 -19t19 -45v-197q0 -37 13 -62q24 -42 82 -42q59 0 81 42q13 25 13 62v197q0 26 19 45t47 19t47 -19t19 -45v-205q0 -87 -40 -136q-42 -52 -121 -66q-27 -17 -44.5 -41
t-17.5 -47q0 -32 37 -32q9 0 22.5 3.5t21.5 3.5q17 0 27.5 -9.5t10.5 -27.5q0 -31 -28 -43.5t-65 -12.5z" />
    <glyph glyph-name="Wcircumflex" unicode="&#x174;" horiz-adv-x="1035" 
d="M732 175l130 467q6 22 26.5 35t45.5 13q31 0 52.5 -19t21.5 -50q0 -11 -6 -29l-168 -528q-10 -33 -36 -53.5t-67 -20.5q-78 0 -103 74l-121 352l-115 -352q-25 -74 -104 -74q-80 0 -103 74l-171 530q-5 13 -5 25q0 30 21.5 50.5t53.5 20.5q55 0 70 -52l135 -463l142 461
q16 54 78 54q58 0 76 -55zM517 976q18 0 36 -16l107 -101q21 -18 21 -38q0 -21 -13.5 -34t-32.5 -13q-17 0 -32 12l-86 83l-86 -83q-15 -12 -32 -12q-19 0 -33 13t-14 34q0 19 22 38l106 101q18 16 37 16z" />
    <glyph glyph-name="wcircumflex" unicode="&#x175;" horiz-adv-x="684" 
d="M416 403l68 -252l67 255q6 30 19.5 45.5t43.5 15.5q28 0 44.5 -15t16.5 -44q0 -18 -6 -40l-93 -300q-5 -18 -9 -27.5t-14 -23.5t-27 -20.5t-42 -6.5q-46 0 -65 20t-27 56l-51 180l-52 -180q-7 -32 -29 -54t-59 -22q-42 0 -62.5 19t-32.5 59l-92 300q-5 19 -5 34
q0 32 20.5 48.5t48.5 16.5q49 0 63 -68l66 -248l67 252q15 64 72 64q55 0 70 -64zM342 772q18 0 36 -16l107 -101q21 -18 21 -38q0 -21 -13.5 -34t-32.5 -13q-17 0 -32 12l-86 83l-86 -83q-15 -12 -32 -12q-19 0 -33 13t-14 34q0 19 22 38l106 101q18 16 37 16z" />
    <glyph glyph-name="Ycircumflex" unicode="&#x176;" horiz-adv-x="584" 
d="M562 575l-199 -292v-223q0 -29 -21.5 -49.5t-50.5 -20.5t-50.5 20.5t-21.5 49.5v224l-197 292q-14 20 -14 45q0 30 20.5 49.5t50.5 19.5q40 0 60 -32l151 -230l154 231q22 31 61 31q30 0 50.5 -20t20.5 -49q0 -26 -14 -46zM290 972q19 0 37 -16l106 -101q22 -20 22 -38
q0 -21 -14 -34t-33 -13q-20 0 -35 15l-83 80l-83 -80q-15 -15 -35 -15q-19 0 -33 13t-14 34q0 18 22 38l106 101q18 16 37 16z" />
    <glyph glyph-name="ycircumflex" unicode="&#x177;" horiz-adv-x="503" 
d="M422 468q30 0 51 -21t21 -51q0 -13 -13 -49l-140 -372q-40 -106 -108.5 -157.5t-144.5 -51.5q-27 0 -45.5 18.5t-18.5 44.5t18.5 44.5t45.5 18.5q73 0 110 76l-173 378q-16 35 -16 48q0 31 21.5 52.5t51.5 21.5q50 0 70 -48l111 -280l87 267q19 61 72 61zM251 772
q19 0 37 -16l106 -101q22 -20 22 -38q0 -21 -14 -34t-33 -13q-20 0 -35 15l-83 80l-83 -80q-15 -15 -35 -15q-19 0 -33 13t-14 34q0 18 22 38l106 101q18 16 37 16z" />
    <glyph glyph-name="Ydieresis" unicode="&#x178;" horiz-adv-x="584" 
d="M562 575l-199 -292v-223q0 -29 -21.5 -49.5t-50.5 -20.5t-50.5 20.5t-21.5 49.5v224l-197 292q-14 20 -14 45q0 30 20.5 49.5t50.5 19.5q40 0 60 -32l151 -230l154 231q22 31 61 31q30 0 50.5 -20t20.5 -49q0 -26 -14 -46zM176 792q-31 0 -53.5 22.5t-22.5 54.5
q0 31 22 53.5t54 22.5t54 -22t22 -54t-22 -54.5t-54 -22.5zM408 792q-31 0 -53.5 22.5t-22.5 54.5q0 31 22 53.5t54 22.5t54 -22.5t22 -53.5q0 -32 -22.5 -54.5t-53.5 -22.5z" />
    <glyph glyph-name="Zacute" unicode="&#x179;" horiz-adv-x="581" 
d="M76 681h400q26 0 44 -19t18 -45q0 -20 -10 -35l-304 -454h277q26 0 44.5 -19.5t18.5 -44.5q0 -26 -18.5 -45t-44.5 -19h-408q-26 0 -44.5 19t-18.5 45q0 19 14 39l300 450h-268q-25 0 -43 19t-18 45t18 45t43 19zM209 805q0 15 9 31l53 105q16 33 47 33q21 0 36.5 -14.5
t15.5 -34.5q0 -12 -13 -34l-61 -100q-18 -28 -43 -28q-18 0 -31 12t-13 30z" />
    <glyph glyph-name="zacute" unicode="&#x17a;" horiz-adv-x="430" 
d="M198 116h168q23 0 39 -17.5t16 -40.5q0 -24 -16 -41t-39 -17h-296q-25 0 -40.5 14t-15.5 38q0 26 22 53l192 238h-167q-23 0 -39.5 17t-16.5 41q0 23 16.5 40.5t39.5 17.5h295q23 0 39.5 -15t16.5 -37q0 -24 -22 -53zM136 605q0 15 9 31l53 105q16 33 47 33
q21 0 36.5 -14.5t15.5 -34.5q0 -12 -13 -34l-61 -100q-18 -28 -43 -28q-18 0 -31 12t-13 30z" />
    <glyph glyph-name="Zdotaccent" unicode="&#x17b;" horiz-adv-x="581" 
d="M76 681h400q26 0 44 -19t18 -45q0 -20 -10 -35l-304 -454h277q26 0 44.5 -19.5t18.5 -44.5q0 -26 -18.5 -45t-44.5 -19h-408q-26 0 -44.5 19t-18.5 45q0 19 14 39l300 450h-268q-25 0 -43 19t-18 45t18 45t43 19zM290 790q-32 0 -54 22t-22 54t22 54t54 22t54 -22t22 -54
t-22 -54t-54 -22z" />
    <glyph glyph-name="zdotaccent" unicode="&#x17c;" horiz-adv-x="430" 
d="M198 116h168q23 0 39 -17.5t16 -40.5q0 -24 -16 -41t-39 -17h-296q-25 0 -40.5 14t-15.5 38q0 26 22 53l192 238h-167q-23 0 -39.5 17t-16.5 41q0 23 16.5 40.5t39.5 17.5h295q23 0 39.5 -15t16.5 -37q0 -24 -22 -53zM216 585q-32 0 -54 22.5t-22 53.5t22 53.5t54 22.5
t54 -22.5t22 -53.5t-22 -53.5t-54 -22.5z" />
    <glyph glyph-name="Zcaron" unicode="&#x17d;" horiz-adv-x="581" 
d="M76 681h400q26 0 44 -19t18 -45q0 -20 -10 -35l-304 -454h277q26 0 44.5 -19.5t18.5 -44.5q0 -26 -18.5 -45t-44.5 -19h-408q-26 0 -44.5 19t-18.5 45q0 19 14 39l300 450h-268q-25 0 -43 19t-18 45t18 45t43 19zM290 770q-19 0 -37 16l-106 101q-22 20 -22 38
q0 21 14 34t33 13q20 0 35 -15l83 -80l83 80q15 15 35 15q19 0 33 -13t14 -34q0 -18 -22 -38l-106 -101q-18 -16 -37 -16z" />
    <glyph glyph-name="zcaron" unicode="&#x17e;" horiz-adv-x="430" 
d="M198 116h168q23 0 39 -17.5t16 -40.5q0 -24 -16 -41t-39 -17h-296q-25 0 -40.5 14t-15.5 38q0 26 22 53l192 238h-167q-23 0 -39.5 17t-16.5 41q0 23 16.5 40.5t39.5 17.5h295q23 0 39.5 -15t16.5 -37q0 -24 -22 -53zM216 570q-19 0 -37 16l-106 101q-22 20 -22 38
q0 21 14 34t33 13q20 0 35 -15l83 -80l83 80q15 15 35 15q19 0 33 -13t14 -34q0 -18 -22 -38l-106 -101q-18 -16 -37 -16z" />
    <glyph glyph-name="florin" unicode="&#x192;" 
d="M205 458h49l11 62q13 73 55 121t119 48q72 0 110 -22q34 -19 34 -54q0 -21 -16 -36t-38 -15q-9 0 -35 11q-22 9 -42 9q-27 0 -40 -17t-20 -55l-10 -52h81q20 0 34.5 -15t14.5 -35q0 -22 -14.5 -36.5t-34.5 -14.5h-99l-76 -428q-30 -171 -190 -171q-43 0 -70 10
q-43 15 -43 55q0 23 15.5 37t37.5 14q4 0 26 -5q18 -4 31 -4q27 0 43 17.5t23 56.5l75 418h-31q-20 0 -34.5 14.5t-14.5 36.5q0 20 14.5 35t34.5 15z" />
    <glyph glyph-name="Scommaaccent" unicode="&#x218;" horiz-adv-x="579" 
d="M520 589q0 -28 -19.5 -47.5t-48.5 -19.5q-22 0 -72 22t-92 22q-99 0 -99 -63q0 -26 22 -43t65 -31q14 -4 46 -13t51.5 -15.5t46 -18t46.5 -25.5q78 -55 78 -153q0 -99 -74 -156.5t-188 -57.5q-100 0 -181 34q-67 28 -67 77q0 29 20 49t49 20q17 0 43 -14t60.5 -28
t73.5 -14q58 0 82.5 23t24.5 55q0 51 -85 80q-16 6 -54 17t-69 23t-57 29q-85 54 -85 159q0 85 68 137.5t191 52.5q97 0 160 -27q64 -27 64 -74zM208 -318q0 16 29 39t29 46q0 13 -9.5 23t-21 16t-21 21.5t-9.5 38.5q0 32 21 54t61 22q45 0 70.5 -30t25.5 -81
q0 -73 -53.5 -123t-96.5 -50q-11 0 -18 7t-7 17z" />
    <glyph glyph-name="scommaaccent" unicode="&#x219;" horiz-adv-x="416" 
d="M379 395q0 -24 -14.5 -39t-35.5 -15q-20 0 -51 11t-54 11q-47 0 -47 -32q0 -23 43 -40q7 -3 41 -15.5t53 -21.5q75 -38 75 -117q0 -64 -51 -105.5t-136 -41.5q-175 0 -175 82q0 22 14.5 37t36.5 15q18 0 53 -15.5t66 -15.5q53 0 53 36q0 15 -10 23.5t-32 18.5
q-12 5 -45.5 17.5t-51.5 21.5q-74 38 -74 121q0 64 47 100.5t133 36.5q72 0 117 -18t45 -55zM126 -318q0 16 29 39t29 46q0 13 -9.5 23t-21 16t-21 21.5t-9.5 38.5q0 32 21 54t61 22q45 0 70.5 -30t25.5 -81q0 -73 -53.5 -123t-96.5 -50q-11 0 -18 7t-7 17z" />
    <glyph glyph-name="uni021A" unicode="&#x21a;" horiz-adv-x="599" 
d="M537 553h-166v-493q0 -29 -21.5 -49.5t-50.5 -20.5t-50.5 20.5t-21.5 49.5v493h-165q-25 0 -43.5 19t-18.5 45t18.5 45t43.5 19h475q25 0 43.5 -19t18.5 -45t-18.5 -45t-43.5 -19zM215 -318q0 16 29 39t29 46q0 13 -9.5 23t-21 16t-21 21.5t-9.5 38.5q0 32 21 54t61 22
q45 0 70.5 -30t25.5 -81q0 -73 -53.5 -123t-96.5 -50q-11 0 -18 7t-7 17z" />
    <glyph glyph-name="uni021B" unicode="&#x21b;" horiz-adv-x="394" 
d="M54 458h32v67q0 27 19 46t47 19q27 0 46.5 -19t19.5 -46v-67h90q21 0 36 -15t15 -37q0 -21 -15 -36.5t-36 -15.5h-90v-189q0 -61 47 -61q19 0 43 14t40 14q22 0 36 -15.5t14 -37.5q0 -42 -62 -70q-46 -19 -97 -19q-77 0 -115 45t-38 116v203h-32q-21 0 -36 15.5t-15 36.5
q0 22 15 37t36 15zM162 -318q0 16 29 39t29 46q0 13 -9.5 23t-21 16t-21 21.5t-9.5 38.5q0 32 21 54t61 22q45 0 70.5 -30t25.5 -81q0 -73 -53.5 -123t-96.5 -50q-11 0 -18 7t-7 17z" />
    <glyph glyph-name="circumflex" unicode="&#x2c6;" horiz-adv-x="466" 
d="M233 772q18 0 36 -16l107 -101q21 -18 21 -38q0 -21 -13.5 -34t-32.5 -13q-17 0 -32 12l-86 83l-86 -83q-15 -12 -32 -12q-19 0 -33 13t-14 34q0 19 22 38l106 101q18 16 37 16z" />
    <glyph glyph-name="caron" unicode="&#x2c7;" horiz-adv-x="466" 
d="M68 725q0 21 14 34t33 13q17 0 32 -12l86 -83l86 83q15 12 32 12q19 0 32.5 -13t13.5 -34q0 -20 -21 -39l-107 -101q-19 -15 -36 -15q-18 0 -37 15l-106 101q-22 20 -22 39z" />
    <glyph glyph-name="breve" unicode="&#x2d8;" horiz-adv-x="466" 
d="M232 665q38 0 63 37q9 14 14.5 20.5t15.5 13.5t21 7q20 0 34 -13.5t14 -32.5q0 -25 -40 -72q-50 -54 -122 -54t-122 54q-40 47 -40 72q0 19 14 32.5t34 13.5q11 0 21 -7t15.5 -13.5t14.5 -20.5q25 -37 63 -37z" />
    <glyph glyph-name="dotaccent" unicode="&#x2d9;" horiz-adv-x="466" 
d="M233 585q-31 0 -53.5 22.5t-22.5 53.5t22.5 53.5t53.5 22.5t53.5 -22.5t22.5 -53.5t-22.5 -53.5t-53.5 -22.5z" />
    <glyph glyph-name="ring" unicode="&#x2da;" horiz-adv-x="466" 
d="M354 667q0 -50 -35.5 -85.5t-85.5 -35.5q-51 0 -86.5 35.5t-35.5 85.5q0 51 35.5 86.5t86.5 35.5q50 0 85.5 -35.5t35.5 -86.5zM296 667q0 27 -18.5 45.5t-44.5 18.5q-27 0 -45 -18.5t-18 -45.5t18 -45.5t45 -18.5q26 0 44.5 19t18.5 45z" />
    <glyph glyph-name="ogonek" unicode="&#x2db;" horiz-adv-x="466" 
d="M227 -202q-115 0 -115 95q2 31 26.5 65t69.5 58l62 -9q-30 -16 -49.5 -41.5t-19.5 -49.5q0 -32 37 -32q9 0 22.5 3.5t21.5 3.5q17 0 27.5 -9.5t10.5 -27.5q0 -31 -28 -43.5t-65 -12.5z" />
    <glyph glyph-name="tilde" unicode="&#x2dc;" horiz-adv-x="466" 
d="M413 688q0 -31 -23 -58q-34 -37 -80 -37q-40 0 -79 27q-3 2 -15.5 10.5t-17 11t-14 6t-17.5 3.5q-9 0 -17 -4.5t-10.5 -7.5t-9.5 -13q-19 -25 -39 -25t-30.5 13t-10.5 33q0 32 24 58q32 37 80 37q40 0 79 -27q4 -3 12.5 -9t13 -9t11.5 -7t13.5 -5.5t12.5 -1.5q19 0 37 26
q19 25 40 25q19 0 29.5 -13t10.5 -33z" />
    <glyph glyph-name="hungarumlaut" unicode="&#x2dd;" horiz-adv-x="466" 
d="M52 605q0 15 9 31l53 105q16 33 47 33q21 0 36.5 -14.5t15.5 -34.5q0 -12 -13 -34l-61 -100q-18 -28 -43 -28q-18 0 -31 12t-13 30zM250 605q0 13 8 31l54 105q14 33 47 33q21 0 36.5 -14.5t15.5 -34.5q0 -12 -13 -34l-61 -100q-18 -28 -43 -28q-18 0 -31 12t-13 30z" />
    <glyph glyph-name="pi" unicode="&#x3c0;" horiz-adv-x="622" 
d="M484 -10q-37 0 -66 26q-46 41 -46 121v206h-123l-19 -216q-6 -66 -45 -105q-34 -32 -70 -32q-71 0 -71 53q0 23 22 43q31 27 35 74l16 183h-26q-23 0 -39.5 17t-16.5 41q0 23 16.5 40.5t39.5 17.5h441q23 0 39 -17t16 -41t-16 -41t-39 -17h-30v-186q0 -41 23 -66
q26 -28 26 -48q0 -27 -19 -40t-48 -13z" />
    <glyph glyph-name="afii10023" unicode="&#x401;" horiz-adv-x="627" 
d="M212 279v-151h323q26 0 44 -19t18 -45t-18 -45t-44 -19h-395q-31 0 -51.5 20.5t-20.5 49.5v541q0 29 20.5 49.5t51.5 20.5h395q26 0 44 -19t18 -45t-18 -45t-44 -19h-323v-147h271q25 0 43 -19t18 -45t-18 -44.5t-43 -18.5h-271zM197 784q-31 0 -53.5 22.5t-22.5 54.5
q0 31 22.5 53.5t53.5 22.5q32 0 54 -22t22 -54t-22 -54.5t-54 -22.5zM429 784q-31 0 -53.5 22.5t-22.5 54.5q0 31 22.5 53.5t53.5 22.5t53.5 -22.5t22.5 -53.5q0 -32 -22.5 -54.5t-53.5 -22.5z" />
    <glyph glyph-name="afii10051" unicode="&#x402;" horiz-adv-x="761" 
d="M704 268v-24q0 -111 -50 -187q-45 -67 -115 -67q-32 0 -51 17t-19 43q0 7 1 13t5 12t6 9.5t9 9.5t9 7.5t12 8t11 7.5q49 35 49 107v22q0 53 -24 83q-25 30 -71 30q-59 0 -88 -45q-22 -35 -22 -81v-173q0 -29 -21.5 -49.5t-50.5 -20.5t-50.5 20.5t-21.5 49.5v493h-165
q-25 0 -43.5 19t-18.5 45t18.5 45t43.5 19h474q26 0 44.5 -19t18.5 -45t-18.5 -45t-44.5 -19h-165v-146q21 25 54 41q41 19 85 19q86 0 138 -44q58 -51 61 -155z" />
    <glyph glyph-name="afii10052" unicode="&#x403;" horiz-adv-x="542" 
d="M68 60v551q0 29 20.5 49.5t51.5 20.5h324q26 0 44 -19t18 -45t-18 -45t-44 -19h-252v-493q0 -29 -21 -49.5t-51 -20.5q-31 0 -51.5 20.5t-20.5 49.5zM205 805q0 15 9 31l53 105q16 33 47 33q21 0 36.5 -14.5t15.5 -34.5q0 -12 -13 -34l-61 -100q-18 -28 -43 -28
q-18 0 -31 12t-13 30z" />
    <glyph glyph-name="afii10053" unicode="&#x404;" horiz-adv-x="654" 
d="M619 596q0 -29 -19.5 -48t-47.5 -19q-8 0 -17.5 3t-24 9t-26.5 9q-39 11 -81 11q-76 0 -135 -51q-49 -43 -64 -105h277q25 0 43 -18.5t18 -44.5t-18 -44.5t-43 -18.5h-280q17 -72 71 -114q57 -44 131 -44q45 0 83 11q14 4 30.5 10t27 9.5t18.5 3.5q28 0 47.5 -19
t19.5 -48q0 -45 -60 -69q-77 -29 -165 -29q-141 0 -239 78q-125 99 -125 273q0 77 32.5 144t88.5 115q106 90 245 90q84 0 155 -26q58 -22 58 -68z" />
    <glyph glyph-name="afii10054" unicode="&#x405;" horiz-adv-x="579" 
d="M520 589q0 -28 -19.5 -47.5t-48.5 -19.5q-22 0 -72 22t-92 22q-99 0 -99 -63q0 -26 22 -43t65 -31q14 -4 46 -13t51.5 -15.5t46 -18t46.5 -25.5q78 -55 78 -153q0 -99 -74 -156.5t-188 -57.5q-100 0 -181 34q-67 28 -67 77q0 29 20 49t49 20q17 0 43 -14t60.5 -28
t73.5 -14q58 0 82.5 23t24.5 55q0 51 -85 80q-16 6 -54 17t-69 23t-57 29q-85 54 -85 159q0 85 68 137.5t191 52.5q97 0 160 -27q64 -27 64 -74z" />
    <glyph glyph-name="afii10055" unicode="&#x406;" horiz-adv-x="279" 
d="M68 60v560q0 29 21 49.5t51 20.5t51 -20.5t21 -49.5v-560q0 -29 -21.5 -49.5t-50.5 -20.5q-30 0 -51 20.5t-21 49.5z" />
    <glyph glyph-name="afii10056" unicode="&#x407;" horiz-adv-x="279" 
d="M68 60v560q0 29 21 49.5t51 20.5t51 -20.5t21 -49.5v-560q0 -29 -21.5 -49.5t-50.5 -20.5q-30 0 -51 20.5t-21 49.5zM25 784q-31 0 -53.5 22.5t-22.5 54.5q0 31 22.5 53.5t53.5 22.5q32 0 54 -22t22 -54t-22 -54.5t-54 -22.5zM257 784q-31 0 -53.5 22.5t-22.5 54.5
q0 31 22.5 53.5t53.5 22.5t53.5 -22.5t22.5 -53.5q0 -32 -22.5 -54.5t-53.5 -22.5z" />
    <glyph glyph-name="afii10057" unicode="&#x408;" horiz-adv-x="535" 
d="M467 620v-372q0 -137 -82 -203q-67 -54 -178 -54q-100 0 -170 57q-29 26 -29 59q0 28 19 47t47 19q25 0 47 -19q40 -36 85 -36q51 0 81 27q36 30 36 115v360q0 29 21.5 49.5t50.5 20.5q30 0 51 -20.5t21 -49.5z" />
    <glyph glyph-name="afii10058" unicode="&#x409;" horiz-adv-x="1049" 
d="M262 553v-77q0 -261 -67 -397q-42 -89 -101 -89q-30 0 -51 20.5t-21 50.5q0 23 28.5 66t39.5 77q28 85 28 272v135q0 29 21.5 49.5t50.5 20.5h379q31 0 51.5 -20.5t20.5 -49.5v-207h107q259 0 259 -200q0 -56 -21.5 -97t-58 -63.5t-78 -33t-88.5 -10.5h-192
q-30 0 -51 20.5t-21 49.5v483h-235zM860 204q0 85 -123 85h-96v-172h107q112 0 112 87z" />
    <glyph glyph-name="afii10059" unicode="&#x40a;" horiz-adv-x="1073" 
d="M665 621v-217h106q260 0 260 -200q0 -56 -21.5 -97t-58 -63.5t-78 -33t-88.5 -10.5h-192q-30 0 -51 20.5t-21 49.5v219h-309v-229q0 -29 -21.5 -49.5t-50.5 -20.5q-30 0 -51 20.5t-21 49.5v560q0 29 21 49.5t51 20.5t51 -20.5t21 -49.5v-217h309v218q0 29 21.5 49.5
t50.5 20.5q30 0 51 -20.5t21 -49.5zM884 204q0 85 -124 85h-95v-172h106q113 0 113 87z" />
    <glyph glyph-name="afii10060" unicode="&#x40b;" horiz-adv-x="761" 
d="M531 553h-165v-146q21 25 54 41q41 19 85 19q86 0 138 -44q61 -53 61 -155v-213q0 -27 -19.5 -45.5t-46.5 -18.5q-28 0 -47.5 18.5t-19.5 45.5v191q0 53 -24 83q-25 30 -71 30q-59 0 -88 -45q-22 -35 -22 -81v-173q0 -29 -21.5 -49.5t-50.5 -20.5t-50.5 20.5t-21.5 49.5
v493h-165q-25 0 -43.5 19t-18.5 45t18.5 45t43.5 19h474q26 0 44.5 -19t18.5 -45t-18.5 -45t-44.5 -19z" />
    <glyph glyph-name="afii10061" unicode="&#x40c;" horiz-adv-x="620" 
d="M567 573l-188 -222l197 -239q20 -24 20 -51q0 -30 -20 -50.5t-50 -20.5q-36 0 -62 32l-203 257h-49v-219q0 -28 -21.5 -48.5t-50.5 -20.5q-30 0 -51 20t-21 49v561q0 29 21 49.5t51 20.5t51 -20.5t21 -49.5v-215h48l200 255q22 30 58 30q29 0 48.5 -20.5t19.5 -50.5
q0 -23 -19 -47zM229 813q0 15 9 31l53 105q16 33 47 33q21 0 36.5 -14.5t15.5 -34.5q0 -12 -13 -34l-61 -100q-18 -28 -43 -28q-18 0 -31 12t-13 30z" />
    <glyph glyph-name="afii10062" unicode="&#x40e;" horiz-adv-x="573" 
d="M96 115q76 0 125 67l-201 393q-12 21 -12 44q0 30 21 51t51 21q48 0 73 -53l142 -295l129 295q23 53 73 53q29 0 49.5 -20t20.5 -50q0 -15 -11 -43l-168 -378q-94 -210 -288 -210q-35 0 -54.5 17.5t-19.5 44.5t18.5 45t51.5 18zM285 876q22 0 38.5 12t24.5 27t21 27
t30 12q20 0 34 -13.5t14 -32.5q0 -52 -50 -89t-112 -37t-112 37t-50 89q0 19 14 32.5t34 13.5q17 0 30 -12t21 -27t24.5 -27t38.5 -12z" />
    <glyph glyph-name="afii10145" unicode="&#x40f;" horiz-adv-x="718" 
d="M650 621v-551q0 -29 -21 -49.5t-51 -20.5h-147v-180q0 -29 -21 -49.5t-51 -20.5t-51 20.5t-21 49.5v180h-147q-30 0 -51 20.5t-21 49.5v551q0 29 21 49.5t51 20.5t51 -20.5t21 -49.5v-493h294v493q0 29 21 49.5t51 20.5t51 -20.5t21 -49.5z" />
    <glyph glyph-name="afii10017" unicode="&#x410;" horiz-adv-x="617" 
d="M309 510l-89 -256h176zM466 38l-35 100h-247l-35 -100q-16 -48 -71 -48q-31 0 -50 19.5t-19 46.5q0 8 8 32l192 528q27 75 101 75q76 0 102 -75l189 -528q7 -19 7 -32q0 -30 -20.5 -48t-52.5 -18q-55 0 -69 48z" />
    <glyph glyph-name="afii10018" unicode="&#x411;" horiz-adv-x="619" 
d="M212 404h106q259 0 259 -200q0 -56 -21 -97t-57.5 -63.5t-78.5 -33t-89 -10.5h-191q-31 0 -51.5 20.5t-20.5 49.5v541q0 29 20.5 49.5t51.5 20.5h335q25 0 43 -19t18 -45t-18 -45t-43 -19h-263v-149zM430 204q0 85 -123 85h-95v-172h106q112 0 112 87z" />
    <glyph glyph-name="afii10019" unicode="&#x412;" horiz-adv-x="619" 
d="M577 185q0 -89 -67 -137t-160 -48h-210q-31 0 -51.5 20.5t-20.5 49.5v541q0 29 20.5 49.5t51.5 20.5h174q83 0 145 -45t62 -128q0 -107 -85 -146v-2q141 -33 141 -175zM377 489q0 36 -25 56t-64 20h-76v-161h75q36 0 63 19t27 66zM430 203q0 40 -28.5 63t-88.5 23h-101
v-172h106q112 0 112 86z" />
    <glyph glyph-name="afii10020" unicode="&#x413;" horiz-adv-x="542" 
d="M68 60v551q0 29 20.5 49.5t51.5 20.5h324q26 0 44 -19t18 -45t-18 -45t-44 -19h-252v-493q0 -29 -21 -49.5t-51 -20.5q-31 0 -51.5 20.5t-20.5 49.5z" />
    <glyph glyph-name="afii10021" unicode="&#x414;" horiz-adv-x="860" 
d="M359 476q0 -232 -58 -348h249v425h-191v-77zM287 681h335q30 0 51 -20.5t21 -49.5v-483h78q30 0 51 -20.5t21 -49.5v-226q0 -29 -21 -49.5t-51 -20.5q-31 0 -51.5 20.5t-20.5 49.5v168h-539v-168q0 -29 -21 -49.5t-51 -20.5q-31 0 -51.5 20.5t-20.5 49.5v226
q0 29 20.5 49.5t51.5 20.5h66q37 65 48.5 146t11.5 202v135q0 29 21 49.5t51 20.5z" />
    <glyph glyph-name="afii10022" unicode="&#x415;" horiz-adv-x="627" 
d="M212 279v-151h323q26 0 44 -19t18 -45t-18 -45t-44 -19h-395q-31 0 -51.5 20.5t-20.5 49.5v541q0 29 20.5 49.5t51.5 20.5h395q26 0 44 -19t18 -45t-18 -45t-44 -19h-323v-147h271q25 0 43 -19t18 -45t-18 -44.5t-43 -18.5h-271z" />
    <glyph glyph-name="afii10024" unicode="&#x416;" horiz-adv-x="957" 
d="M906 573l-188 -222l197 -239q20 -24 20 -51q0 -30 -20 -50.5t-50 -20.5q-36 0 -62 32l-203 257h-49v-219q0 -28 -21.5 -48.5t-50.5 -20.5q-30 0 -51 20t-21 49v219h-50l-202 -257q-25 -32 -63 -32q-30 0 -50 20.5t-20 50.5q0 27 20 51l197 239l-187 222q-20 23 -20 47
q0 30 19.5 50.5t49.5 20.5q35 0 57 -30l200 -255h49v215q0 29 21 49.5t51 20.5t51 -20.5t21 -49.5v-215h48l200 255q23 30 58 30q29 0 48.5 -20.5t19.5 -50.5q0 -23 -19 -47z" />
    <glyph glyph-name="afii10025" unicode="&#x417;" horiz-adv-x="522" 
d="M354 356q127 -46 127 -174q0 -84 -64.5 -138t-175.5 -54q-67 0 -120 15q-87 26 -87 79q0 24 17.5 41t43.5 17q12 0 22 -3t26 -11.5t20 -10.5q32 -14 70 -14q53 0 83 25t30 67q0 57 -55 83q-27 13 -77 13h-66q-23 0 -39.5 16t-16.5 40q0 23 16.5 39.5t39.5 16.5h50
q52 0 81 14q46 21 46 75q0 31 -24 54.5t-63 23.5q-34 0 -72 -19q-42 -23 -60 -23q-27 0 -44.5 17.5t-17.5 43.5q0 19 11.5 34.5t24.5 23t33 16.5q59 27 135 27q96 0 151 -51.5t55 -127.5q0 -112 -100 -155z" />
    <glyph glyph-name="afii10026" unicode="&#x418;" horiz-adv-x="737" 
d="M525 60v350l-313 -321v-29q0 -29 -21.5 -49.5t-50.5 -20.5q-30 0 -51 20.5t-21 49.5v560q0 29 21 49.5t51 20.5t51 -20.5t21 -49.5v-354l313 321v33q0 29 21.5 49.5t50.5 20.5q31 0 51.5 -20.5t20.5 -49.5v-560q0 -29 -21.5 -49.5t-50.5 -20.5t-50.5 20.5t-21.5 49.5z
" />
    <glyph glyph-name="afii10027" unicode="&#x419;" horiz-adv-x="737" 
d="M525 60v350l-313 -321v-29q0 -29 -21.5 -49.5t-50.5 -20.5q-30 0 -51 20.5t-21 49.5v560q0 29 21 49.5t51 20.5t51 -20.5t21 -49.5v-354l313 321v33q0 29 21.5 49.5t50.5 20.5q31 0 51.5 -20.5t20.5 -49.5v-560q0 -29 -21.5 -49.5t-50.5 -20.5t-50.5 20.5t-21.5 49.5z
M370 876q22 0 38.5 12t24.5 27t21 27t30 12q20 0 34 -13.5t14 -32.5q0 -52 -50 -89t-112 -37t-112 37t-50 89q0 19 14 32.5t34 13.5q17 0 30 -12t21 -27t24.5 -27t38.5 -12z" />
    <glyph glyph-name="afii10028" unicode="&#x41a;" horiz-adv-x="618" 
d="M567 573l-188 -222l197 -239q20 -24 20 -51q0 -30 -20 -50.5t-50 -20.5q-36 0 -62 32l-203 257h-49v-219q0 -28 -21.5 -48.5t-50.5 -20.5q-30 0 -51 20t-21 49v561q0 29 21 49.5t51 20.5t51 -20.5t21 -49.5v-215h48l200 255q22 30 58 30q29 0 48.5 -20.5t19.5 -50.5
q0 -23 -19 -47z" />
    <glyph glyph-name="afii10029" unicode="&#x41b;" horiz-adv-x="709" 
d="M22 61q0 23 28.5 66t39.5 77q28 85 28 272v135q0 29 21.5 49.5t50.5 20.5h379q31 0 51.5 -20.5t20.5 -49.5v-551q0 -29 -20.5 -49.5t-51.5 -20.5q-30 0 -51 20.5t-21 49.5v493h-235v-77q0 -261 -67 -397q-42 -89 -101 -89q-30 0 -51 20.5t-21 50.5z" />
    <glyph glyph-name="afii10030" unicode="&#x41c;" horiz-adv-x="839" 
d="M68 602q0 38 25 63t65 25q52 0 79 -45l182 -317l184 317q25 45 78 45q41 0 66 -25t25 -63v-545q0 -28 -19.5 -47.5t-50.5 -19.5t-50 19.5t-19 47.5v374l-143 -241q-26 -44 -70 -44t-70 44l-143 241v-374q0 -28 -19.5 -47.5t-50.5 -19.5t-50 19.5t-19 47.5v545z" />
    <glyph glyph-name="afii10031" unicode="&#x41d;" horiz-adv-x="733" 
d="M68 60v560q0 29 21 49.5t51 20.5t51 -20.5t21 -49.5v-214h309v214q0 29 21.5 49.5t50.5 20.5q30 0 51 -20.5t21 -49.5v-560q0 -29 -21.5 -49.5t-50.5 -20.5t-50.5 20.5t-21.5 49.5v219h-309v-219q0 -29 -21.5 -49.5t-50.5 -20.5q-30 0 -51 20.5t-21 49.5z" />
    <glyph glyph-name="afii10032" unicode="&#x41e;" horiz-adv-x="809" 
d="M769 339q0 -155 -104 -252t-260 -97t-260.5 97t-104.5 252q0 156 104.5 253.5t260.5 97.5q155 0 259.5 -98t104.5 -253zM616 339q0 92 -60 154t-151 62t-151.5 -62t-60.5 -154t60.5 -153.5t151.5 -61.5t151 61.5t60 153.5z" />
    <glyph glyph-name="afii10033" unicode="&#x41f;" horiz-adv-x="718" 
d="M650 611v-551q0 -29 -21 -49.5t-51 -20.5t-51 20.5t-21 49.5v493h-294v-493q0 -29 -21 -49.5t-51 -20.5t-51 20.5t-21 49.5v551q0 29 21 49.5t51 20.5h438q30 0 51 -20.5t21 -49.5z" />
    <glyph glyph-name="afii10034" unicode="&#x420;" horiz-adv-x="647" 
d="M140 681h226q101 0 163 -51q83 -68 83 -187q0 -123 -90 -192q-60 -46 -156 -46h-154v-145q0 -29 -21.5 -49.5t-50.5 -20.5q-30 0 -51 20.5t-21 49.5v551q0 29 21 49.5t51 20.5zM466 443q0 64 -43 92q-28 20 -76 20h-135v-224h132q48 0 77 19q45 27 45 93z" />
    <glyph glyph-name="afii10035" unicode="&#x421;" horiz-adv-x="654" 
d="M619 596q0 -29 -19.5 -48t-47.5 -19q-16 0 -57.5 16t-91.5 16q-88 0 -150 -63.5t-62 -156.5q0 -96 61 -158t151 -62q55 0 99.5 17t59.5 17q28 0 47.5 -19t19.5 -48q0 -46 -60 -70q-74 -28 -165 -28q-159 0 -261.5 96t-102.5 255q0 147 108.5 248t257.5 101q86 0 155 -25
q58 -22 58 -69z" />
    <glyph glyph-name="afii10036" unicode="&#x422;" horiz-adv-x="599" 
d="M537 553h-166v-493q0 -29 -21.5 -49.5t-50.5 -20.5t-50.5 20.5t-21.5 49.5v493h-165q-25 0 -43.5 19t-18.5 45t18.5 45t43.5 19h475q25 0 43.5 -19t18.5 -45t-18.5 -45t-43.5 -19z" />
    <glyph glyph-name="afii10037" unicode="&#x423;" horiz-adv-x="573" 
d="M96 115q76 0 125 67l-201 393q-12 21 -12 44q0 30 21 51t51 21q48 0 73 -53l142 -295l129 295q23 53 73 53q29 0 49.5 -20t20.5 -50q0 -15 -11 -43l-168 -378q-94 -210 -288 -210q-35 0 -54.5 17.5t-19.5 44.5t18.5 45t51.5 18z" />
    <glyph glyph-name="afii10038" unicode="&#x424;" horiz-adv-x="814" 
d="M479 220h25q48 0 77 20q45 31 45 100t-45 100q-29 20 -77 20h-25v-240zM335 220v240h-25q-49 0 -78 -20q-45 -32 -45 -100t45 -100q29 -20 78 -20h25zM773 340q0 -128 -89 -198q-64 -48 -163 -48h-42v-34q0 -29 -21.5 -49.5t-50.5 -20.5q-30 0 -51 20.5t-21 49.5v34h-41
q-102 0 -164 48q-89 68 -89 198q0 127 89 198q61 48 164 48h41v34q0 29 21 49.5t51 20.5t51 -20.5t21 -49.5v-34h42q102 0 163 -48q89 -71 89 -198z" />
    <glyph glyph-name="afii10039" unicode="&#x425;" horiz-adv-x="645" 
d="M172 659l152 -204l150 204q22 31 63 31q32 0 57.5 -21.5t25.5 -54.5q0 -22 -16 -43l-187 -229l193 -234q16 -17 16 -42q0 -31 -25 -53.5t-58 -22.5q-41 0 -63 31l-156 208l-159 -208q-22 -31 -64 -31q-32 0 -57 21.5t-25 53.5q0 26 16 43l196 231l-189 232q-17 22 -17 43
q0 31 25.5 53.5t58.5 22.5q41 0 63 -31z" />
    <glyph glyph-name="afii10040" unicode="&#x426;" horiz-adv-x="817" 
d="M800 58v-238q0 -29 -21 -49.5t-51 -20.5t-51 20.5t-21 49.5v180h-516q-30 0 -51 20.5t-21 49.5v551q0 29 21 49.5t51 20.5t51 -20.5t21 -49.5v-493h294v493q0 29 21 49.5t51 20.5t51 -20.5t21 -49.5v-493h78q30 0 51 -20.5t21 -49.5z" />
    <glyph glyph-name="afii10041" unicode="&#x427;" horiz-adv-x="668" 
d="M54 466v155q0 29 21.5 49.5t50.5 20.5q30 0 51 -20.5t21 -49.5v-153q0 -62 27 -89.5t87 -27.5q61 0 145 26v244q0 29 21 49.5t51 20.5t51 -20.5t21 -49.5v-561q0 -29 -21.5 -49.5t-50.5 -20.5q-30 0 -51 20.5t-21 49.5v184q-81 -23 -155 -23q-248 0 -248 245z" />
    <glyph glyph-name="afii10042" unicode="&#x428;" horiz-adv-x="1092" 
d="M1024 621v-551q0 -29 -20.5 -49.5t-51.5 -20.5h-812q-30 0 -51 20.5t-21 49.5v551q0 29 21 49.5t51 20.5t51 -20.5t21 -49.5v-493h262v493q0 29 21 49.5t51 20.5t51 -20.5t21 -49.5v-493h262v493q0 29 21 49.5t51 20.5q31 0 51.5 -20.5t20.5 -49.5z" />
    <glyph glyph-name="afii10043" unicode="&#x429;" horiz-adv-x="1191" 
d="M1030 0h-890q-30 0 -51 20.5t-21 49.5v551q0 29 21 49.5t51 20.5t51 -20.5t21 -49.5v-493h262v493q0 29 21 49.5t51 20.5t51 -20.5t21 -49.5v-493h262v493q0 29 21 49.5t51 20.5q31 0 51.5 -20.5t20.5 -49.5v-493h78q31 0 51.5 -20.5t20.5 -49.5v-238q0 -29 -20.5 -49.5
t-51.5 -20.5q-30 0 -51 20.5t-21 49.5v180z" />
    <glyph glyph-name="afii10044" unicode="&#x42a;" horiz-adv-x="803" 
d="M615 204q0 85 -124 85h-95v-172h106q113 0 113 87zM396 611v-207h106q260 0 260 -200q0 -56 -21.5 -97t-58 -63.5t-78 -33t-89.5 -10.5h-191q-30 0 -51 20.5t-21 49.5v483h-171q-25 0 -43 19t-18 45t18 45t43 19h243q30 0 51 -20.5t21 -49.5z" />
    <glyph glyph-name="afii10045" unicode="&#x42b;" horiz-adv-x="898" 
d="M430 204q0 85 -123 85h-95v-172h106q112 0 112 87zM212 621v-217h106q259 0 259 -200q0 -56 -21 -97t-57.5 -63.5t-78.5 -33t-89 -10.5h-191q-31 0 -51.5 20.5t-20.5 49.5v551q0 29 21 49.5t51 20.5t51 -20.5t21 -49.5zM687 60v560q0 29 21 49.5t51 20.5t51 -20.5
t21 -49.5v-560q0 -29 -21.5 -49.5t-50.5 -20.5q-30 0 -51 20.5t-21 49.5z" />
    <glyph glyph-name="afii10046" unicode="&#x42c;" horiz-adv-x="619" 
d="M430 204q0 85 -123 85h-95v-172h106q112 0 112 87zM212 621v-217h106q259 0 259 -200q0 -56 -21 -97t-57.5 -63.5t-78.5 -33t-89 -10.5h-191q-31 0 -51.5 20.5t-20.5 49.5v551q0 29 21 49.5t51 20.5t51 -20.5t21 -49.5z" />
    <glyph glyph-name="afii10047" unicode="&#x42d;" horiz-adv-x="654" 
d="M35 596q0 46 59 68q70 26 155 26q140 0 244 -90q56 -48 88.5 -115t32.5 -144q0 -175 -124 -273q-98 -78 -240 -78q-89 0 -164 29q-61 24 -61 69q0 29 19.5 48t47.5 19q9 0 19.5 -3.5t26.5 -9.5t30 -10q40 -11 84 -11q74 0 131 44q53 42 70 114h-279q-26 0 -44 18.5
t-18 44.5t18 44.5t44 18.5h277q-15 61 -65 105q-59 51 -134 51q-44 0 -81 -11q-12 -3 -26.5 -9t-24.5 -9t-18 -3q-28 0 -47.5 19t-19.5 48z" />
    <glyph glyph-name="afii10048" unicode="&#x42e;" horiz-adv-x="1113" 
d="M1072 340q0 -153 -106.5 -251t-257.5 -98q-134 0 -235.5 80t-123.5 208h-137v-219q0 -29 -21.5 -49.5t-50.5 -20.5q-30 0 -51 20.5t-21 49.5v560q0 29 21 49.5t51 20.5t51 -20.5t21 -49.5v-214h138q23 126 124 205.5t234 79.5q150 0 257 -99t107 -252zM919 340
q0 92 -60 154t-151 62t-151.5 -62t-60.5 -154t60.5 -153.5t151.5 -61.5t151 61.5t60 153.5z" />
    <glyph glyph-name="afii10049" unicode="&#x42f;" horiz-adv-x="675" 
d="M463 60v177h-140l-141 -213q-23 -34 -61 -34q-30 0 -51 21t-21 52q0 21 12 38l112 161q-26 13 -48 31q-76 66 -76 167q0 117 79 175q62 46 172 46h235q31 0 51.5 -20.5t20.5 -49.5v-551q0 -29 -20.5 -49.5t-51.5 -20.5q-29 0 -50.5 20.5t-21.5 49.5zM463 559h-152
q-48 0 -78 -19q-38 -26 -38 -82q0 -57 41 -83q27 -17 77 -17h150v201z" />
    <glyph glyph-name="afii10065" unicode="&#x430;" horiz-adv-x="487" 
d="M34 131q0 42 21.5 71.5t62 45t82 23.5t98.5 12v8q0 36 -14 54q-16 20 -54 20q-28 0 -68 -15.5t-58 -15.5q-20 0 -34 14t-14 34q0 40 58 63q57 22 132 22q97 0 144 -52q40 -43 40 -121v-240q0 -26 -20 -45t-46 -19q-37 0 -55 28q-49 -28 -123 -28q-65 0 -108.5 38.5
t-43.5 102.5zM228 88q39 0 70 19v87q-138 -5 -138 -59q0 -23 19 -35t49 -12z" />
    <glyph glyph-name="afii10066" unicode="&#x431;" horiz-adv-x="573" 
d="M167 276q0 -182 120 -182q53 0 85.5 31t32.5 86q0 54 -33.5 85t-80.5 31q-73 0 -123 -42q-1 -2 -1 -9zM39 276q0 166 114 244q33 23 91.5 46.5t86.5 41.5q20 12 53 51q25 30 55 30t47 -24t6 -52q-15 -41 -53 -72q-29 -23 -98 -48.5t-86 -34.5q-56 -32 -76 -76
q66 35 150 35q89 0 147 -54t58 -152q0 -104 -72 -162.5t-175 -58.5q-127 0 -187.5 80.5t-60.5 205.5z" />
    <glyph glyph-name="afii10067" unicode="&#x432;" horiz-adv-x="510" 
d="M471 127q0 -65 -46.5 -96t-121.5 -31h-171q-27 0 -46.5 18.5t-19.5 44.5v333q0 26 19.5 44.5t46.5 18.5h143q69 0 112.5 -31.5t43.5 -89.5t-46 -94q86 -26 86 -117zM305 323q0 20 -15.5 30t-36.5 10h-60v-82h62q20 0 35 10t15 32zM341 140q0 45 -67 45h-81v-89h82
q66 0 66 44z" />
    <glyph glyph-name="afii10068" unicode="&#x433;" horiz-adv-x="434" 
d="M369 342h-172v-289q0 -25 -19.5 -44t-45.5 -19q-27 0 -46.5 18.5t-19.5 44.5v343q0 26 19.5 44.5t46.5 18.5h237q24 0 41.5 -17.5t17.5 -42.5q0 -24 -17.5 -40.5t-41.5 -16.5z" />
    <glyph glyph-name="afii10069" unicode="&#x434;" horiz-adv-x="737" 
d="M452 342h-138q-7 -140 -51 -225h189v225zM186 396q0 26 19 44.5t46 18.5h267q28 0 47 -18.5t19 -44.5v-279h70q28 0 46.5 -18.5t18.5 -44.5v-164q0 -26 -18.5 -45t-46.5 -19t-46.5 19t-18.5 45v110h-433v-110q0 -26 -19 -45t-46 -19q-28 0 -47 19t-19 45v164
q0 26 19 44.5t47 18.5h40q53 92 55 279z" />
    <glyph glyph-name="afii10070" unicode="&#x435;" horiz-adv-x="526" 
d="M425 126q21 0 35 -15.5t14 -37.5q0 -38 -57 -61q-53 -22 -130 -22q-116 0 -181 67q-67 69 -67 177q0 102 65 169q64 64 169 64q103 0 163 -60q57 -58 57 -144q0 -35 -17 -54.5t-48 -19.5h-250q18 -94 118 -94q40 0 78.5 15.5t50.5 15.5zM177 276h188q-3 37 -27.5 62
t-63.5 25q-82 0 -97 -87z" />
    <glyph glyph-name="afii10072" unicode="&#x436;" horiz-adv-x="740" 
d="M436 403v-114h48l118 150q21 28 52 28q27 0 45 -19t18 -46q0 -22 -17 -42l-105 -122l113 -137q19 -24 19 -46q0 -28 -18.5 -46.5t-46.5 -18.5q-35 0 -57 30l-122 154h-47v-121q0 -26 -19.5 -44.5t-46.5 -18.5t-46.5 18.5t-19.5 44.5v121h-47l-122 -154q-22 -30 -57 -30
q-28 0 -46.5 18.5t-18.5 46.5q0 22 19 46l113 137l-105 122q-17 20 -17 42q0 27 18 46t45 19q31 0 52 -28l118 -150h48v114q0 27 19.5 45.5t46.5 18.5t46.5 -18.5t19.5 -45.5z" />
    <glyph glyph-name="afii10073" unicode="&#x437;" horiz-adv-x="413" 
d="M376 125q0 -60 -49 -97.5t-136 -37.5q-68 0 -112 16q-49 19 -49 56q0 24 16 39.5t42 15.5q13 0 39 -11q30 -14 59 -14q63 0 63 44q0 31 -40 41q-20 5 -56 5q-25 0 -43 12t-18 39q0 23 14 37t38 14q38 0 58 6q32 10 32 35q0 15 -12.5 25t-32.5 10q-29 0 -57 -15
q-26 -12 -39 -12q-24 0 -39.5 16t-15.5 39q0 32 38 53q49 26 117 26q76 0 119.5 -37.5t43.5 -91.5q0 -68 -61 -98q81 -31 81 -115z" />
    <glyph glyph-name="afii10074" unicode="&#x438;" horiz-adv-x="599" 
d="M401 54v196l-203 -181v-15q0 -26 -20 -45t-46 -19q-28 0 -47 19t-19 45v349q0 26 19 45t47 19t47 -19t19 -45v-197l203 182v15q0 26 20 45t46 19q28 0 47 -19t19 -45v-349q0 -26 -19 -45t-47 -19t-47 19t-19 45z" />
    <glyph glyph-name="afii10075" unicode="&#x439;" horiz-adv-x="599" 
d="M401 54v196l-203 -181v-15q0 -26 -20 -45t-46 -19q-28 0 -47 19t-19 45v349q0 26 19 45t47 19t47 -19t19 -45v-197l203 182v15q0 26 20 45t46 19q28 0 47 -19t19 -45v-349q0 -26 -19 -45t-47 -19t-47 19t-19 45zM299 665q22 0 38.5 12t24.5 27t21 27t30 12q20 0 34 -13.5
t14 -32.5q0 -52 -50 -89t-112 -37t-112 37t-50 89q0 19 14 32.5t34 13.5q17 0 30 -12t21 -27t24.5 -27t38.5 -12z" />
    <glyph glyph-name="afii10076" unicode="&#x43a;" horiz-adv-x="501" 
d="M197 403v-114h48l119 150q23 28 51 28t45.5 -19t17.5 -46q0 -22 -17 -42l-105 -122l114 -137q18 -21 18 -46q0 -28 -18 -46.5t-46 -18.5q-33 0 -57 30l-123 154h-47v-121q0 -25 -19.5 -44t-45.5 -19q-27 0 -46.5 18.5t-19.5 44.5v350q0 27 19.5 45.5t46.5 18.5t46 -18.5
t19 -45.5z" />
    <glyph glyph-name="afii10077" unicode="&#x43b;" horiz-adv-x="576" 
d="M379 342h-148q-12 -185 -55 -272q-39 -80 -96 -80q-27 0 -46.5 19t-19.5 46q0 21 26.5 60.5t36.5 71.5q21 64 23 209q0 26 19.5 44.5t46.5 18.5h278q27 0 47 -19t20 -44v-343q0 -25 -20 -44t-46 -19q-27 0 -46.5 18.5t-19.5 44.5v289z" />
    <glyph glyph-name="afii10078" unicode="&#x43c;" horiz-adv-x="668" 
d="M66 52v337q0 34 22 56t57 22q47 0 70 -40l119 -204l117 204q24 40 71 40q36 0 58 -22.5t22 -55.5v-337q0 -25 -18 -43.5t-46 -18.5t-46.5 18t-18.5 44v178l-75 -125q-24 -39 -64 -39q-41 0 -64 39l-75 125v-178q0 -26 -18.5 -44t-46.5 -18t-46 18t-18 44z" />
    <glyph glyph-name="afii10079" unicode="&#x43d;" horiz-adv-x="587" 
d="M391 403q0 27 19 45.5t46 18.5q28 0 46.5 -18.5t18.5 -45.5v-350q0 -26 -19 -44.5t-46 -18.5q-26 0 -45.5 19t-19.5 44v121h-194v-121q0 -25 -19.5 -44t-45.5 -19q-27 0 -46.5 18.5t-19.5 44.5v350q0 27 19.5 45.5t46.5 18.5t46 -18.5t19 -45.5v-114h194v114z" />
    <glyph glyph-name="afii10080" unicode="&#x43e;" horiz-adv-x="573" 
d="M170 228q0 -58 34 -95q33 -36 83 -36q49 0 82 36q35 38 35 95q0 58 -35 96q-33 36 -82 36q-50 0 -83 -36q-34 -37 -34 -96zM39 228q0 111 75 176q69 63 173 63q103 0 172 -63q75 -65 75 -176q0 -110 -75 -175q-68 -63 -172 -63q-105 0 -173 63q-75 65 -75 175z" />
    <glyph glyph-name="afii10081" unicode="&#x43f;" horiz-adv-x="576" 
d="M510 396v-343q0 -25 -19.5 -44t-45.5 -19q-27 0 -46.5 18.5t-19.5 44.5v289h-182v-289q0 -25 -19.5 -44t-45.5 -19q-27 0 -46.5 18.5t-19.5 44.5v343q0 26 19.5 44.5t46.5 18.5h312q27 0 46.5 -18.5t19.5 -44.5z" />
    <glyph glyph-name="afii10082" unicode="&#x440;" horiz-adv-x="551" 
d="M198 356v-249q24 -9 56 -9q58 0 91 29q36 33 36 101q0 57 -32 94q-33 38 -94 38q-23 0 -57 -4zM145 459q45 8 97 8q132 0 206 -72q64 -62 64 -167q0 -101 -54 -162q-66 -76 -190 -76q-41 0 -70 8v-175q0 -26 -20 -45t-46 -19q-27 0 -46.5 19t-19.5 45v547q0 42 19 62
t60 27z" />
    <glyph glyph-name="afii10083" unicode="&#x441;" horiz-adv-x="480" 
d="M455 382q0 -22 -15.5 -38t-37.5 -16q-16 0 -47.5 13t-58.5 13q-57 0 -92 -38q-32 -35 -32 -88q0 -55 33 -91t92 -36q32 0 63.5 12t43.5 12q22 0 37.5 -16t15.5 -39q0 -44 -69 -66q-41 -14 -95 -14q-127 0 -195 73q-60 63 -60 166q0 87 49 147q74 91 209 91q60 0 107 -22
q52 -24 52 -63z" />
    <glyph glyph-name="afii10084" unicode="&#x442;" horiz-adv-x="480" 
d="M416 342h-110v-289q0 -25 -20 -44t-46 -19t-46 19t-20 44v289h-110q-24 0 -41 16.5t-17 40.5q0 25 17 42.5t41 17.5h352q24 0 41.5 -17.5t17.5 -42.5q0 -24 -17.5 -40.5t-41.5 -16.5z" />
    <glyph glyph-name="afii10085" unicode="&#x443;" horiz-adv-x="507" 
d="M423 468q29 0 50 -21t21 -51q0 -15 -12 -49l-141 -372q-40 -107 -108.5 -158t-144.5 -51q-26 0 -44.5 18.5t-18.5 44.5t18.5 44.5t44.5 18.5q74 0 111 76l-174 378q-15 32 -15 48q0 31 21 52.5t52 21.5q51 0 69 -48l112 -280l87 267q20 61 72 61z" />
    <glyph glyph-name="afii10086" unicode="&#x444;" horiz-adv-x="769" 
d="M730 228q0 -102 -50 -163q-59 -75 -170 -75q-36 0 -60 8v-109q0 -26 -19 -44.5t-47 -18.5t-46.5 18.5t-18.5 44.5v109q-24 -8 -60 -8q-112 0 -171 75q-49 60 -49 163q0 104 49 164q59 75 171 75q36 0 60 -8v111q0 26 19 44.5t46 18.5q28 0 47 -18.5t19 -44.5v-111
q24 8 60 8q108 0 170 -75q50 -62 50 -164zM495 359q-27 0 -45 -9v-243q18 -9 45 -9q48 0 74 29q29 32 29 101q0 71 -29 102q-28 29 -74 29zM273 98q27 0 46 9v243q-19 9 -46 9q-46 0 -74 -29q-29 -31 -29 -102q0 -69 29 -101q26 -29 74 -29z" />
    <glyph glyph-name="afii10087" unicode="&#x445;" horiz-adv-x="477" 
d="M467 57q0 -28 -20.5 -47.5t-50.5 -19.5q-18 0 -33 7.5t-23 15t-18 21.5l-84 105l-89 -113q-29 -36 -67 -36q-31 0 -51 19t-20 47q0 5 1 10t2 8.5t3.5 8.5t4 7t5.5 7t5 6.5t6.5 7l6.5 6.5l105 117l-105 119q-24 28 -24 48q0 28 20 47.5t50 19.5q38 0 67 -37l80 -103
l81 102q30 38 66 38q28 0 48 -18.5t20 -44.5q0 -22 -21 -45l-108 -117l119 -136q24 -27 24 -50z" />
    <glyph glyph-name="afii10088" unicode="&#x446;" horiz-adv-x="664" 
d="M516 0h-392q-24 0 -41 17.5t-17 42.5v344q0 26 19.5 44.5t46.5 18.5q26 0 45.5 -19t19.5 -44v-287h182v287q0 26 19.5 44.5t46.5 18.5q26 0 45.5 -19t19.5 -44v-287h71q28 0 46.5 -18.5t18.5 -44.5v-164q0 -26 -19 -45t-46 -19t-46 19t-19 45v110z" />
    <glyph glyph-name="afii10089" unicode="&#x447;" horiz-adv-x="561" 
d="M56 315v88q0 26 19 45t47 19t47 -19t19 -45v-88q0 -42 20 -60.5t62 -18.5q39 0 93 16v151q0 26 19 45t47 19t47 -19t19 -45v-349q0 -26 -20 -45t-46 -19q-28 0 -47 19t-19 45v89q-60 -16 -106 -16q-103 0 -152 45.5t-49 142.5z" />
    <glyph glyph-name="afii10090" unicode="&#x448;" horiz-adv-x="865" 
d="M800 404v-344q0 -25 -17.5 -42.5t-41.5 -17.5h-617q-24 0 -41 17.5t-17 42.5v344q0 26 19.5 44.5t46.5 18.5q26 0 45.5 -19t19.5 -44v-287h170v287q0 26 19.5 44.5t46.5 18.5q26 0 45.5 -19t19.5 -44v-287h170v287q0 25 19.5 44t45.5 19q27 0 47 -19t20 -44z" />
    <glyph glyph-name="afii10091" unicode="&#x449;" horiz-adv-x="953" 
d="M805 0h-681q-24 0 -41 17.5t-17 42.5v344q0 26 19.5 44.5t46.5 18.5q26 0 45.5 -19t19.5 -44v-287h170v287q0 26 19.5 44.5t46.5 18.5q26 0 45.5 -19t19.5 -44v-287h170v287q0 26 19.5 44.5t46.5 18.5q26 0 46 -19t20 -44v-287h70q28 0 46.5 -18.5t18.5 -44.5v-164
q0 -26 -18.5 -45t-46.5 -19t-46.5 19t-18.5 45v110z" />
    <glyph glyph-name="afii10092" unicode="&#x44a;" horiz-adv-x="645" 
d="M476 139q0 46 -72 46h-71v-89h78q65 0 65 43zM201 66v276h-132q-24 0 -41.5 16.5t-17.5 40.5q0 25 17.5 42.5t41.5 17.5h198q27 0 46.5 -18.5t19.5 -44.5v-115h105q75 0 121.5 -36.5t46.5 -105.5t-46 -104t-121 -35h-172q-29 0 -47.5 18.5t-18.5 47.5z" />
    <glyph glyph-name="afii10093" unicode="&#x44b;" horiz-adv-x="730" 
d="M66 66v336q0 27 19.5 46t46.5 19q28 0 47 -19t19 -46v-121h105q75 0 121.5 -36.5t46.5 -105.5t-46 -104t-122 -35h-171q-30 0 -48 18.5t-18 47.5zM341 139q0 46 -72 46h-71v-89h77q66 0 66 43zM532 403q0 26 19 45t47 19t47 -19t19 -45v-349q0 -26 -20 -45t-46 -19
q-28 0 -47 19t-19 45v349z" />
    <glyph glyph-name="afii10094" unicode="&#x44c;" horiz-adv-x="510" 
d="M66 66v336q0 27 19.5 46t46.5 19q28 0 47 -19t19 -46v-121h105q75 0 121.5 -36.5t46.5 -105.5t-46 -104t-122 -35h-171q-30 0 -48 18.5t-18 47.5zM341 139q0 46 -72 46h-71v-89h77q66 0 66 43z" />
    <glyph glyph-name="afii10095" unicode="&#x44d;" horiz-adv-x="481" 
d="M25 382q0 39 52 62q49 23 107 23q136 0 208 -91q50 -59 50 -147q0 -101 -60 -166q-68 -73 -195 -73q-51 0 -95 15q-69 22 -69 65q0 23 15 38.5t37 15.5q12 0 45 -14q30 -10 63 -10q58 0 92 36q21 23 25 51h-188q-17 0 -29.5 12.5t-12.5 30.5q0 17 12.5 30t29.5 13h186
q-6 27 -23 44q-35 38 -92 38q-29 0 -60 -13q-32 -13 -44 -13q-23 0 -38.5 15.5t-15.5 37.5z" />
    <glyph glyph-name="afii10096" unicode="&#x44e;" horiz-adv-x="832" 
d="M197 403v-112h110q15 68 66 113q69 63 173 63q103 0 172 -63q76 -66 76 -176q0 -106 -76 -175q-71 -63 -172 -63q-105 0 -173 63q-53 47 -68 119h-108v-119q0 -25 -19.5 -44t-45.5 -19q-27 0 -46.5 18.5t-19.5 44.5v350q0 27 19.5 45.5t46.5 18.5t46 -18.5t19 -45.5z
M429 228q0 -56 34 -95q34 -36 83 -36t83 36q34 39 34 95q0 57 -34 96q-34 36 -83 36t-83 -36q-34 -39 -34 -96z" />
    <glyph glyph-name="afii10097" unicode="&#x44f;" horiz-adv-x="505" 
d="M311 51v96h-62l-82 -127q-20 -31 -54 -30q-26 0 -44.5 15.5t-18.5 41.5q0 14 12 34l60 92q-74 42 -74 130q0 75 47.5 115t129.5 40h149q27 0 46 -17.5t19 -43.5v-346q0 -25 -19 -43t-45 -18t-45 18t-19 43zM311 350h-80q-52 0 -52 -48q0 -20 10.5 -31t23.5 -13t36 -2h62
v94z" />
    <glyph glyph-name="afii10071" unicode="&#x451;" horiz-adv-x="526" 
d="M425 126q21 0 35 -15.5t14 -37.5q0 -38 -57 -61q-53 -22 -130 -22q-116 0 -181 67q-67 69 -67 177q0 102 65 169q64 64 169 64q103 0 163 -60q57 -58 57 -144q0 -35 -17 -54.5t-48 -19.5h-250q18 -94 118 -94q40 0 78.5 15.5t50.5 15.5zM177 276h188q-3 37 -27.5 62
t-63.5 25q-82 0 -97 -87zM146 584q-31 0 -53.5 22.5t-22.5 54.5q0 31 22 53.5t54 22.5t54 -22t22 -54t-22 -54.5t-54 -22.5zM378 584q-31 0 -53.5 22.5t-22.5 54.5q0 31 22 53.5t54 22.5t54 -22.5t22 -53.5q0 -32 -22.5 -54.5t-53.5 -22.5z" />
    <glyph glyph-name="afii10099" unicode="&#x452;" horiz-adv-x="577" 
d="M198 624v-17h89q21 0 36 -15t15 -37q0 -21 -15 -36.5t-36 -15.5h-89v-91q54 55 136 55q85 0 134 -45q53 -48 53 -144v-189q0 -127 -42 -191q-45 -66 -113 -66q-32 0 -51 17t-19 43q0 7 1 13t5 12t6 9.5t9 9.5t9 7.5t12 8t11 7.5q39 29 39 107v179q0 61 -23 86
q-20 23 -60 23q-58 0 -85 -48q-22 -37 -22 -94v-159q0 -26 -20 -44.5t-47 -18.5t-46.5 18.5t-19.5 44.5v450h-32q-21 0 -35.5 15.5t-14.5 36.5q0 22 14.5 37t35.5 15h32v17q0 27 19.5 46t46.5 19q28 0 47.5 -19t19.5 -46z" />
    <glyph glyph-name="afii10100" unicode="&#x453;" horiz-adv-x="434" 
d="M369 342h-172v-289q0 -25 -19.5 -44t-45.5 -19q-27 0 -46.5 18.5t-19.5 44.5v343q0 26 19.5 44.5t46.5 18.5h237q24 0 41.5 -17.5t17.5 -42.5q0 -24 -17.5 -40.5t-41.5 -16.5zM157 605q0 15 9 31l53 105q16 33 47 33q21 0 36.5 -14.5t15.5 -34.5q0 -12 -13 -34l-61 -100
q-18 -28 -43 -28q-18 0 -31 12t-13 30z" />
    <glyph glyph-name="afii10101" unicode="&#x454;" horiz-adv-x="481" 
d="M456 382q0 -22 -16 -37.5t-38 -15.5q-12 0 -44 13q-31 13 -60 13q-59 0 -92 -38q-17 -17 -23 -44h185q17 0 29.5 -13t12.5 -30q0 -18 -12.5 -30.5t-29.5 -12.5h-187q4 -30 25 -51q33 -36 92 -36q34 0 62 10q35 14 46 14q22 0 37 -15.5t15 -38.5q0 -43 -69 -65
q-43 -15 -95 -15q-127 0 -195 73q-60 63 -60 166q0 88 50 147q72 91 208 91q58 0 107 -23q52 -23 52 -62z" />
    <glyph glyph-name="afii10102" unicode="&#x455;" horiz-adv-x="416" 
d="M379 395q0 -24 -14.5 -39t-35.5 -15q-20 0 -51 11t-54 11q-47 0 -47 -32q0 -23 43 -40q7 -3 41 -15.5t53 -21.5q75 -38 75 -117q0 -64 -51 -105.5t-136 -41.5q-175 0 -175 82q0 22 14.5 37t36.5 15q18 0 53 -15.5t66 -15.5q53 0 53 36q0 15 -10 23.5t-32 18.5
q-12 5 -45.5 17.5t-51.5 21.5q-74 38 -74 121q0 64 47 100.5t133 36.5q72 0 117 -18t45 -55z" />
    <glyph glyph-name="afii10103" unicode="&#x456;" horiz-adv-x="262" 
d="M65 403q0 26 19 45t47 19t47 -19t19 -45v-349q0 -26 -20 -45t-46 -19q-28 0 -47 19t-19 45v349zM131 584q-31 0 -53.5 22t-22.5 54t22.5 54t53.5 22t53.5 -22t22.5 -54t-22.5 -54t-53.5 -22z" />
    <glyph glyph-name="afii10104" unicode="&#x457;" horiz-adv-x="262" 
d="M65 403q0 26 19 45t47 19t47 -19t19 -45v-349q0 -26 -20 -45t-46 -19q-28 0 -47 19t-19 45v349zM16 584q-31 0 -53.5 22.5t-22.5 54.5q0 31 22 53.5t54 22.5t54 -22t22 -54t-22 -54.5t-54 -22.5zM248 584q-31 0 -53.5 22.5t-22.5 54.5q0 31 22 53.5t54 22.5t54 -22.5
t22 -53.5q0 -32 -22.5 -54.5t-53.5 -22.5z" />
    <glyph glyph-name="afii10105" unicode="&#x458;" horiz-adv-x="262" 
d="M65 35v369q0 26 19 45t47 19q27 0 46.5 -19t19.5 -45v-393q0 -128 -49 -196q-40 -53 -99 -53q-31 0 -50.5 13.5t-19.5 40.5q0 19 8 29.5t25.5 25.5t29.5 33q23 34 23 131zM131 584q-31 0 -53.5 22t-22.5 54t22.5 54t53.5 22t53.5 -22t22.5 -54t-22.5 -54t-53.5 -22z" />
    <glyph glyph-name="afii10106" unicode="&#x459;" horiz-adv-x="847" 
d="M678 139q0 46 -72 46h-71v-89h77q66 0 66 43zM100 396q0 26 19.5 44.5t46.5 18.5h302q27 0 47 -19t20 -44v-115h104q76 0 122.5 -36.5t46.5 -105.5t-46 -104t-122 -35h-171q-29 0 -47.5 18.5t-18.5 47.5v276h-172q-12 -185 -55 -272q-39 -80 -96 -80q-27 0 -46.5 19
t-19.5 46q0 21 26.5 60.5t36.5 71.5q21 64 23 209z" />
    <glyph glyph-name="afii10107" unicode="&#x45a;" horiz-adv-x="833" 
d="M391 66v119h-194v-132q0 -25 -19.5 -44t-45.5 -19q-27 0 -46.5 18.5t-19.5 44.5v350q0 27 19.5 45.5t46.5 18.5t46 -18.5t19 -45.5v-122h194v121q0 27 19 46t46 19q28 0 46.5 -19t18.5 -46v-121h105q76 0 122.5 -36.5t46.5 -105.5t-46 -104t-122 -35h-171q-29 0 -47 18.5
t-18 47.5zM665 139q0 46 -72 46h-72v-89h78q66 0 66 43z" />
    <glyph glyph-name="afii10108" unicode="&#x45b;" horiz-adv-x="577" 
d="M65 54v449h-32q-21 0 -35.5 15.5t-14.5 36.5q0 22 14.5 37t35.5 15h32v18q0 27 19.5 45.5t46.5 18.5q28 0 47 -18.5t19 -45.5v-18h90q21 0 36 -15t15 -37q0 -21 -15 -36.5t-36 -15.5h-90v-91q54 55 136 55q85 0 134 -45q53 -48 53 -144v-224q0 -26 -20 -45t-47 -19
t-46.5 19t-19.5 45v191q0 61 -23 86q-20 23 -60 23q-58 0 -85 -48q-22 -37 -22 -94v-158q0 -26 -20 -45t-46 -19q-27 0 -46.5 19t-19.5 45z" />
    <glyph glyph-name="afii10109" unicode="&#x45c;" horiz-adv-x="499" 
d="M197 403v-114h48l119 150q23 28 51 28t45.5 -19t17.5 -46q0 -22 -17 -42l-105 -122l114 -137q18 -21 18 -46q0 -28 -18 -46.5t-46 -18.5q-33 0 -57 30l-123 154h-47v-121q0 -25 -19.5 -44t-45.5 -19q-27 0 -46.5 18.5t-19.5 44.5v350q0 27 19.5 45.5t46.5 18.5t46 -18.5
t19 -45.5zM200 605q0 15 9 31l53 105q16 33 47 33q21 0 36.5 -14.5t15.5 -34.5q0 -12 -13 -34l-61 -100q-18 -28 -43 -28q-18 0 -31 12t-13 30z" />
    <glyph glyph-name="afii10110" unicode="&#x45e;" horiz-adv-x="507" 
d="M423 468q29 0 50 -21t21 -51q0 -15 -12 -49l-141 -372q-40 -107 -108.5 -158t-144.5 -51q-26 0 -44.5 18.5t-18.5 44.5t18.5 44.5t44.5 18.5q74 0 111 76l-174 378q-15 32 -15 48q0 31 21 52.5t52 21.5q51 0 69 -48l112 -280l87 267q20 61 72 61zM253 665q22 0 38.5 12
t24.5 27t21 27t30 12q20 0 34 -13.5t14 -32.5q0 -52 -50 -89t-112 -37t-112 37t-50 89q0 19 14 32.5t34 13.5q17 0 30 -12t21 -27t24.5 -27t38.5 -12z" />
    <glyph glyph-name="afii10193" unicode="&#x45f;" horiz-adv-x="576" 
d="M197 116h181v287q0 26 20 44.5t47 18.5q26 0 45.5 -18.5t19.5 -44.5v-344q0 -24 -17.5 -41.5t-41.5 -17.5h-98v-111q0 -26 -19 -44.5t-46 -18.5q-28 0 -47 18.5t-19 44.5v111h-99q-24 0 -41 17.5t-17 41.5v344q0 26 19.5 44.5t46.5 18.5t46.5 -18.5t19.5 -44.5v-287z" />
    <glyph glyph-name="afii10050" unicode="&#x490;" horiz-adv-x="542" 
d="M68 60v551q0 29 20.5 49.5t51.5 20.5h259v128q0 25 19 43t45 18t44.5 -18t18.5 -43v-194q0 -26 -17.5 -44t-44.5 -18h-252v-493q0 -29 -21 -49.5t-51 -20.5q-31 0 -51.5 20.5t-20.5 49.5z" />
    <glyph glyph-name="afii10098" unicode="&#x491;" horiz-adv-x="434" 
d="M301 459v127q0 25 19 43t44 18q26 0 44.5 -18t18.5 -43v-184q0 -25 -18.5 -42.5t-44.5 -17.5h-167v-289q0 -25 -19.5 -44t-45.5 -19q-27 0 -46.5 18.5t-19.5 44.5v343q0 26 19.5 44.5t46.5 18.5h169z" />
    <glyph glyph-name="endash" unicode="&#x2013;" horiz-adv-x="720" 
d="M147 316h425q25 0 44 -19t19 -45q0 -27 -18.5 -45.5t-44.5 -18.5h-425q-26 0 -44 18.5t-18 45.5q0 26 18.5 45t43.5 19z" />
    <glyph glyph-name="emdash" unicode="&#x2014;" horiz-adv-x="1270" 
d="M147 316h975q25 0 44 -19t19 -45q0 -27 -18.5 -45.5t-44.5 -18.5h-975q-26 0 -44 18.5t-18 45.5q0 26 18.5 45t43.5 19z" />
    <glyph glyph-name="quoteleft" unicode="&#x2018;" horiz-adv-x="280" 
d="M225 667q0 -16 -28.5 -39t-28.5 -46q0 -13 9.5 -23t21 -16t21 -21t9.5 -38q0 -32 -21 -54.5t-61 -22.5q-45 0 -70.5 30.5t-25.5 80.5q0 73 53.5 123t96.5 50q10 0 17 -7t7 -17z" />
    <glyph glyph-name="quoteright" unicode="&#x2019;" horiz-adv-x="280" 
d="M54 432q0 15 29 38.5t29 46.5q0 13 -9.5 22.5t-21 15.5t-21 21.5t-9.5 38.5q0 32 21 54t61 22q45 0 70.5 -30t25.5 -81q0 -73 -53.5 -122.5t-96.5 -49.5q-11 0 -18 6.5t-7 17.5z" />
    <glyph glyph-name="quotesinglbase" unicode="&#x201a;" horiz-adv-x="273" 
d="M50 -116q0 15 29 38.5t29 46.5q0 13 -9.5 22.5t-21 15.5t-21 21.5t-9.5 38.5q0 32 21 54t61 22q45 0 70.5 -30t25.5 -81q0 -72 -53.5 -122t-96.5 -50q-11 0 -18 6.5t-7 17.5z" />
    <glyph glyph-name="quotedblleft" unicode="&#x201c;" horiz-adv-x="504" 
d="M225 667q0 -16 -28.5 -39t-28.5 -46q0 -13 9.5 -23t21 -16t21 -21t9.5 -38q0 -32 -21 -54.5t-61 -22.5q-45 0 -70.5 30.5t-25.5 80.5q0 73 53.5 123t96.5 50q10 0 17 -7t7 -17zM450 667q0 -16 -29 -39t-29 -46q0 -13 9.5 -23t21 -16t21 -21t9.5 -38q0 -32 -21 -54.5
t-60 -22.5q-45 0 -70.5 30.5t-25.5 80.5q0 73 53.5 123t95.5 50q11 0 18 -7t7 -17z" />
    <glyph glyph-name="quotedblright" unicode="&#x201d;" horiz-adv-x="504" 
d="M54 432q0 15 29 38.5t29 46.5q0 13 -9.5 22.5t-21 15.5t-21 21.5t-9.5 38.5q0 32 21 54t61 22q45 0 70.5 -30t25.5 -81q0 -73 -53.5 -122.5t-96.5 -49.5q-11 0 -18 6.5t-7 17.5zM279 432q0 15 29 38.5t29 46.5q0 13 -9.5 22.5t-21 15.5t-21 21.5t-9.5 38.5q0 32 20.5 54
t60.5 22q45 0 70.5 -30t25.5 -81q0 -73 -53.5 -122.5t-95.5 -49.5q-11 0 -18 6.5t-7 17.5z" />
    <glyph glyph-name="quotedblbase" unicode="&#x201e;" horiz-adv-x="497" 
d="M50 -116q0 15 29 38.5t29 46.5q0 13 -9.5 22.5t-21 15.5t-21 21.5t-9.5 38.5q0 32 21 54t61 22q45 0 70.5 -30t25.5 -81q0 -72 -53.5 -122t-96.5 -50q-11 0 -18 6.5t-7 17.5zM275 -116q0 15 29 38.5t29 46.5q0 13 -9.5 22.5t-21 15.5t-21 21.5t-9.5 38.5q0 32 20.5 54
t60.5 22q45 0 70.5 -30t25.5 -81q0 -72 -53.5 -122t-95.5 -50q-11 0 -18 6.5t-7 17.5z" />
    <glyph glyph-name="dagger" unicode="&#x2020;" horiz-adv-x="513" 
d="M257 -228q-28 0 -48 19.5t-20 47.5q0 19 27 510q-120 -20 -133 -20q-26 0 -44.5 18.5t-18.5 44.5q0 27 18.5 45.5t44.5 18.5q6 0 132 -20q-21 179 -21 192q0 26 18 44.5t45 18.5t45 -18.5t18 -44.5q0 -13 -21 -192q126 20 132 20q26 0 44.5 -18.5t18.5 -45.5
q0 -26 -18.5 -44.5t-44.5 -18.5q-13 0 -133 20q27 -491 27 -510q0 -28 -20 -47.5t-48 -19.5z" />
    <glyph glyph-name="daggerdbl" unicode="&#x2021;" horiz-adv-x="513" 
d="M193 231l23 118q-120 -20 -133 -20q-26 0 -44.5 18.5t-18.5 44.5q0 27 18.5 45.5t44.5 18.5q6 0 132 -20q-21 179 -21 192q0 26 18 44.5t45 18.5t45 -18.5t18 -44.5q0 -13 -21 -192q126 20 132 20q26 0 44.5 -18.5t18.5 -45.5q0 -26 -18.5 -44.5t-44.5 -18.5
q-13 0 -133 20l23 -118l-23 -117q120 20 133 20q26 0 44.5 -19t18.5 -45t-18.5 -44.5t-44.5 -18.5q-13 0 -132 20q21 -180 21 -193q0 -26 -18 -44.5t-45 -18.5t-45 18.5t-18 44.5q0 13 21 193q-119 -20 -132 -20q-26 0 -44.5 18.5t-18.5 44.5t18.5 45t44.5 19q13 0 133 -20z
" />
    <glyph glyph-name="bullet" unicode="&#x2022;" horiz-adv-x="510" 
d="M53 341q0 83 59.5 142.5t142.5 59.5t142.5 -59.5t59.5 -142.5t-59.5 -142.5t-142.5 -59.5t-142.5 59.5t-59.5 142.5z" />
    <glyph glyph-name="ellipsis" unicode="&#x2026;" horiz-adv-x="923" 
d="M875 70q0 -33 -23.5 -56t-55.5 -23q-33 0 -56.5 23t-23.5 56q0 34 23.5 57t56.5 23q32 0 55.5 -23t23.5 -57zM540 70q0 -33 -23 -56t-56 -23t-56 23t-23 56q0 34 23 57t56 23t56 -23t23 -57zM206 70q0 -33 -23.5 -56t-56.5 -23t-56 23t-23 56q0 34 23 57t56 23t56.5 -23
t23.5 -57z" />
    <glyph glyph-name="perthousand" unicode="&#x2030;" horiz-adv-x="1067" 
d="M261 538q0 34 -24 57.5t-59 23.5q-34 0 -58 -23.5t-24 -57.5t24 -58t58 -24q35 0 59 23.5t24 58.5zM331 538q0 -63 -45.5 -108t-107.5 -45q-63 0 -108 44.5t-45 108.5q0 63 45 108t108 45q62 0 107.5 -45t45.5 -108zM587 626l-397 -616q-11 -20 -34 -20q-17 0 -29.5 12
t-12.5 29q0 8 7 24l397 616q11 20 34 20q18 0 30 -12.5t12 -29.5q0 -9 -7 -23zM448 143q0 -34 24 -58t58 -24t58 24t24 58t-24 58t-58 24t-58 -24t-24 -58zM377 143q0 63 45.5 108t107.5 45q63 0 108 -44.5t45 -108.5q0 -63 -45 -108t-108 -45q-62 0 -107.5 45t-45.5 108z
M807 143q0 -34 24 -58t58 -24t58 24t24 58t-24 58t-58 24t-58 -24t-24 -58zM736 143q0 63 45.5 108t107.5 45q63 0 108 -44.5t45 -108.5q0 -63 -45 -108t-108 -45q-62 0 -107.5 45t-45.5 108z" />
    <glyph glyph-name="guilsinglleft" unicode="&#x2039;" horiz-adv-x="369" 
d="M269 -10q-25 0 -43 18l-168 175q-18 18 -18 42t18 42l168 175q18 18 44 18q24 0 42 -17.5t18 -41.5t-17 -43l-129 -133l129 -133q17 -19 17 -43q0 -25 -18 -42t-43 -17z" />
    <glyph glyph-name="guilsinglright" unicode="&#x203a;" horiz-adv-x="370" 
d="M100 -10q-24 0 -42 17t-18 42q0 26 16 43l129 133l-129 133q-16 17 -16 43q0 25 17.5 42t41.5 17q26 0 44 -18l168 -175q19 -19 19 -42t-19 -42l-168 -175q-18 -18 -43 -18z" />
    <glyph glyph-name="fraction" unicode="&#x2044;" horiz-adv-x="410" 
d="M3 94l285 558q22 41 65 41q26 0 46.5 -19.5t20.5 -44.5q0 -22 -11 -41l-285 -557q-22 -42 -64 -42q-27 0 -47.5 19.5t-20.5 45.5q0 18 11 40z" />
    <glyph glyph-name="Euro" unicode="&#x20ac;" 
d="M19 308h26q-1 11 -1 34l1 29h-26q-15 0 -25 10.5t-10 25.5t10 26t25 11h39q33 113 130 180t211 67q80 0 150 -26q57 -22 57 -69q0 -29 -19 -48t-46 -19q-13 0 -53.5 16.5t-92.5 16.5q-55 0 -106 -31.5t-78 -86.5h260q14 0 25 -11t11 -26t-11 -25.5t-25 -10.5h-280
q-2 -20 -2 -29q0 -23 2 -34h228q14 0 25 -11.5t11 -26.5t-11 -25.5t-25 -10.5h-207q27 -54 76.5 -83t106.5 -29q46 0 81 10q13 4 30.5 10.5t28.5 10t19 3.5q27 0 44.5 -18.5t17.5 -48.5q0 -45 -59 -69q-73 -29 -160 -29q-123 0 -215.5 64t-123.5 179h-39q-15 0 -25 10.5
t-10 25.5t10 26.5t25 11.5z" />
    <glyph glyph-name="afii61352" unicode="&#x2116;" horiz-adv-x="1316" 
d="M675 624v-556q0 -33 -24 -55.5t-59 -22.5q-44 0 -70 36l-317 415v-386q0 -27 -20 -46t-49 -19q-28 0 -48 19t-20 46v557q0 32 24 55t58 23q43 0 70 -37l317 -414v385q0 27 20.5 46.5t48.5 19.5t48.5 -19.5t20.5 -46.5zM912 452q0 -57 34 -96q34 -36 83 -36t83 36
q34 39 34 96q0 56 -34 95q-34 36 -83 36t-83 -36q-34 -39 -34 -95zM781 452q0 109 76 175q68 63 172 63q105 0 173 -63q75 -65 75 -175q0 -111 -75 -176q-69 -63 -173 -63q-103 0 -172 63q-76 66 -76 176zM1218 0h-378q-24 0 -41.5 16.5t-17.5 40.5q0 25 17.5 42.5
t41.5 17.5h378q24 0 41.5 -17.5t17.5 -42.5q0 -24 -17.5 -40.5t-41.5 -16.5z" />
    <glyph glyph-name="trademark" unicode="&#x2122;" horiz-adv-x="824" 
d="M304 639h-77v-250q0 -16 -12 -27.5t-29 -11.5t-28.5 11.5t-11.5 27.5v250h-78q-14 0 -24.5 11.5t-10.5 25.5q0 16 10.5 26.5t24.5 10.5h236q15 0 25 -10.5t10 -26.5q0 -15 -10 -26t-25 -11zM566 427q-24 0 -35 22l-70 118v-179q0 -16 -11.5 -27t-27.5 -11t-27.5 11
t-11.5 27v291q0 16 11 27t31 11t30 -7.5t22 -26.5l89 -150l88 150q12 19 22 26.5t30 7.5t31.5 -11t11.5 -27v-291q0 -16 -11.5 -27t-27.5 -11q-17 0 -28.5 11t-11.5 27v179l-70 -118q-11 -22 -34 -22z" />
    <glyph glyph-name="Omega" unicode="&#x2126;" horiz-adv-x="748" 
d="M374 690q142 0 224 -75.5t82 -214.5q0 -98 -54 -188q-25 -39 -76 -100h88q23 0 40 -17t17 -39q0 -23 -17 -39.5t-40 -16.5h-164q-28 0 -44 16t-16 39q0 13 5.5 27.5t11 24t20 31.5t21.5 33q56 92 56 203q0 89 -40 137.5t-114 48.5q-73 0 -113.5 -48.5t-40.5 -137.5
q0 -109 57 -203q6 -10 21 -33t20 -31.5t10.5 -23.5t5.5 -28q0 -23 -16 -39t-43 -16h-165q-23 0 -39.5 16.5t-16.5 39.5q0 22 16.5 39t39.5 17h89q-47 56 -75 100q-55 86 -55 188q0 139 81.5 214.5t223.5 75.5z" />
    <glyph glyph-name="partialdiff" unicode="&#x2202;" horiz-adv-x="518" 
d="M481 226q0 -113 -63.5 -174.5t-159.5 -61.5q-88 0 -147 50q-73 60 -73 169q0 88 57 145q60 59 151 59q26 0 58 -13q-26 43 -61.5 80.5t-71 69t-48.5 47.5q-10 13 -10 31q0 27 17.5 45.5t43.5 18.5q18 0 45 -19q107 -74 184.5 -192.5t77.5 -254.5zM357 226q0 34 -6 65
q-36 20 -85 20q-47 0 -78 -33q-28 -28 -28 -69q0 -52 29 -81q27 -27 69 -27q45 0 72 30.5t27 94.5z" />
    <glyph glyph-name="Delta" unicode="&#x2206;" horiz-adv-x="646" 
d="M530 0h-414q-38 0 -59.5 21t-21.5 51q0 10 7 33l187 513q26 72 94 72t94 -72l187 -513q7 -23 7 -33q0 -30 -21.5 -51t-59.5 -21zM323 477l-122 -352h245z" />
    <glyph glyph-name="product" unicode="&#x220f;" horiz-adv-x="706" 
d="M638 611v-712q0 -29 -21 -49.5t-51 -20.5t-51 20.5t-21 49.5v654h-282v-654q0 -29 -21 -49.5t-51 -20.5t-51 20.5t-21 49.5v712q0 29 21 49.5t51 20.5h426q30 0 51 -20.5t21 -49.5z" />
    <glyph glyph-name="summation" unicode="&#x2211;" horiz-adv-x="547" 
d="M409 291l-165 -166h205q26 0 44.5 -18.5t18.5 -44.5t-18.5 -44t-44.5 -18h-347q-31 0 -48.5 17.5t-17.5 42.5q0 29 21 50l228 230l-228 230q-21 23 -21 50q0 26 17.5 43.5t48.5 17.5h347q26 0 44.5 -18.5t18.5 -44.5q0 -25 -18.5 -43.5t-44.5 -18.5h-205l165 -167
q23 -25 23 -49q0 -26 -23 -49z" />
    <glyph glyph-name="minus" unicode="&#x2212;" horiz-adv-x="541" 
d="M447 291h-351q-25 0 -43 18t-18 44q0 25 18 43.5t43 18.5h351q24 0 41.5 -18.5t17.5 -43.5t-17.5 -43.5t-41.5 -18.5z" />
    <glyph glyph-name="radical" unicode="&#x221a;" horiz-adv-x="750" 
d="M105 278h106q38 0 57 -34l49 -83l279 529q19 35 59 35q27 0 45.5 -19.5t18.5 -46.5q0 -16 -8 -30l-331 -625q-19 -36 -59 -36q-37 0 -57 32l-88 148h-71q-27 0 -46.5 19t-19.5 46t19.5 46t46.5 19z" />
    <glyph glyph-name="infinity" unicode="&#x221e;" horiz-adv-x="786" 
d="M638 269q0 44 -23 72t-68 28q-66 0 -100 -100q34 -100 100 -100q45 0 68 28.5t23 71.5zM393 166q-28 -47 -65 -74t-93 -27q-96 0 -146 57t-50 147t50 147.5t146 57.5q56 0 92.5 -27t65.5 -74q60 101 158 101q96 0 146 -57.5t50 -147.5t-50 -147t-146 -57q-99 0 -158 101z
M148 269q0 -43 22.5 -71.5t67.5 -28.5q67 0 101 100q-34 100 -101 100q-45 0 -67.5 -28t-22.5 -72z" />
    <glyph glyph-name="integral" unicode="&#x222b;" horiz-adv-x="476" 
d="M130 -174h-47q-29 0 -47 18t-18 47q0 28 18 45.5t47 17.5h31q52 0 52 55v485q0 85 48 134t132 49h46q28 0 46.5 -18.5t18.5 -46.5t-18 -45.5t-47 -17.5h-29q-52 0 -52 -55v-485q0 -85 -48.5 -134t-132.5 -49z" />
    <glyph glyph-name="approxequal" unicode="&#x2248;" horiz-adv-x="535" 
d="M186 194q-25 0 -54 -17t-43 -17q-23 0 -38 15t-15 38q0 46 42.5 72t98.5 26q43 0 93.5 -23.5t77.5 -23.5q24 0 52.5 17t44.5 17q23 0 38 -15.5t15 -37.5q0 -47 -42.5 -72.5t-97.5 -25.5q-40 0 -92 23.5t-80 23.5zM186 435q-25 0 -54 -17t-43 -17q-23 0 -38 15.5t-15 37.5
q0 46 42.5 72t98.5 26q43 0 93.5 -23.5t77.5 -23.5q24 0 52.5 17t44.5 17q23 0 38 -15.5t15 -37.5q0 -47 -42.5 -72.5t-97.5 -25.5q-40 0 -92 23.5t-80 23.5z" />
    <glyph glyph-name="notequal" unicode="&#x2260;" horiz-adv-x="577" 
d="M411 530h70q25 0 43 -18.5t18 -43.5q0 -26 -18 -44.5t-43 -18.5h-127l-47 -107h174q25 0 43 -18.5t18 -43.5q0 -26 -18 -44t-43 -18h-230l-36 -82q-12 -27 -42 -27q-20 0 -33.5 14.5t-13.5 33.5q0 11 4 20l18 41h-52q-25 0 -43 18t-18 44q0 25 18 43.5t43 18.5h109
l47 107h-156q-25 0 -43 18.5t-18 44.5q0 25 18 43.5t43 18.5h212l40 88q13 27 41 27q20 0 33.5 -14.5t13.5 -33.5q0 -7 -4 -19z" />
    <glyph glyph-name="lessequal" unicode="&#x2264;" horiz-adv-x="576" 
d="M102 124h371q25 0 43 -18t18 -44t-18 -44t-43 -18h-371q-25 0 -42.5 18t-17.5 44t17.5 44t42.5 18zM42 440q0 45 44 66l341 174q16 8 32 8q25 0 42.5 -17.5t17.5 -43.5q0 -35 -37 -53l-260 -134l260 -134q37 -18 37 -53q0 -26 -17.5 -43.5t-42.5 -17.5q-16 0 -32 8
l-341 174q-44 21 -44 66z" />
    <glyph glyph-name="greaterequal" unicode="&#x2265;" horiz-adv-x="576" 
d="M103 124h371q25 0 42.5 -18t17.5 -44t-17.5 -44t-42.5 -18h-371q-25 0 -43 18t-18 44t18 44t43 18zM534 440q0 -45 -44 -66l-341 -174q-16 -8 -32 -8q-25 0 -42.5 17.5t-17.5 43.5q0 35 37 53l260 134l-260 134q-37 18 -37 53q0 26 17.5 43.5t42.5 17.5q16 0 32 -8
l341 -174q44 -21 44 -66z" />
    <glyph glyph-name="lozenge" unicode="&#x25ca;" horiz-adv-x="622" 
d="M35 340q0 19 16 42l208 280q20 28 52 28t52 -28l208 -280q16 -23 16 -42t-16 -42l-208 -280q-19 -27 -52 -27t-52 27l-208 280q-16 23 -16 42zM445 340l-134 184l-134 -184l134 -184z" />
    <glyph glyph-name="uniF639" unicode="&#xf639;" horiz-adv-x="595" 
d="M556 340q0 -172 -66 -261t-192 -89t-192.5 89t-66.5 261q0 173 66.5 262t192.5 89t192 -89t66 -262zM413 340q0 114 -31 169q-28 50 -84 50q-55 0 -84 -50q-33 -56 -33 -169q0 -115 32 -169q28 -49 85 -49q56 0 84 49q31 55 31 169z" />
    <glyph glyph-name="uniF63A" unicode="&#xf63a;" horiz-adv-x="536" 
d="M195 124h255q25 0 42.5 -18t17.5 -44t-17.5 -44t-42.5 -18h-349q-26 0 -43 17.5t-17 47.5q0 73 17 120.5t58 87.5q37 36 112.5 76t100.5 62q37 32 37 77q0 39 -26.5 60.5t-68.5 21.5q-43 0 -82 -22q-8 -5 -25.5 -16t-28.5 -15.5t-23 -4.5q-28 0 -45.5 17t-17.5 46
q0 49 82 85q65 30 152 30q106 0 169 -68q49 -52 49 -130q0 -93 -70 -157q-37 -35 -107 -72t-94 -57q-35 -31 -35 -82z" />
    <glyph glyph-name="uniF63B" unicode="&#xf63b;" horiz-adv-x="505" 
d="M467 182q0 -85 -61.5 -138.5t-169.5 -53.5q-69 0 -120 15q-82 24 -82 76q0 25 18 43t43 18q12 0 21.5 -3.5t22.5 -11t20 -10.5q32 -14 67 -14q52 0 79.5 24.5t27.5 67.5q0 59 -53 83q-28 13 -81 13q-67 0 -67 57q0 22 15 38.5t41 16.5q52 0 80 14q44 21 44 75
q0 32 -21 55t-59 23q-34 0 -70 -19q-5 -2 -14.5 -8t-14.5 -8t-13 -4.5t-15 -2.5q-25 0 -43 18t-18 43q0 19 11 34.5t23.5 23t31.5 16.5q59 27 132 27q93 0 146.5 -51.5t53.5 -127.5q0 -111 -99 -155q124 -46 124 -174z" />
    <glyph glyph-name="uniF63C" unicode="&#xf63c;" horiz-adv-x="602" 
d="M336 443l-137 -194h137v194zM475 249h54q24 0 40.5 -17.5t16.5 -41.5q0 -25 -16.5 -42t-40.5 -17h-54v-74q0 -28 -20.5 -47.5t-48.5 -19.5q-29 0 -49.5 19.5t-20.5 47.5v74h-254q-23 0 -40 17t-17 42q0 21 13 40l309 429q22 31 59 31q28 0 48.5 -20t20.5 -47v-374z" />
    <glyph glyph-name="uniF63D" unicode="&#xf63d;" horiz-adv-x="550" 
d="M45 89q0 25 18 42.5t44 17.5q7 0 12.5 -1t11.5 -4t9.5 -5t11 -7l10.5 -7q38 -22 92 -22q48 0 80 33t32 86q0 58 -29 88t-78 30q-21 0 -39 -8t-23.5 -13t-22.5 -21q-30 -30 -57 -30q-24 0 -40.5 16.5t-16.5 39.5q0 12 2 30l18 267q2 25 18.5 42.5t40.5 17.5h285
q25 0 42.5 -18.5t17.5 -43.5q0 -26 -17.5 -44t-42.5 -18h-220l-9 -125q33 20 78 20q113 0 172.5 -60t59.5 -168q0 -107 -68 -170.5t-183 -63.5q-100 0 -157 31q-52 27 -52 68z" />
    <glyph glyph-name="uniF63E" unicode="&#xf63e;" horiz-adv-x="581" 
d="M46 313q0 48 5.5 93t24 98.5t48.5 93t83.5 66t124.5 26.5q85 0 139 -24q57 -26 57 -70q0 -27 -19 -45.5t-46 -18.5q-10 0 -19.5 3t-23 9.5t-19.5 8.5q-34 15 -72 15q-73 0 -112 -78q-21 -44 -24 -97q51 45 128 45q93 0 155.5 -55.5t62.5 -164.5q0 -103 -67.5 -165.5
t-171.5 -62.5q-111 0 -182.5 75.5t-71.5 247.5zM187 266q6 -156 113 -156q45 0 72.5 30t27.5 74q0 55 -27.5 80t-68.5 25q-64 0 -117 -53z" />
    <glyph glyph-name="uniF63F" unicode="&#xf63f;" horiz-adv-x="532" 
d="M89 681h364q25 0 42.5 -18.5t17.5 -43.5q0 -18 -11 -43l-247 -545q-12 -26 -40.5 -36t-54.5 1q-29 13 -39 40t3 54l167 348q25 49 67 119h-207v-53q0 -25 -18.5 -42.5t-43.5 -17.5q-26 0 -44.5 17.5t-18.5 42.5v116q0 25 18.5 43t44.5 18z" />
    <glyph glyph-name="uniF640" unicode="&#xf640;" horiz-adv-x="574" 
d="M403 191q0 33 -30.5 57.5t-90.5 48.5q-108 -43 -108 -105q0 -37 27 -63.5t86 -26.5t87.5 25.5t28.5 63.5zM376 513q0 32 -22.5 51.5t-64.5 19.5q-91 0 -91 -67q0 -22 16.5 -42t35.5 -31.5t46 -23.5q80 41 80 93zM411 359q32 -20 50.5 -33.5t39.5 -35.5t30.5 -48.5
t9.5 -60.5q0 -86 -67.5 -138.5t-186.5 -52.5q-118 0 -186 51.5t-68 137.5q0 114 135 180q-25 16 -39.5 27.5t-32.5 31t-27 44t-9 55.5q0 75 61.5 124.5t164.5 49.5q104 0 166 -49.5t62 -124.5q0 -32 -8.5 -57.5t-26.5 -45t-31.5 -30t-36.5 -25.5z" />
    <glyph glyph-name="uniF641" unicode="&#xf641;" horiz-adv-x="578" 
d="M534 366q0 -47 -5.5 -92t-24 -99t-48.5 -93.5t-83.5 -66t-123.5 -26.5q-87 0 -140 24q-57 27 -57 71q0 27 19 45.5t46 18.5q10 0 19.5 -3t23 -9.5t19.5 -8.5q36 -15 72 -15q74 0 111 78q19 37 26 97q-51 -45 -128 -45q-93 0 -156 55t-63 164q0 103 67.5 165.5t171.5 62.5
q52 0 95.5 -16t80.5 -51.5t57.5 -100.5t20.5 -155zM393 413q-5 156 -113 156q-45 0 -72.5 -30t-27.5 -74q0 -55 28 -79.5t69 -24.5q66 0 116 52z" />
    <glyph glyph-name="uniF642" unicode="&#xf642;" horiz-adv-x="698" 
d="M529 559l-355 -551q-9 -18 -30 -18q-16 0 -27 11t-11 27q0 9 6 21l354 550q15 18 32 18q16 0 27 -11t11 -27q0 -9 -7 -20zM235 479q0 29 -21.5 50.5t-52.5 21.5q-30 0 -51.5 -21.5t-21.5 -50.5q0 -30 21.5 -51.5t51.5 -21.5q31 0 52.5 21.5t21.5 51.5zM299 479
q0 -57 -40.5 -97.5t-97.5 -40.5t-97 40t-40 98q0 57 40 97.5t97 40.5t97.5 -40.5t40.5 -97.5zM405 127q0 -29 21.5 -50.5t52.5 -21.5q29 0 50 21.5t21 50.5t-21 51t-50 22q-31 0 -52.5 -22t-21.5 -51zM340 127q0 57 41 97.5t97 40.5t96.5 -40.5t40.5 -97.5t-40.5 -97.5
t-96.5 -40.5t-97 40.5t-41 97.5z" />
    <glyph glyph-name="uniF643" unicode="&#xf643;" 
d="M195 267q0 -87 33 -126q26 -31 74 -31t74 31q33 39 33 126q0 90 -33 127q-26 31 -74 31t-74 -31q-33 -37 -33 -127zM53 267q0 142 68 213q65 65 181 65t181 -65q68 -71 68 -213q0 -141 -68 -211q-65 -66 -181 -66q-117 0 -181 66q-68 70 -68 211z" />
    <glyph glyph-name="uniF644" unicode="&#xf644;" 
d="M393 124h91q25 0 42.5 -18.5t17.5 -43.5q0 -26 -17.5 -44t-42.5 -18h-355q-25 0 -42.5 18t-17.5 44q0 25 17.5 43.5t42.5 18.5h120v271l-98 -35q-11 -3 -20 -3q-25 0 -43.5 18t-18.5 44q0 20 11.5 36.5t30.5 23.5l181 62q17 5 31 5q29 0 49.5 -20.5t20.5 -49.5v-352z" />
    <glyph glyph-name="uniF645" unicode="&#xf645;" 
d="M493 382q0 -77 -62 -124q-23 -16 -75.5 -41t-74.5 -38q-53 -30 -53 -60h218q24 0 41 -18t17 -42t-17 -41.5t-41 -17.5h-304q-27 0 -43.5 16t-16.5 44q0 103 53 153q32 30 101 62t83 41q42 25 42 61q0 23 -17.5 39t-53.5 16q-42 0 -84 -27q-41 -27 -62 -27q-24 0 -39.5 16
t-15.5 42q0 45 64 77q62 32 144 32q90 0 143 -45t53 -118z" />
    <glyph glyph-name="uniF646" unicode="&#xf646;" 
d="M519 37q0 -85 -61.5 -138.5t-169.5 -53.5q-68 0 -121 15q-82 24 -82 76q0 26 18 44t44 18q11 0 20.5 -3.5t23 -11.5t19.5 -11q32 -14 67 -14q52 0 80 24.5t28 67.5q0 57 -54 83q-27 13 -81 13q-66 0 -66 57q0 22 15 38.5t41 16.5q48 0 79 14q45 21 45 75q0 32 -21 55
t-59 23q-36 0 -70 -19q-5 -2 -14.5 -8t-14.5 -8t-13 -4.5t-15 -2.5q-26 0 -44 18t-18 43q0 20 11.5 35.5t23 22.5t32.5 17q60 26 131 26q94 0 147.5 -51.5t53.5 -127.5q0 -111 -99 -155q124 -47 124 -174z" />
    <glyph glyph-name="uniF647" unicode="&#xf647;" 
d="M333 317l-142 -199h142v199zM471 118h55q23 0 40 -18t17 -41q0 -25 -17 -42t-40 -17h-55v-74q0 -27 -20.5 -47t-48.5 -20t-48.5 20t-20.5 47v74h-260q-23 0 -39.5 17t-16.5 42q0 21 13 40l314 434q21 31 58 31q29 0 49 -19.5t20 -47.5v-379z" />
    <glyph glyph-name="uniF648" unicode="&#xf648;" 
d="M73 -56q0 25 18 42.5t44 17.5q7 0 12.5 -1t11.5 -4t9.5 -5t11 -7l10.5 -7q38 -22 92 -22q48 0 80 33t32 86q0 58 -29 88t-78 30q-21 0 -39 -8t-23.5 -13t-22.5 -21q-30 -30 -57 -30q-24 0 -40.5 16.5t-16.5 39.5q0 12 2 30l18 267q2 25 18.5 42.5t40.5 17.5h285
q25 0 42.5 -18.5t17.5 -43.5q0 -26 -17.5 -44t-42.5 -18h-220l-9 -125q33 20 78 20q113 0 172.5 -60t59.5 -168q0 -107 -68 -170.5t-183 -63.5q-100 0 -157 31q-52 27 -52 68z" />
    <glyph glyph-name="uniF649" unicode="&#xf649;" 
d="M54 313q0 39 4 76.5t14.5 82.5t31.5 82t51 68.5t77.5 49.5t106.5 18q87 0 139 -24q57 -26 57 -70q0 -27 -18.5 -45.5t-45.5 -18.5q-10 0 -19.5 3t-23 9.5t-19.5 8.5q-36 15 -72 15q-75 0 -112 -78q-20 -42 -25 -97q51 45 128 45q93 0 155.5 -55.5t62.5 -164.5
q0 -103 -67 -165.5t-171 -62.5q-52 0 -95.5 16t-80.5 51.5t-57.5 100.5t-20.5 155zM194 266q6 -156 114 -156q45 0 72.5 30t27.5 74q0 55 -28 80t-69 25q-64 0 -117 -53z" />
    <glyph glyph-name="uniF64A" unicode="&#xf64a;" 
d="M124 536h364q25 0 43 -18.5t18 -43.5q0 -18 -11 -43l-248 -544q-11 -27 -39.5 -37t-54.5 2q-29 12 -39.5 39.5t2.5 53.5l168 348q20 44 66 119h-206v-53q0 -24 -19 -42t-44 -18q-26 0 -44 17.5t-18 42.5v116q0 25 18 43t44 18z" />
    <glyph glyph-name="uniF64B" unicode="&#xf64b;" 
d="M416 191q0 33 -30.5 57.5t-90.5 48.5q-107 -42 -107 -105q0 -37 26.5 -63.5t85.5 -26.5t87.5 25.5t28.5 63.5zM389 513q0 32 -22.5 51.5t-64.5 19.5q-90 0 -90 -67q0 -53 97 -97q80 41 80 93zM424 359q32 -20 50.5 -33.5t39.5 -35.5t30.5 -48.5t9.5 -60.5
q0 -86 -67.5 -138.5t-186.5 -52.5q-117 0 -185.5 51.5t-68.5 137.5q0 114 135 180q-25 16 -39.5 27.5t-32.5 31t-27 44t-9 55.5q0 75 61.5 124.5t164.5 49.5q104 0 166 -49.5t62 -124.5q0 -32 -8.5 -57.5t-26.5 -45t-31.5 -30t-36.5 -25.5z" />
    <glyph glyph-name="uniF64C" unicode="&#xf64c;" 
d="M547 222q0 -47 -5.5 -92t-24 -99t-48.5 -93.5t-83.5 -66t-123.5 -26.5q-88 0 -140 24q-57 27 -57 70q0 28 19 46.5t46 18.5q8 0 16.5 -2t14 -4.5t16 -7.5t15.5 -7q38 -16 72 -16q73 0 111 78q19 39 26 97q-52 -44 -128 -44q-93 0 -156 55t-63 164q0 103 67.5 165.5
t171.5 62.5q52 0 95.5 -16t80.5 -51.5t57.5 -100.5t20.5 -155zM406 269q-5 156 -113 156q-45 0 -72.5 -30t-27.5 -74q0 -55 28 -80t69 -25q65 0 116 53z" />
    <glyph glyph-name="uniF64E" unicode="&#xf64e;" 
d="M44 278h25q-1 9 -1 29q0 16 1 24h-25q-15 0 -24.5 9.5t-9.5 24.5q0 16 9.5 25.5t24.5 9.5h38q31 96 113 159t193 63q75 0 128 -20q58 -21 58 -64q0 -26 -17 -43.5t-42 -17.5q-12 0 -55 15q-42 14 -76 14q-51 0 -96 -28.5t-69 -77.5h227q15 0 24.5 -9.5t9.5 -25.5
q0 -15 -9.5 -24.5t-24.5 -9.5h-246q-1 -8 -1 -25q0 -10 2 -28h203q15 0 24.5 -9.5t9.5 -25.5q0 -15 -9.5 -24.5t-24.5 -9.5h-183q24 -46 66.5 -72.5t96.5 -26.5q41 0 79 12q9 3 22.5 8t23 7.5t17.5 2.5q25 0 41 -17.5t16 -43.5q0 -44 -69 -68q-60 -19 -128 -19
q-115 0 -196 59t-109 158h-37q-15 0 -24.5 9.5t-9.5 24.5q0 16 9.5 25.5t24.5 9.5z" />
    <glyph glyph-name="uniF64F" unicode="&#xf64f;" 
d="M177 444h44l10 54q13 74 55 122t119 48q71 0 109 -22q35 -18 35 -55q0 -21 -16 -35.5t-39 -14.5q-6 0 -35 11q-20 9 -41 9q-27 0 -40.5 -17t-20.5 -56l-8 -44h75q20 0 34.5 -15t14.5 -35q0 -22 -14.5 -36.5t-34.5 -14.5h-93l-72 -407q-30 -172 -191 -172q-42 0 -69 10
q-44 16 -44 56q0 22 15.5 36t38.5 14q8 0 25.5 -4t31.5 -4q27 0 42.5 17t22.5 56l72 398h-26q-20 0 -34.5 14.5t-14.5 36.5q0 20 14.5 35t34.5 15z" />
    <glyph glyph-name="uniF650" unicode="&#xf650;" horiz-adv-x="679" 
d="M254 202h141l29 136h-142zM445 441l29 139q4 20 22 31t39 7q21 -5 33 -22.5t8 -37.5l-25 -117h77q21 0 36 -15.5t15 -36.5t-15 -36t-36 -15h-98l-29 -136h81q20 0 35 -15t15 -37q0 -21 -15 -36.5t-35 -15.5h-102l-29 -137q-4 -21 -22 -32.5t-39 -6.5q-20 5 -32 22.5
t-8 37.5l24 116h-142l-28 -137q-4 -21 -22.5 -32.5t-39.5 -6.5q-21 4 -32.5 22t-7.5 38l25 116h-77q-21 0 -35.5 15.5t-14.5 36.5q0 22 14.5 37t35.5 15h98l29 136h-80q-21 0 -35.5 15t-14.5 36t14.5 36.5t35.5 15.5h101l30 139q5 20 22.5 31t38.5 7q20 -4 32 -22t8 -38
l-25 -117h141z" />
    <glyph glyph-name="uniF651" unicode="&#xf651;" 
d="M131 118h23q34 31 34 92q0 6 -2 22h-43q-21 0 -35.5 15.5t-14.5 36.5t14.5 36.5t35.5 15.5h14q-16 52 -16 97q0 81 53.5 135t155.5 54q59 0 107 -15q52 -16 52 -56q0 -23 -15 -39.5t-36 -16.5q-14 0 -43 9q-37 8 -54 8q-49 0 -71.5 -24t-22.5 -59q0 -44 17 -93h117
q21 0 36 -15.5t15 -36.5t-15 -36.5t-36 -15.5h-89l1 -22q0 -54 -31 -92h188q23 0 39.5 -17.5t16.5 -41.5t-16.5 -41.5t-39.5 -17.5h-339q-24 0 -40.5 17.5t-16.5 41.5t16.5 41.5t40.5 17.5z" />
    <glyph glyph-name="uniF652" unicode="&#xf652;" 
d="M421 338h68q18 0 30 -13t12 -31q0 -19 -12 -31t-30 -12h-124v-59h124q18 0 30 -13t12 -31t-12 -30.5t-30 -12.5h-124v-51q0 -27 -19.5 -45.5t-46.5 -18.5t-46 18.5t-19 45.5v51h-123q-18 0 -30.5 12.5t-12.5 30.5t12.5 31t30.5 13h123v59h-123q-18 0 -30.5 12t-12.5 31
q0 18 12.5 31t30.5 13h68l-122 177q-13 18 -13 41q0 27 19 45.5t47 18.5q35 0 54 -30l134 -204l138 205q18 29 54 29q27 0 46 -18t19 -46q0 -24 -12 -42z" />
    <glyph glyph-name="uniF653" unicode="&#xf653;" 
d="M264 616v56q0 14 11 24.5t27 10.5t27 -10.5t11 -24.5v-53q72 -8 112 -25q55 -23 55 -66q0 -28 -18 -46t-45 -18q-15 0 -61 18q-52 20 -84 20q-83 0 -83 -52q0 -35 62 -58q13 -4 52 -15.5t69 -23.5t54 -28q75 -49 75 -137q0 -79 -51.5 -129t-136.5 -61v-51
q0 -15 -11 -25.5t-27 -10.5t-27 10.5t-11 25.5v48q-93 4 -153 41q-40 24 -40 61q0 27 18.5 45.5t46.5 18.5q9 0 17 -3t21.5 -10.5t20.5 -10.5q50 -23 97 -23q90 0 90 65q0 36 -51 57q-13 6 -74.5 25.5t-93.5 38.5q-90 52 -90 150q0 68 50.5 112.5t140.5 53.5z" />
    <glyph glyph-name="uniF654" unicode="&#xf654;" 
d="M307 465v63q0 13 10.5 23t24.5 10q15 0 25 -9.5t10 -23.5v-62q41 -5 79 -22q52 -25 52 -61q0 -22 -16 -38t-38 -16q-16 0 -47.5 13.5t-57.5 13.5q-61 0 -95 -42q-28 -33 -28 -84q0 -58 33 -93q35 -37 90 -37q31 0 64 12.5t45 12.5q21 0 36 -16t15 -38q0 -23 -16 -37.5
t-51 -27.5q-31 -11 -65 -14v-61q0 -13 -10.5 -23t-24.5 -10t-24.5 10t-10.5 23v61q-90 11 -143 61q-73 67 -73 177q0 89 54 153q62 70 162 82z" />
    <glyph glyph-name="uniF6DC" unicode="&#xf6dc;" horiz-adv-x="532" 
d="M344 124h106q25 0 42.5 -18.5t17.5 -43.5q0 -26 -17.5 -44t-42.5 -18h-366q-25 0 -43 18t-18 44q0 25 18 43.5t43 18.5h116v415l-97 -35q-10 -3 -20 -3q-25 0 -43.5 18t-18.5 44q0 45 41 60l182 62q17 5 30 5q29 0 49.5 -20.5t20.5 -49.5v-496z" />
    <glyph glyph-name="OEsmall" unicode="&#xf6fa;" horiz-adv-x="931" 
d="M618 215v-97h238q25 0 42 -16.5t17 -42.5t-17 -42.5t-42 -16.5h-305q-40 0 -58 33q-70 -41 -162 -41q-78 0 -141 30t-101 85q-50 70 -50 165t50 165q38 55 101 85t141 30q92 0 162 -42q20 34 58 34h305q25 0 42 -16.5t17 -42.5t-17 -42.5t-42 -16.5h-238v-94h197
q25 0 42 -16t17 -42t-17 -42.5t-42 -16.5h-197zM177 272q0 -59 33 -101q44 -57 121 -57q76 0 120 57q33 42 33 101t-33 101q-44 57 -120 57q-77 0 -121 -57q-33 -42 -33 -101z" />
    <glyph glyph-name="zerooldstyle" unicode="&#xf730;" horiz-adv-x="581" 
d="M183 267q0 -87 33 -126q26 -31 74 -31t74 31q33 39 33 126q0 90 -33 127q-26 31 -74 31t-74 -31q-33 -37 -33 -127zM41 267q0 143 68 213q62 65 181 65q118 0 181 -65q68 -71 68 -213q0 -141 -68 -211q-63 -66 -181 -66q-117 0 -181 66q-68 71 -68 211z" />
    <glyph glyph-name="oneoldstyle" unicode="&#xf731;" horiz-adv-x="506" 
d="M341 124h91q25 0 42.5 -18.5t17.5 -43.5q0 -26 -17.5 -44t-42.5 -18h-355q-25 0 -42.5 18t-17.5 44q0 25 17.5 43.5t42.5 18.5h120v271l-98 -35q-11 -3 -20 -3q-24 0 -43 18t-19 44q0 20 11.5 36.5t30.5 23.5l181 62q17 5 31 5q29 0 49.5 -20.5t20.5 -49.5v-352z" />
    <glyph glyph-name="twooldstyle" unicode="&#xf732;" horiz-adv-x="491" 
d="M453 382q0 -78 -62 -124q-23 -16 -75.5 -41t-74.5 -38q-53 -30 -53 -60h218q24 0 41.5 -18t17.5 -42t-17.5 -41.5t-41.5 -17.5h-304q-26 0 -43 16t-17 44q0 101 53 153q32 31 101.5 62.5t83.5 40.5q41 26 41 61q0 24 -17 39.5t-53 15.5q-43 0 -85 -27q-41 -27 -62 -27
q-24 0 -39.5 16t-15.5 42q0 45 64 77q62 32 144 32q90 0 143 -45t53 -118z" />
    <glyph glyph-name="threeoldstyle" unicode="&#xf733;" horiz-adv-x="492" 
d="M456 37q0 -85 -62 -138.5t-170 -53.5q-69 0 -120 15q-82 24 -82 76q0 26 18 44t44 18q11 0 20.5 -3.5t23 -11.5t19.5 -11q32 -14 67 -14q52 0 79.5 24.5t27.5 67.5q0 57 -53 83q-27 13 -81 13q-66 0 -66 57q0 22 15 38.5t41 16.5q48 0 79 14q45 21 45 75q0 32 -21 55
t-59 23q-36 0 -70 -19q-5 -3 -15 -8l-15 -7.5t-12.5 -5t-14.5 -2.5q-26 0 -44 18t-18 43q0 20 11.5 35.5t23 22.5t32.5 17q60 26 131 26q94 0 147 -51.5t53 -127.5q0 -111 -98 -155q124 -47 124 -174z" />
    <glyph glyph-name="fouroldstyle" unicode="&#xf734;" horiz-adv-x="607" 
d="M338 317l-142 -199h142v199zM477 118h54q24 0 40.5 -17.5t16.5 -41.5q0 -25 -16.5 -42t-40.5 -17h-54v-74q0 -27 -20.5 -47t-48.5 -20q-29 0 -49.5 20t-20.5 47v74h-259q-23 0 -40 17t-17 42q0 21 13 40l314 434q22 31 59 31q29 0 49 -19.5t20 -47.5v-379z" />
    <glyph glyph-name="fiveoldstyle" unicode="&#xf735;" horiz-adv-x="544" 
d="M44 -56q0 25 18 42.5t44 17.5q7 0 12.5 -1t11.5 -4t9.5 -5t11 -7l10.5 -7q39 -22 92 -22q48 0 80 33t32 86q0 58 -29 88t-78 30q-21 0 -39 -8t-23.5 -13t-22.5 -21q-30 -30 -57 -30q-24 0 -40.5 16.5t-16.5 39.5q0 12 2 30l18 267q2 25 18.5 42.5t40.5 17.5h285
q25 0 42.5 -18.5t17.5 -43.5q0 -26 -17.5 -44t-42.5 -18h-220l-9 -125q33 20 78 20q113 0 172.5 -60t59.5 -168q0 -107 -68 -170.5t-183 -63.5q-100 0 -157 31q-52 27 -52 68z" />
    <glyph glyph-name="sixoldstyle" unicode="&#xf736;" horiz-adv-x="573" 
d="M47 313q0 48 5.5 93t24 98.5t48.5 93t83.5 66t124.5 26.5q85 0 139 -24q57 -26 57 -70q0 -27 -19 -45.5t-46 -18.5q-10 0 -19.5 3t-23 9.5t-19.5 8.5q-34 15 -72 15q-73 0 -112 -78q-21 -44 -24 -97q51 45 127 45q94 0 156.5 -55t62.5 -165q0 -103 -67.5 -165.5
t-171.5 -62.5q-52 0 -95.5 16t-80.5 51.5t-57.5 100.5t-20.5 155zM188 266q5 -156 113 -156q45 0 72.5 30t27.5 74q0 55 -27.5 80t-68.5 25q-64 0 -117 -53z" />
    <glyph glyph-name="sevenoldstyle" unicode="&#xf737;" horiz-adv-x="518" 
d="M77 536h364q25 0 42.5 -18.5t17.5 -43.5q0 -21 -11 -43l-247 -544q-12 -27 -40 -37t-55 2q-28 12 -38.5 39.5t2.5 53.5l168 348q20 44 66 119h-207v-53q0 -25 -18.5 -42.5t-43.5 -17.5q-26 0 -44.5 17.5t-18.5 42.5v116q0 25 18.5 43t44.5 18z" />
    <glyph glyph-name="eightoldstyle" unicode="&#xf738;" horiz-adv-x="573" 
d="M402 191q0 33 -30.5 57.5t-90.5 48.5q-107 -43 -107 -105q0 -37 27 -63.5t86 -26.5t87 25.5t28 63.5zM376 513q0 32 -23 51.5t-64 19.5q-91 0 -91 -67q0 -53 98 -97q80 41 80 93zM411 359q32 -20 50.5 -33.5t39.5 -35.5t30.5 -48.5t9.5 -60.5q0 -86 -67.5 -138.5
t-186.5 -52.5q-118 0 -186 51.5t-68 137.5q0 114 135 180q-25 16 -39.5 27.5t-32.5 31t-27 44t-9 55.5q0 75 61 124.5t165 49.5t166 -49.5t62 -124.5q0 -32 -8.5 -57.5t-26.5 -45t-31.5 -30t-36.5 -25.5z" />
    <glyph glyph-name="nineoldstyle" unicode="&#xf739;" horiz-adv-x="574" 
d="M527 222q0 -47 -6 -92.5t-24.5 -99t-48.5 -93t-83.5 -66t-123.5 -26.5q-86 0 -139 24q-57 26 -57 70q0 28 19 46.5t46 18.5q10 0 19.5 -3t23 -9.5t19.5 -8.5q32 -16 72 -16q71 0 111 78q20 40 25 97q-52 -44 -127 -44q-94 0 -156.5 55t-62.5 164q0 103 67.5 165.5
t171.5 62.5q52 0 95.5 -16t80.5 -51.5t57.5 -100.5t20.5 -155zM386 269q-5 156 -113 156q-45 0 -72.5 -30t-27.5 -74q0 -55 27.5 -80t68.5 -25q64 0 117 53z" />
    <glyph glyph-name="Asmall" unicode="&#xf761;" horiz-adv-x="514" 
d="M377 35l-26 72h-189l-26 -73q-5 -19 -22.5 -30.5t-41.5 -11.5q-29 0 -45.5 17t-16.5 44q0 10 6 28l155 405q24 66 88 66q67 0 89 -67l149 -403q6 -15 6 -28q0 -27 -17 -44.5t-45 -17.5q-23 0 -40.5 12t-23.5 31zM258 381l-63 -171h125z" />
    <glyph glyph-name="Bsmall" unicode="&#xf762;" horiz-adv-x="539" 
d="M504 151q0 -76 -52.5 -113.5t-134.5 -37.5h-186q-28 0 -47 18.5t-19 45.5v415q0 28 16.5 46.5t46.5 18.5h158q75 0 125 -37.5t50 -106.5q0 -70 -53 -110q96 -32 96 -139zM329 384q0 24 -18 36.5t-43 12.5h-71v-101h72q24 0 42 12t18 40zM370 166q0 55 -78 55h-95v-110h95
q78 0 78 55z" />
    <glyph glyph-name="Csmall" unicode="&#xf763;" horiz-adv-x="528" 
d="M331 552q77 0 125 -22q51 -21 51 -62q0 -26 -18 -44.5t-44 -18.5q-16 0 -49.5 12.5t-67.5 12.5q-70 0 -116 -56q-36 -44 -36 -102q0 -68 45 -113q42 -44 109 -44q38 0 73.5 13.5t52.5 13.5q25 0 41.5 -18t16.5 -46q0 -41 -60 -65q-50 -21 -125 -21q-127 0 -208 75
q-83 78 -83 206q0 106 73 184q87 95 220 95z" />
    <glyph glyph-name="Dsmall" unicode="&#xf764;" horiz-adv-x="612" 
d="M575 272q0 -63 -18.5 -112.5t-48 -79t-70.5 -48t-80.5 -25.5t-83.5 -7h-143q-28 0 -47 18.5t-19 45.5v415q0 27 19 46t47 19h153q55 0 103.5 -13.5t92 -43t69.5 -84.5t26 -131zM197 429v-316h69q174 0 174 159q0 157 -171 157h-72z" />
    <glyph glyph-name="Esmall" unicode="&#xf765;" horiz-adv-x="511" 
d="M197 215v-97h238q25 0 42 -16.5t17 -42.5t-17 -42.5t-42 -16.5h-304q-27 0 -46.5 19t-19.5 45v415q0 27 19.5 46t46.5 19h304q25 0 42 -16.5t17 -42.5t-17 -42.5t-42 -16.5h-238v-94h198q25 0 42 -16t17 -42t-17 -42.5t-42 -16.5h-198z" />
    <glyph glyph-name="Fsmall" unicode="&#xf766;" horiz-adv-x="480" 
d="M131 544h281q25 0 42 -16.5t17 -42.5t-17 -42.5t-42 -16.5h-215v-94h181q25 0 42 -16t17 -42t-17 -42.5t-42 -16.5h-181v-159q0 -26 -19.5 -45t-46.5 -19t-46.5 19t-19.5 45v423q0 27 19.5 46t46.5 19z" />
    <glyph glyph-name="Gsmall" unicode="&#xf767;" horiz-adv-x="610" 
d="M331 552q80 0 126 -21q50 -21 50 -63q0 -26 -18 -44t-44 -18q-16 0 -49 13t-68 13q-71 0 -117 -56q-36 -46 -36 -103q0 -75 45 -118q42 -42 109 -42q55 0 95 22v51h-66q-24 0 -41 16.5t-17 42.5t17 42.5t41 16.5h131q29 0 47.5 -17t18.5 -46v-186q0 -28 -19 -45.5
t-47 -17.5q-32 0 -51 21q-50 -21 -113 -21q-129 0 -206 73q-81 76 -81 208q0 106 73 184q87 95 220 95z" />
    <glyph glyph-name="Hsmall" unicode="&#xf768;" horiz-adv-x="611" 
d="M414 487q0 27 19.5 46t46.5 19q28 0 47 -19t19 -46v-431q0 -26 -19.5 -45t-46.5 -19t-46.5 19t-19.5 45v159h-217v-159q0 -26 -19.5 -45t-46.5 -19t-46.5 19t-19.5 45v431q0 27 19.5 46t46.5 19q28 0 47 -19t19 -46v-153h217v153z" />
    <glyph glyph-name="Ismall" unicode="&#xf769;" horiz-adv-x="262" 
d="M65 56v432q0 27 19.5 45.5t46.5 18.5q28 0 47 -18.5t19 -45.5v-432q0 -26 -19.5 -45t-46.5 -19t-46.5 19t-19.5 45z" />
    <glyph glyph-name="Jsmall" unicode="&#xf76a;" horiz-adv-x="452" 
d="M389 488v-287q0 -97 -49 -151q-55 -58 -161 -58q-66 0 -117 30q-48 27 -48 68q0 27 17.5 44.5t43.5 17.5q17 0 43 -16q35 -24 59 -24q43 0 62 26q17 21 17 72v278q0 27 19.5 45.5t48.5 18.5q27 0 46 -18.5t19 -45.5z" />
    <glyph glyph-name="Ksmall" unicode="&#xf76b;" horiz-adv-x="505" 
d="M459 445l-137 -139l154 -203q18 -23 18 -44q0 -28 -19.5 -47.5t-46.5 -19.5q-36 0 -55 29l-141 188l-35 -33v-120q0 -26 -19.5 -45t-46.5 -19t-46.5 19t-19.5 45v432q0 27 19.5 45.5t46.5 18.5q28 0 47 -18.5t19 -45.5v-133l168 177q19 20 46 20t45.5 -18.5t18.5 -46.5
q0 -25 -16 -42z" />
    <glyph glyph-name="Lsmall" unicode="&#xf76c;" horiz-adv-x="447" 
d="M65 65v423q0 26 19.5 45t46.5 19t46.5 -19t19.5 -45v-370h184q25 0 42 -16.5t17 -42.5t-17 -42.5t-42 -16.5h-250q-27 0 -46.5 19t-19.5 46z" />
    <glyph glyph-name="Msmall" unicode="&#xf76d;" horiz-adv-x="693" 
d="M65 54v421q0 33 22 55t58 22q47 0 69 -39l132 -227l131 227q22 39 70 39q36 0 58.5 -22t22.5 -55v-421q0 -25 -18.5 -43.5t-46.5 -18.5t-46.5 18.5t-18.5 43.5v261q-13 -24 -88 -148q-23 -39 -63 -39q-44 0 -65 39l-88 148v-261q0 -26 -18 -44t-47 -18q-28 0 -46 18
t-18 44z" />
    <glyph glyph-name="Nsmall" unicode="&#xf76e;" horiz-adv-x="620" 
d="M555 492v-440q0 -25 -18.5 -42.5t-43.5 -17.5q-30 0 -56 29l-246 299v-268q0 -24 -18.5 -42t-45.5 -18t-44.5 17.5t-17.5 42.5v440q0 25 18.5 42.5t43.5 17.5q33 0 56 -29l246 -299v268q0 24 18.5 42t45.5 18t44.5 -17.5t17.5 -42.5z" />
    <glyph glyph-name="Osmall" unicode="&#xf76f;" horiz-adv-x="658" 
d="M176 272q0 -59 33 -101q44 -57 120 -57q77 0 121 57q33 42 33 101t-33 101q-44 57 -121 57q-76 0 -120 -57q-33 -42 -33 -101zM38 272q0 94 49 165q38 55 101 85t141 30t141 -30t101 -85q50 -70 50 -165t-50 -165q-38 -55 -101 -85t-141 -30t-141 30t-101 85
q-49 71 -49 165z" />
    <glyph glyph-name="Psmall" unicode="&#xf770;" horiz-adv-x="530" 
d="M132 544h169q100 0 156 -56q50 -52 50 -136q0 -95 -58 -145q-55 -49 -155 -49h-97v-102q0 -26 -19.5 -45t-45.5 -19q-28 0 -47.5 19t-19.5 45v423q0 27 19.5 46t47.5 19zM372 352q0 37 -23 58q-20 20 -64 20h-89v-158h87q36 0 59 15q30 19 30 65z" />
    <glyph glyph-name="Qsmall" unicode="&#xf771;" horiz-adv-x="660" 
d="M38 272q0 125 82.5 202.5t209.5 77.5q128 0 210 -77.5t82 -202.5q0 -109 -61.5 -181.5t-162.5 -91.5q2 -6 16 -11q121 -35 196 -46q65 -10 65 -61q0 -27 -20.5 -42.5t-50.5 -15.5q-74 0 -316 93q-24 9 -35.5 19.5t-11.5 30.5q0 19 13 34q-97 21 -156.5 92.5t-59.5 179.5z
M176 272q0 -68 43 -113t111 -45q67 0 110.5 45t43.5 113t-43 113t-111 45t-111 -45t-43 -113z" />
    <glyph glyph-name="Rsmall" unicode="&#xf772;" horiz-adv-x="549" 
d="M394 23l-104 159h-93v-126q0 -26 -19.5 -45t-45.5 -19q-28 0 -47.5 19t-19.5 45v423q0 27 19.5 46t47.5 19h181q94 0 149 -47t55 -134q0 -108 -93 -155l76 -107q17 -24 17 -45q0 -29 -19.5 -46.5t-47.5 -17.5q-36 0 -56 31zM306 430h-109v-134h107q78 0 78 67t-76 67z
" />
    <glyph glyph-name="Ssmall" unicode="&#xf773;" horiz-adv-x="464" 
d="M418 468q0 -24 -16 -39.5t-41 -15.5q-15 0 -60 17q-40 16 -72 16q-73 0 -73 -46q0 -22 16.5 -33.5t50.5 -22.5q11 -3 37.5 -10.5t41 -12t35.5 -13t37 -19.5q63 -41 63 -125q0 -79 -59.5 -125.5t-152.5 -46.5q-86 0 -144 27q-54 24 -54 65q0 24 16 40t39 16q20 0 66 -23
q42 -20 79 -20q38 0 58.5 15.5t20.5 42.5q0 24 -20 38t-56 26q-4 1 -18.5 5.5t-20 6t-18.5 5.5t-20 7t-18.5 7.5t-19 8.5t-17 10t-17.5 12q-53 40 -53 119q0 68 54.5 110t154.5 42q75 0 124 -20q57 -21 57 -64z" />
    <glyph glyph-name="Tsmall" unicode="&#xf774;" horiz-adv-x="487" 
d="M426 426h-116v-370q0 -26 -20 -45t-47 -19t-46.5 19t-19.5 45v370h-117q-24 0 -41 17t-17 41t17.5 42t40.5 18h366q24 0 41.5 -18t17.5 -42t-17.5 -41t-41.5 -17z" />
    <glyph glyph-name="Usmall" unicode="&#xf775;" horiz-adv-x="605" 
d="M303 113q54 0 80 25q32 29 32 86v264q0 26 19 45t46 19q28 0 48 -19t20 -45v-271q0 -109 -66 -167q-64 -58 -179 -58q-116 0 -180 58q-66 58 -66 167v271q0 26 20 45t48 19q27 0 46 -19t19 -45v-264q0 -57 32 -86q28 -25 81 -25z" />
    <glyph glyph-name="Vsmall" unicode="&#xf776;" horiz-adv-x="532" 
d="M265 170l127 338q16 44 65 44q32 0 50.5 -17.5t18.5 -46.5q0 -9 -8 -29l-164 -403q-13 -33 -34 -48.5t-57 -15.5t-57 15.5t-33 48.5l-161 407q-5 12 -5 24q0 27 20 46t50 19q46 0 62 -45z" />
    <glyph glyph-name="Wsmall" unicode="&#xf777;" horiz-adv-x="825" 
d="M486 492l95 -328l97 332q14 56 68 56q32 0 50.5 -20.5t18.5 -48.5q0 -12 -10 -48l-126 -378q-22 -65 -94 -65q-76 0 -96 65l-77 242l-76 -242q-20 -65 -96 -65q-74 0 -94 65l-125 379q-11 31 -11 47q0 28 19 48.5t50 20.5q55 0 69 -59l95 -329l95 328q15 60 73 60
q60 0 75 -60z" />
    <glyph glyph-name="Xsmall" unicode="&#xf778;" horiz-adv-x="494" 
d="M140 524l109 -145l109 145q19 28 56 28q31 0 53 -19t22 -49q0 -22 -15 -40l-139 -171l144 -173q14 -16 14 -40q0 -29 -21 -48.5t-53 -19.5q-35 0 -56 28q-11 16 -55.5 72.5t-57.5 75.5l-115 -148q-21 -28 -58 -28q-31 0 -52.5 19t-21.5 49q0 24 15 40l147 171l-142 173
q-15 18 -15 40q0 28 21.5 48t53.5 20q35 0 57 -28z" />
    <glyph glyph-name="Ysmall" unicode="&#xf779;" horiz-adv-x="481" 
d="M454 441l-147 -216v-169q0 -27 -18.5 -45.5t-48.5 -18.5t-48 18.5t-18 45.5v169l-148 218q-15 21 -15 46q0 28 18.5 45.5t46.5 17.5q37 0 58 -34l105 -164l110 168q19 30 56 30q28 0 46.5 -18t18.5 -46q0 -24 -16 -47z" />
    <glyph glyph-name="Zsmall" unicode="&#xf77a;" horiz-adv-x="471" 
d="M80 544h307q28 0 43 -17t15 -43q0 -19 -13 -39l-230 -327h194q25 0 41.5 -16t16.5 -43q0 -26 -16.5 -42.5t-41.5 -16.5h-315q-26 0 -42.5 17t-16.5 42q0 19 12 37l231 330h-185q-24 0 -41 16t-17 42t17 43t41 17z" />
    <glyph glyph-name="AEsmall" unicode="&#xf7e6;" horiz-adv-x="829" 
d="M182 107l-57 -78q-27 -38 -61 -38q-57 0 -57 54q4 24 25 53l276 366q30 40 55.5 60t61.5 20h328q25 0 42 -16.5t17 -42.5t-17 -42.5t-42 -16.5h-238v-94h197q25 0 42 -16.5t17 -42.5t-17 -42.5t-42 -16.5h-197v-97h238q25 0 41.5 -16t16.5 -42q0 -20 -7.5 -33t-23.5 -18
t-29.5 -6.5t-36.5 -1.5h-266q-27 0 -46.5 18.5t-19.5 44.5v44h-200zM257 209h125v167z" />
    <glyph glyph-name="apple" unicode="&#xf8ff;" horiz-adv-x="641" 
d="M322 691q83 0 136.5 -47.5t71.5 -117t9 -150.5q14 8 24 8q14 0 20 -15q5 -10 2 -38q-1 -8 -17 -49q-1 -7 -7 -16.5t-7 -12.5q-8 -17 -20 -24q-8 -130 -112 -197q-48 -42 -100 -42q-42 0 -89 30q-23 9 -46 30t-36 43q-34 66 -40 131q-4 4 -8.5 9.5t-10 13.5t-8.5 12
q-6 8 -22 56q-8 32 -8 39q0 14 5.5 25.5t15.5 11.5q9 0 27 -10q-14 133 48 221.5t172 88.5zM460 551v31l-31 3q-58 9 -61 -42q-28 10 -55 10q-53 0 -84.5 -30.5t-31.5 -81.5q0 -77 58 -101q-17 -13 -17 -32q0 -22 26.5 -38.5t58.5 -24.5t58.5 -22t26.5 -33q0 -27 -23 -43.5
t-63 -16.5q-41 0 -65 17t-24 42v6l-31 -15q0 -43 37 -63.5t83 -20.5q48 0 87 23.5t39 70.5q0 29 -18 45.5t-51 30.5q-16 7 -53.5 18t-47.5 18v31q25 -5 35 -5q51 0 81 30t30 83q0 50 -30 83q3 27 29 27h37zM386 441q0 -36 -19 -58t-54 -22q-37 0 -56.5 21.5t-19.5 58.5
q0 35 19.5 56.5t56.5 21.5q35 0 54 -21t19 -57zM348 186q0 11 -11 11h-13v-30h9v9h2q13 0 13 10zM355 197v-30h21v8h-12v4h11v7h-11v4h12v7h-21zM317 197h-9l-4 -11l-5 11h-10l10 -18v-12h9v12zM260 197v-7h8v-23h9v23h8v7h-25zM340 186q0 -4 -6 -4h-1v9h1q6 0 6 -5z" />
    <glyph glyph-name="s_t" unicode="&#xfb06;" horiz-adv-x="804" 
d="M628 354v-189q0 -61 47 -61q19 0 43 14t40 14q22 0 36 -15.5t14 -37.5q0 -42 -62 -70q-46 -19 -97 -19q-77 0 -115 45t-38 116v203h-24q-21 0 -36 15.5t-15 36.5q0 22 14.5 37t36.5 15h24v30q0 135 -93 135q-42 0 -64 -26.5t-22 -66.5q0 -56 38 -91q24 -23 24 -44
q0 -24 -14.5 -39t-35.5 -15q-20 0 -51 11t-54 11q-47 0 -47 -32q0 -23 43 -40q7 -3 41 -15.5t53 -21.5q75 -38 75 -117q0 -64 -51 -105.5t-136 -41.5q-175 0 -175 82q0 22 14.5 37t36.5 15q18 0 53 -15.5t66 -15.5q53 0 53 36q0 15 -10 23.5t-32 18.5q-12 5 -45.5 17.5
t-51.5 21.5q-74 38 -74 121q0 60 39.5 94t106.5 41q18 2 51 -1q-23 39 -23 86q0 75 53.5 123.5t149.5 48.5q103 0 158.5 -60t55.5 -172v-33h90q20 0 35 -15t15 -37q0 -21 -15 -36.5t-35 -15.5h-90z" />
    <glyph glyph-name="A.2" horiz-adv-x="694" 
d="M210 400v-63h273v63q0 82 -40 120q-37 36 -97 36q-59 0 -95 -36q-41 -39 -41 -120zM627 406v-346q0 -29 -21.5 -49.5t-50.5 -20.5q-30 0 -51 20.5t-21 49.5v150h-273v-150q0 -29 -21.5 -49.5t-50.5 -20.5q-30 0 -51 20.5t-21 49.5v346q0 139 100 223q75 61 180 61
q109 0 182 -61q99 -82 99 -223z" />
    <glyph glyph-name="A.3" horiz-adv-x="659" 
d="M72 578q0 47 66 75q83 37 197 37q136 0 201 -75q57 -66 57 -187v-368q0 -29 -21 -49.5t-51 -20.5q-23 0 -41 12t-26 32q-73 -44 -188 -44q-89 0 -154.5 52.5t-65.5 143.5q0 111 97 167q96 56 306 66q-2 141 -126 141q-45 0 -99.5 -24.5t-83.5 -24.5t-48.5 19t-19.5 48z
M201 193q0 -42 32.5 -62.5t85.5 -20.5q69 0 130 41v156q-121 -5 -179 -30q-69 -30 -69 -84z" />
    <glyph glyph-name="A.calt" horiz-adv-x="694" 
d="M346 556q-55 0 -94 -36q-42 -44 -42 -120v-64h273v64q0 77 -41 120q-38 36 -96 36zM627 406v-346q0 -29 -21.5 -49.5t-50.5 -20.5q-30 0 -51 20.5t-21 49.5v148h-273v-148q0 -29 -21.5 -49.5t-50.5 -20.5q-30 0 -51 20.5t-21 49.5v346q0 64 25.5 123t75.5 100
q71 61 179 61t181 -61q50 -40 75 -99t25 -124z" />
    <glyph glyph-name="AE.3" horiz-adv-x="1136" 
d="M46 186q0 122 132 178q95 41 272 47v8q0 73 -32 110q-31 35 -95 35q-46 0 -104 -28q-50 -25 -79 -25t-48 19t-19 48q0 48 65 75q83 37 197 37q137 0 202 -75q8 -10 11 -16q91 91 237 91q147 0 232 -88q83 -87 83 -208q0 -52 -25.5 -78t-65.5 -26h-399q15 -74 62 -118
q55 -52 142 -52q58 0 105 17q16 6 34 15.5t30.5 14.5t24.5 5q28 0 45.5 -19t17.5 -48q0 -52 -81 -84q-77 -31 -178 -31q-171 0 -267 96q-56 -46 -119.5 -71t-153.5 -25q-93 0 -159.5 52.5t-66.5 143.5zM319 110q87 0 165 67q-24 54 -31 113q-118 0 -182 -22q-69 -24 -69 -75
q0 -42 32.5 -62.5t84.5 -20.5zM612 414h336q-6 60 -41 98q-43 45 -121 45q-80 0 -130 -53q-33 -34 -44 -90z" />
    <glyph glyph-name="AE.calt" horiz-adv-x="977" 
d="M612 279v-151h273q25 0 43.5 -19.5t18.5 -44.5q0 -26 -18.5 -45t-43.5 -19h-345q-30 0 -51 20.5t-21 49.5v138h-258v-148q0 -29 -21.5 -49.5t-50.5 -20.5q-30 0 -51 20.5t-21 49.5v346q0 64 24.5 123t72.5 100q71 61 176 61q80 0 143 -37q21 28 58 28h345q25 0 43.5 -19
t18.5 -45t-18.5 -45t-43.5 -19h-273v-147h220q25 0 43.5 -19t18.5 -45t-18 -44.5t-44 -18.5h-220zM339 556q-54 0 -90 -36q-39 -42 -39 -120v-64h258v64q0 78 -39 120q-34 36 -90 36z" />
    <glyph glyph-name="AEsmall.3" horiz-adv-x="916" 
d="M654 112q48 0 80 13q12 4 26.5 11t24.5 11t19 4q25 0 41.5 -17.5t16.5 -43.5q0 -47 -75 -75q-57 -23 -137 -23q-128 0 -202 68q-96 -68 -213 -68q-81 0 -133.5 43.5t-52.5 119.5q0 44 20.5 77t50.5 51.5t74.5 30t83 15.5t85.5 5q-2 54 -21 76q-19 23 -64 23
q-36 0 -82 -24q-36 -18 -58 -18q-28 0 -46 18t-18 45q0 43 57 68q68 30 156 30q113 0 164 -64q72 64 179 64q118 0 188 -72q66 -69 66 -167q0 -45 -22 -66t-58 -21h-292q10 -46 38 -75q38 -39 104 -39zM263 105q65 0 124 41q-15 35 -21 81q-37 -1 -63 -4t-56 -9.5t-46 -20
t-16 -33.5q0 -28 22.5 -41.5t55.5 -13.5zM513 330h233q-3 46 -32 73q-32 29 -81 29q-53 0 -85 -33q-28 -29 -35 -69z" />
    <glyph glyph-name="Aacute.2" horiz-adv-x="694" 
d="M210 400v-63h273v63q0 82 -40 120q-37 36 -97 36q-59 0 -95 -36q-41 -39 -41 -120zM627 406v-346q0 -29 -21.5 -49.5t-50.5 -20.5q-30 0 -51 20.5t-21 49.5v150h-273v-150q0 -29 -21.5 -49.5t-50.5 -20.5q-30 0 -51 20.5t-21 49.5v346q0 139 100 223q75 61 180 61
q109 0 182 -61q99 -82 99 -223zM266 805q0 15 9 31l53 105q16 33 47 33q21 0 36.5 -14.5t15.5 -34.5q0 -12 -13 -34l-61 -100q-18 -28 -43 -28q-18 0 -31 12t-13 30z" />
    <glyph glyph-name="Aacute.3" horiz-adv-x="659" 
d="M72 578q0 47 66 75q83 37 197 37q136 0 201 -75q57 -66 57 -187v-368q0 -29 -21 -49.5t-51 -20.5q-23 0 -41 12t-26 32q-73 -44 -188 -44q-89 0 -154.5 52.5t-65.5 143.5q0 111 97 167q96 56 306 66q-2 141 -126 141q-45 0 -99.5 -24.5t-83.5 -24.5t-48.5 19t-19.5 48z
M201 193q0 -42 32.5 -62.5t85.5 -20.5q69 0 130 41v156q-121 -5 -179 -30q-69 -30 -69 -84zM243 805q0 15 9 31l53 105q16 33 47 33q21 0 36.5 -14.5t15.5 -34.5q0 -12 -13 -34l-61 -100q-18 -28 -43 -28q-18 0 -31 12t-13 30z" />
    <glyph glyph-name="Aacute.calt" horiz-adv-x="694" 
d="M261 809q0 15 9 31l53 105q16 33 47 33q21 0 36.5 -14.5t15.5 -34.5q0 -12 -13 -34l-61 -100q-18 -28 -43 -28q-18 0 -31 12t-13 30zM346 556q-55 0 -94 -36q-42 -44 -42 -120v-64h273v64q0 77 -41 120q-38 36 -96 36zM627 406v-346q0 -29 -21.5 -49.5t-50.5 -20.5
q-30 0 -51 20.5t-21 49.5v148h-273v-148q0 -29 -21.5 -49.5t-50.5 -20.5q-30 0 -51 20.5t-21 49.5v346q0 64 25.5 123t75.5 100q71 61 179 61t181 -61q50 -40 75 -99t25 -124z" />
    </font>
</defs>
</svg>
